<svg width="180" height="157" viewBox="0 0 180 157" fill="none" xmlns="http://www.w3.org/2000/svg">
<path d="M178.641 52.6387V66.8018L134.226 92.4441V78.281L178.641 52.6387ZM134.226 78.281V92.4441C128.854 89.3413 123.484 86.2415 118.115 83.1427C117.127 82.5727 115.323 82.8997 115.255 83.8087C115.255 68.5506 115.257 69.7876 115.252 69.7166C115.252 68.7026 117.154 68.4256 118.114 68.9796C123.483 72.0794 128.854 75.1782 134.226 78.281Z" fill="#D8C5F5"/>
<path d="M134.226 92.4441L178.641 66.8018V52.6387L134.226 78.281M134.226 92.4441V78.281M134.226 92.4441C128.854 89.3413 123.484 86.2415 118.115 83.1427C117.127 82.5727 115.323 82.8997 115.255 83.8087C115.255 68.5506 115.257 69.7876 115.252 69.7166C115.252 68.7026 117.154 68.4256 118.114 68.9796C123.483 72.0794 128.854 75.1782 134.226 78.281" stroke="#4846BF" stroke-width="0.999936" stroke-linecap="round" stroke-linejoin="round"/>
<path d="M115.256 83.8086V84.0156C115.256 83.8876 115.249 83.8446 115.256 83.8086Z" fill="#D8C5F5" stroke="#4846BF" stroke-width="0.999936" stroke-linecap="round" stroke-linejoin="round"/>
<path d="M115.256 69.8525C115.256 90.1545 115.252 81.6985 115.252 83.8565C115.252 68.2865 115.256 70.0465 115.256 69.8525Z" fill="#D8C5F5" stroke="#4846BF" stroke-width="0.999936" stroke-linecap="round" stroke-linejoin="round"/>
<path d="M115.252 69.7158C115.257 69.8114 115.257 69.9072 115.252 70.0028V69.7158ZM115.256 84.0149C115.256 85.6188 114.198 87.2197 112.082 88.4416C107.74 90.9455 100.636 90.8835 96.4353 88.2566C94.5454 87.0717 93.6045 85.5448 93.6045 84.0179V69.9228C93.6325 71.4277 94.5724 72.9276 96.4353 74.0925C100.637 76.7214 107.74 76.7824 112.082 74.2785C114.133 73.0946 115.188 71.5547 115.253 70.0038C115.253 89.6545 115.256 82.213 115.256 84.0149Z" fill="#D8C5F5" stroke="#4846BF" stroke-width="0.999936" stroke-linecap="round" stroke-linejoin="round"/>
<path d="M108.789 44.073C108.757 45.7669 109.84 47.4688 112.141 48.7397C116.224 50.9875 122.825 51.0255 126.97 48.8137C129.301 47.5708 130.47 45.8899 130.47 44.209C130.47 41.7011 127.941 39.8663 125.595 38.9813C123.676 38.2574 121.457 37.9254 119.392 37.9514C117.78 37.9714 117.066 36.9035 118.115 36.2985C123.485 33.1987 128.854 30.0959 134.227 26.9961L178.64 52.6394L134.227 78.2828C128.854 75.179 123.485 72.0802 118.115 68.9804C117.458 68.6004 116.397 68.6004 115.74 68.9804C115.413 69.1684 115.253 69.4244 115.253 69.6923V70.0043C115.22 71.5562 114.133 73.0941 112.083 74.279C107.74 76.7829 100.637 76.7219 96.4359 74.0941C92.6202 71.7062 92.6562 67.8975 96.5659 65.5316C98.7647 64.2027 101.716 63.5577 104.649 63.5947C105.124 63.6007 105.587 63.5077 105.923 63.3148L105.927 63.3107C106.57 62.9408 106.591 62.3308 105.927 61.9408C100.554 58.841 95.185 55.7392 89.8145 52.6394C95.184 49.5396 100.554 46.4368 105.927 43.337C106.58 42.9571 107.645 42.9591 108.3 43.337C108.587 43.503 108.795 43.739 108.789 44.073Z" fill="#D8C5F5" stroke="#4846BF" stroke-width="0.999936" stroke-linecap="round" stroke-linejoin="round"/>
<path d="M89.8135 66.8017V52.6396C95.1831 55.7394 100.554 58.8422 105.926 61.941C106.59 62.33 106.569 62.941 105.926 63.311L105.923 63.314C105.587 63.5079 105.124 63.6009 104.65 63.5939C101.717 63.5579 98.7639 64.2029 96.565 65.5318C94.9332 66.5188 93.9742 67.7587 93.6942 69.0416C93.6632 69.0416 93.7352 69.0666 89.8135 66.8017Z" fill="#D8C5F5" stroke="#4846BF" stroke-width="0.999936" stroke-linecap="round" stroke-linejoin="round"/>
<path d="M89.8136 52.6387V66.8008C84.441 69.9006 79.0713 73.0034 73.7017 76.1032C72.7397 76.6611 70.8389 76.3731 70.8389 75.3662C70.8439 75.2942 70.8429 76.3851 70.8429 61.2801C70.9099 62.1851 72.7187 62.51 73.7017 61.9401C79.0713 58.8403 84.441 55.7375 89.8136 52.6387Z" fill="#D8C5F5" stroke="#4846BF" stroke-width="0.999936" stroke-linecap="round" stroke-linejoin="round"/>
<path d="M61.5124 36.2975C62.5353 36.8915 64.4082 36.5015 64.3742 35.5606C64.3162 33.9137 65.3671 32.2548 67.5449 30.9989C71.0717 28.961 76.3772 28.635 80.4889 29.9539C86.7904 31.9748 87.7973 36.8805 83.0587 39.7463C80.8629 41.0762 77.9071 41.7202 74.9783 41.6832C74.5004 41.6772 74.0374 41.7702 73.7014 41.9641V41.9671C73.0445 42.3431 73.0445 42.9571 73.7014 43.3371C79.071 46.4369 84.4406 49.5397 89.8131 52.6395C84.4406 55.7393 79.071 58.8411 73.7014 61.9409C72.7175 62.5108 70.9097 62.1828 70.8417 61.2809V61.0709C70.8417 59.067 69.2538 57.5132 67.4829 56.5372C63.4033 54.2854 56.8028 54.2514 52.6541 56.4602C48.0905 58.8931 47.9965 62.9918 52.3302 65.4936C54.508 66.7515 57.3798 67.3595 60.2325 67.3255C61.8674 67.3055 62.5453 68.3754 61.5124 68.9784C56.1399 72.0782 50.7703 75.178 45.3997 78.2808L0.987305 52.6385L45.4007 26.9951C50.7703 30.0949 56.1389 33.1977 61.5124 36.2975Z" fill="#D8C5F5" stroke="#4846BF" stroke-width="0.999936" stroke-linecap="round" stroke-linejoin="round"/>
<path d="M70.8429 61.2805C70.8429 79.5445 70.8389 80.2355 70.8389 61.2305C70.8389 61.2475 70.8389 61.2655 70.8429 61.2805Z" fill="#D8C5F5" stroke="#4846BF" stroke-width="0.999936" stroke-linecap="round" stroke-linejoin="round"/>
<path d="M70.8424 61.0703V61.2803C70.8344 61.2463 70.8424 61.1903 70.8424 61.0703Z" fill="#D8C5F5" stroke="#4846BF" stroke-width="0.999936" stroke-linecap="round" stroke-linejoin="round"/>
<path d="M70.8424 61.0687C70.8424 61.0717 70.8394 60.6967 70.8394 75.0798C70.7714 73.4819 69.6515 71.897 67.4836 70.7001C65.9328 69.8431 64.0139 69.3102 62.0031 69.0972V68.2942C62.0031 68.0822 61.8851 67.8213 61.5131 67.6063C61.1731 67.4123 60.7102 67.3203 60.2332 67.3263C57.3794 67.3603 54.5077 66.7523 52.3309 65.4934C47.9912 62.9886 48.0972 58.8888 52.6538 56.46C56.8035 54.2521 63.403 54.2851 67.4826 56.537C69.7225 57.7699 70.8424 59.4178 70.8424 61.0667V61.0687ZM70.8384 75.3668L70.8394 75.0798C70.8434 75.1458 70.8434 75.3008 70.8384 75.3668ZM108.788 44.0728C108.795 43.7388 108.585 43.5018 108.299 43.3358C107.644 42.9579 106.579 42.9559 105.926 43.3358C100.553 46.4356 95.1834 49.5384 89.8138 52.6382C84.4403 49.5384 79.0717 46.4356 73.7011 43.3358C73.0442 42.9559 73.0442 42.3429 73.7011 41.9659V41.9639C74.0371 41.7689 74.5001 41.6769 74.978 41.6819C77.9078 41.7189 80.8626 41.075 83.0584 39.7451C86.9421 37.3972 87.0441 33.5725 83.1904 31.1836C78.7557 28.4338 71.7243 28.5838 67.5446 30.9986C65.3668 32.2535 64.3149 33.9134 64.3749 35.5603C64.4079 36.5173 62.525 36.8842 61.5121 36.2973C56.1395 33.1975 50.77 30.0947 45.3994 26.9949L89.8138 1.35254L134.227 26.9959C128.854 30.0957 123.485 33.1985 118.115 36.2973C117.069 36.9012 117.778 37.9712 119.391 37.9502C122.044 37.9172 124.976 38.4501 127.293 39.7831C131.6 42.2579 131.555 46.3686 126.97 48.8135C122.824 51.0253 116.224 50.9883 112.141 48.7395C109.84 47.4696 108.755 45.7677 108.788 44.0728Z" fill="#D8C5F5"/>
<path d="M70.8394 75.0798C70.8394 60.6967 70.8424 61.0717 70.8424 61.0687V61.0667C70.8424 59.4178 69.7225 57.7699 67.4826 56.537C63.403 54.2851 56.8035 54.2521 52.6538 56.46C48.0972 58.8888 47.9912 62.9886 52.3309 65.4934C54.5077 66.7523 57.3794 67.3603 60.2332 67.3263C60.7102 67.3203 61.1731 67.4123 61.5131 67.6063C61.8851 67.8213 62.0031 68.0822 62.0031 68.2942V69.0972C64.0139 69.3102 65.9328 69.8431 67.4836 70.7001C69.6515 71.897 70.7714 73.4819 70.8394 75.0798ZM70.8394 75.0798L70.8384 75.3668C70.8434 75.3008 70.8434 75.1458 70.8394 75.0798ZM108.788 44.0728C108.795 43.7388 108.585 43.5018 108.299 43.3358C107.644 42.9579 106.579 42.9559 105.926 43.3358C100.553 46.4356 95.1834 49.5384 89.8138 52.6382C84.4403 49.5384 79.0717 46.4356 73.7011 43.3358C73.0442 42.9559 73.0442 42.3429 73.7011 41.9659V41.9639C74.0371 41.7689 74.5001 41.6769 74.978 41.6819C77.9078 41.7189 80.8626 41.075 83.0584 39.7451C86.9421 37.3972 87.0441 33.5725 83.1904 31.1836C78.7557 28.4338 71.7243 28.5838 67.5446 30.9986C65.3668 32.2535 64.3149 33.9134 64.3749 35.5603C64.4079 36.5173 62.525 36.8842 61.5121 36.2973C56.1395 33.1975 50.77 30.0947 45.3994 26.9949L89.8138 1.35254L134.227 26.9959C128.854 30.0957 123.485 33.1985 118.115 36.2973C117.069 36.9012 117.778 37.9712 119.391 37.9502C122.044 37.9172 124.976 38.4501 127.293 39.7831C131.6 42.2579 131.555 46.3686 126.97 48.8135C122.824 51.0253 116.224 50.9883 112.141 48.7395C109.84 47.4696 108.755 45.7677 108.788 44.0728Z" stroke="#4846BF" stroke-width="0.999936" stroke-linecap="round" stroke-linejoin="round"/>
<path d="M62.0034 82.4547C62.0034 82.7047 61.8414 82.9507 61.5134 83.1427C56.1407 86.2425 50.7711 89.3423 45.4014 92.4451V78.282C50.7711 75.1792 56.1407 72.0794 61.5144 68.9796C61.8404 68.7886 62.0044 68.5416 62.0044 68.2946V82.4557L62.0034 82.4547ZM45.4014 78.282V92.4451L0.987305 66.8017V52.6396L45.4014 78.282Z" fill="#D8C5F5"/>
<path d="M45.4014 92.4451C50.7711 89.3423 56.1407 86.2425 61.5134 83.1427C61.8414 82.9507 62.0034 82.7047 62.0034 82.4547L62.0044 82.4557V68.2946C62.0044 68.5416 61.8404 68.7886 61.5144 68.9796C56.1407 72.0794 50.7711 75.1792 45.4014 78.282M45.4014 92.4451V78.282M45.4014 92.4451L0.987305 66.8017V52.6396L45.4014 78.282" stroke="#4846BF" stroke-width="0.999936" stroke-linecap="round" stroke-linejoin="round"/>
<path d="M131.362 116.577V130.74L86.9486 156.383V142.22L131.362 116.577ZM112.387 108.012C112.392 108.08 112.391 108.231 112.387 108.299V108.012ZM103.551 100.922V114.301C100.017 114.684 96.2168 114.045 93.567 112.389C89.7213 109.98 89.8203 106.173 93.7 103.828C95.8988 102.498 98.8506 101.854 101.783 101.891C102.258 101.897 102.72 101.804 103.057 101.61C103.088 101.579 103.551 101.357 103.551 100.922ZM86.9486 142.22V156.383L42.5361 130.74V116.577L86.9486 142.22Z" fill="#D8C5F5"/>
<path d="M86.9486 156.383L131.362 130.74V116.577L86.9486 142.22M86.9486 156.383V142.22M86.9486 156.383L42.5361 130.74V116.577L86.9486 142.22M112.387 108.012C112.392 108.08 112.391 108.231 112.387 108.299V108.012ZM103.551 100.922V114.301C100.017 114.684 96.2168 114.045 93.567 112.389C89.7213 109.98 89.8203 106.173 93.7 103.828C95.8988 102.498 98.8506 101.854 101.783 101.891C102.258 101.897 102.72 101.804 103.057 101.61C103.088 101.579 103.551 101.357 103.551 100.922Z" stroke="#4846BF" stroke-width="0.999936" stroke-linecap="round" stroke-linejoin="round"/>
<path d="M112.388 108.298C112.392 108.203 112.392 108.107 112.388 108.011C112.388 106.998 114.29 106.721 115.249 107.275L131.362 116.577L86.9486 142.22L42.5352 116.577C44.282 115.569 46.6648 114.187 58.6469 107.275C59.6708 106.686 59.0168 105.601 57.367 105.622C54.5142 105.656 51.6424 105.049 49.4656 103.79C45.1279 101.286 45.2299 97.1852 49.7886 94.7563C53.9382 92.5475 60.5377 92.5815 64.6174 94.8333C66.9182 96.1002 68.0041 97.8051 67.9731 99.499C67.9551 100.513 69.8739 100.792 70.8359 100.237C76.2044 97.1372 81.575 94.0344 86.9476 90.9346C92.3171 94.0344 97.6877 97.1372 103.06 100.237C103.387 100.425 103.55 100.674 103.55 100.921C103.55 101.356 103.087 101.578 103.056 101.609C102.72 101.804 102.258 101.896 101.782 101.89C98.8496 101.854 95.8979 102.498 93.699 103.827C89.8153 106.176 89.7243 109.982 93.566 112.389C97.7907 115.03 104.904 115.07 109.216 112.574C111.268 111.39 112.309 109.85 112.387 108.299L112.388 108.298Z" fill="#D8C5F5" stroke="#4846BF" stroke-width="0.999936" stroke-linecap="round" stroke-linejoin="round"/>
<path d="M46.2928 99.5147C46.3578 101.063 47.4148 102.605 49.4668 103.79C51.6438 105.048 54.5168 105.656 57.3688 105.622C59.0238 105.6 59.6698 106.688 58.6488 107.275C54.5588 109.634 50.4718 111.994 46.3848 114.353C46.2528 113.765 46.2928 114.779 46.2928 99.5147Z" fill="#D8C5F5" stroke="#4846BF" stroke-width="0.999936" stroke-linecap="round" stroke-linejoin="round"/>
</svg>
