<svg width="199" height="194" viewBox="0 0 199 194" fill="none" xmlns="http://www.w3.org/2000/svg">
<path d="M157.569 89.5822C157.569 89.5822 145.041 94.0961 134.443 87.9786C119.157 79.1524 99.1792 59.0453 79.2066 58.9738C59.0705 58.9013 38.9392 78.9359 23.6245 87.7787C12.904 93.9678 0.849381 88.774 0.849381 88.774C0.849381 88.774 0.827828 116.288 0.84644 119.728C0.908153 131.307 8.62232 142.899 23.9713 151.761C35.449 158.388 49.5715 162.548 64.3514 164.241V128.956C60.0922 127.888 56.266 129.149 52.7806 127.135C37.9949 118.598 37.7441 112.896 52.4378 104.413C67.1304 95.9299 91.0272 95.973 105.813 104.509C114.103 109.296 117.766 115.735 116.796 121.966L143.811 114.603V145.699C153.068 137.962 157.667 128.921 157.569 119.87C157.531 116.334 157.571 89.5831 157.571 89.5831L157.569 89.5822Z" fill="#B1C3FC" stroke="#4846BF" stroke-width="0.979592" stroke-linecap="round" stroke-linejoin="round"/>
<path d="M64.3516 133.145V164.24L72.053 141.24V110.144L64.3516 133.145ZM110.323 101.215V132.311L143.809 145.7V114.604L110.323 101.215Z" fill="#B1C3FC" stroke="#4846BF" stroke-width="0.979592" stroke-linecap="round" stroke-linejoin="round"/>
<path d="M134.444 56.8837C103.746 39.1599 54.1302 39.0708 23.6243 56.6838C-6.88167 74.2969 -6.72591 102.942 23.9711 120.666C35.4488 127.292 49.5713 131.453 64.3511 133.146L72.0526 110.146C64.934 109.331 58.1308 107.328 52.6031 104.136C37.8174 95.5991 37.7429 81.8025 52.4366 73.3193C67.1292 64.836 91.026 64.8801 105.812 73.4162C118.953 81.0032 120.462 92.7436 110.323 101.217L143.808 114.606C164.862 97.0117 161.727 72.6375 134.444 56.8856V56.8837Z" fill="#D8C5F5" stroke="#4846BF" stroke-width="0.979592" stroke-linecap="round" stroke-linejoin="round"/>
<path d="M115.336 32.2373L108.771 7.69753L103.473 10.7558C102.681 10.266 101.888 9.78994 101.093 9.33051C92.631 4.44626 84.4172 1.6172 76.6776 0.92169C72.9435 0.58569 69.3396 0.761037 65.9679 1.44087C62.6217 2.11679 59.4753 3.29524 56.6179 4.94487C53.782 6.58373 35.4502 17.1672 35.4502 17.1672C38.3076 15.5176 41.455 14.3382 44.8012 13.6632C48.1719 12.9834 51.7758 12.8081 55.5099 13.1441C63.2496 13.8396 71.4643 16.6686 79.9259 21.5539C80.7223 22.0133 81.5157 22.4884 82.3063 22.9782L75.4159 26.9563L115.336 32.2373Z" fill="#E6E4FB" stroke="#4846BF" stroke-width="0.979592" stroke-linecap="round" stroke-linejoin="round"/>
<path d="M115.601 140.981C114.333 142.041 105.1 143.948 103.466 144.891C94.267 150.203 95.2956 145.448 83.3751 144.082L70.002 150.294V181.391C94.7509 184.225 121.343 180.139 140.442 169.112C143.835 167.153 146.826 165.051 149.46 162.85V131.754L115.601 140.983V140.981Z" fill="#F4F4FB" stroke="#4846BF" stroke-width="0.979592" stroke-linecap="round" stroke-linejoin="round"/>
<path d="M115.973 118.363C114.615 119.492 113.162 120.501 111.63 121.379C102.431 126.691 89.6229 128.657 77.7034 127.292L70.002 150.292C94.7509 153.127 121.343 149.041 140.442 138.013C143.835 136.055 146.826 133.953 149.46 131.751L115.973 118.363Z" fill="#F4F4FB" stroke="#4846BF" stroke-width="0.979592" stroke-linecap="round" stroke-linejoin="round"/>
<path d="M192.651 110.435C191.539 106.784 190.275 103.182 188.861 99.6371L194.268 96.5151L169.989 79L160.702 115.892L167.695 111.856C169.108 115.401 170.372 119.004 171.485 122.655C174.728 133.326 176.372 143.626 176.372 153.269C176.372 162.912 174.731 171.31 171.494 178.264C169.93 181.62 167.995 184.614 165.739 187.163C163.706 189.471 161.339 191.462 158.717 193.07L179.261 181.22C182.131 179.554 184.713 177.434 186.907 174.942C189.163 172.393 191.098 169.4 192.661 166.044C195.898 159.09 197.54 150.681 197.54 141.048C197.54 131.416 195.895 121.106 192.653 110.434L192.651 110.435Z" fill="#E6E4FB" stroke="#4846BF" stroke-width="0.979592" stroke-linecap="round" stroke-linejoin="round"/>
</svg>
