<svg width="185" height="167" viewBox="0 0 185 167" fill="none" xmlns="http://www.w3.org/2000/svg">
<path d="M59.1924 3.62902L63.9263 1.26202C64.7327 0.858746 65.6256 0.659358 66.527 0.681325C67.4283 0.703291 68.3105 0.945944 69.0962 1.38802L174.815 60.855C177.657 62.4539 180.023 64.7803 181.67 67.5956C183.316 70.4109 184.184 73.6136 184.184 76.875V148.326C184.184 149.317 183.917 150.289 183.411 151.141C182.906 151.992 182.18 152.692 181.31 153.167L174.075 157.113L59.1924 3.62902Z" fill="#B1C3FC" stroke="#4846BF"/>
<path d="M169.859 66.092L61.9103 4.039C59.4603 2.629 56.4023 4.399 56.4023 7.226V84.27C56.4022 86.856 57.0841 89.3962 58.379 91.6346C59.674 93.8729 61.5364 95.7301 63.7782 97.019L168.051 156.96C171.726 159.073 176.312 156.419 176.312 152.179V77.247C176.312 72.642 173.851 68.387 169.859 66.092Z" fill="#D8C5F5" stroke="#4846BF"/>
<path d="M51.1045 1.22144L51.2335 1.14844C51.2335 1.14844 51.1595 1.20344 51.1235 1.22144H51.1045Z" fill="#E6E4FB"/>
<path d="M73.4933 24.8969V43.5169C73.5113 43.5169 73.8423 43.7189 73.8423 43.7189V23.3529L73.5113 23.1689V24.8969H73.4933ZM80.6612 47.6889L80.9922 47.8719V27.5059L80.6612 27.3219V47.6879V47.6889ZM87.8491 51.8249L88.18 52.0269V31.6599L87.8491 31.4769V51.8249ZM95.0359 55.9789L95.3669 56.1629V35.7969L95.0359 35.6129V55.9789ZM102.223 60.1329L102.554 60.3159V39.9509L102.223 39.7669V60.1329ZM109.41 64.2689L109.723 64.4709V44.1049L109.41 43.9209V64.2689ZM116.597 68.4239L116.91 68.6069V48.2409L116.597 48.0569V68.4239ZM123.765 52.2099V72.5579C123.784 72.5579 124.115 72.7599 124.115 72.7599V52.4119L123.784 52.2279L123.765 52.2099ZM130.952 76.7129L131.283 76.9159V56.5489L130.952 56.3649V76.7129ZM138.139 80.8679L138.451 81.0509V60.6849L138.139 60.5009V80.8679ZM145.326 85.0209L145.639 85.2049V64.8389L145.326 64.6549V85.0209ZM152.495 89.1579L152.826 89.3419V68.9929L152.495 68.8099V89.1579ZM159.682 93.3119L160.013 93.4959V73.1289L159.682 72.9449V93.3119ZM73.4933 49.3069V67.9269C73.5113 67.9269 73.8423 68.1299 73.8423 68.1299V47.7619L73.5113 47.5779V49.3059L73.4933 49.3069ZM80.6612 72.0819L80.9922 72.2659V51.8989L80.6612 51.7149V72.0819ZM87.8491 76.2359L88.18 76.4189V56.0529L87.8491 55.8689V76.2359ZM95.0359 80.3709L95.3669 80.5549V60.2069L95.0359 60.0049V80.3709ZM102.223 84.5259L102.554 84.7099V64.3439L102.223 64.1599V84.5259ZM109.41 88.6609L109.723 88.8629V68.4969L109.41 68.3129V88.6609ZM116.597 92.8149L116.91 92.9989V72.6509L116.597 72.4489V92.8149ZM123.765 76.6029V96.9519C123.783 96.9519 124.114 97.1539 124.114 97.1539V76.8059L123.783 76.6219L123.765 76.6029ZM130.952 101.124L131.283 101.308V80.9409L130.952 80.7569V101.124ZM138.139 105.26L138.451 105.443V85.0949L138.139 84.8929V105.26ZM145.326 109.414L145.639 109.598V89.2319L145.326 89.0479V109.414ZM152.495 113.55L152.826 113.752V93.3849L152.495 93.2019V113.55ZM159.682 117.703L160.013 117.887V97.5389L159.682 97.3369V117.703ZM73.2173 72.7989V91.4189C73.2353 91.4189 73.5663 91.6209 73.5663 91.6209V71.2539L73.2353 71.0699V72.7979L73.2173 72.7989ZM80.4042 95.5719L80.7352 95.7739V75.4069L80.4042 75.2239V95.5719ZM87.5911 99.7259L87.9041 99.9099V79.5439L87.5911 79.3599V99.7259ZM94.7779 103.881L95.0909 104.065V83.6979L94.7779 83.5139V103.881ZM101.947 108.017L102.277 108.2V87.8519L101.947 87.6679V108.017ZM109.134 112.171L109.465 112.355V91.9879L109.134 91.8039V112.171ZM116.322 116.325L116.652 116.509V96.1419L116.322 95.9589V116.325ZM123.508 100.112V120.461C123.526 120.461 123.857 120.663 123.857 120.663V100.315L123.526 100.131L123.508 100.112ZM130.676 124.615L131.007 124.798V104.432L130.676 104.248V124.615ZM137.863 128.769L138.194 128.953V108.587L137.863 108.403V128.769ZM145.051 132.905L145.381 133.089V112.74L145.051 112.557V132.905ZM152.238 137.059L152.568 137.243V116.876L152.238 116.692V137.059ZM159.425 141.214L159.737 141.398V121.031L159.425 120.848V141.214Z" fill="#4846BF"/>
<path d="M160.013 76.1437L156.282 76.7687L154.425 77.0817L153.488 77.2467C153.267 77.2837 152.697 77.4307 152.183 77.1917C151.951 77.0908 151.743 76.9403 151.576 76.7507L151.263 76.4007L150.639 75.7027L149.389 74.2877L146.889 71.4567L145.639 70.0407L145.345 69.7107C145.345 69.7107 145.253 69.6367 145.198 69.6187C145.087 69.5637 144.995 69.6187 144.609 69.7097L140.952 70.6847L139.095 71.1807C138.852 71.232 138.601 71.2253 138.362 71.1614C138.122 71.0975 137.901 70.978 137.716 70.8127L137.036 70.0777L134.5 67.2657L131.963 64.4527L131.338 63.7547C131.173 63.5527 131.081 63.5347 130.897 63.5157C130.676 63.4427 130.143 64.0487 129.647 64.3977L126.724 66.8057L125.272 68.0007L124.886 68.3137C124.705 68.4569 124.489 68.5515 124.261 68.5887C124.036 68.627 123.804 68.6103 123.587 68.54C123.369 68.4696 123.172 68.3477 123.011 68.1847C121.504 65.9607 120.236 63.9197 118.839 61.7697L116.817 58.6447C116.504 58.3147 116.155 58.4427 115.53 58.7737L113.821 59.5817C112.644 60.1147 111.596 60.6477 110.347 61.1817C109.942 61.2917 109.483 61.1817 109.17 60.9237C108.821 60.6117 108.747 60.2617 108.6 60.0047L107.773 58.2947L104.502 51.4757L102.866 48.0757C102.554 47.5057 102.425 46.8257 101.91 46.7887C101.414 46.7887 100.697 46.8807 100.091 46.9177L96.3226 47.2667C96.0276 47.2667 95.6787 47.3767 95.2927 47.2477C94.9437 47.1377 94.6677 46.7517 94.5577 46.4947L93.6757 44.8217L90.1457 38.1317L89.2638 36.4587C88.9328 35.9437 88.7678 35.2087 88.2898 34.9507C88.1644 34.8873 88.0258 34.8542 87.8853 34.8542C87.7447 34.8542 87.6062 34.8873 87.4808 34.9507C87.2418 35.0797 87.0768 35.3737 86.8558 35.6127L85.6428 37.0647C84.0068 38.9947 82.4809 40.9797 80.7719 42.8547C80.1469 43.1857 79.5039 42.7817 78.8969 42.7447L77.04 42.3767L73.327 41.6417L77.04 42.3407L78.8969 42.6897C79.5039 42.7267 80.1649 43.0937 80.7169 42.7997C82.3709 40.9617 83.8968 38.9217 85.4958 36.9727L86.6908 35.5027C86.8928 35.2827 87.0398 34.9877 87.3708 34.7857C87.5253 34.703 87.6968 34.6566 87.872 34.6502C88.0472 34.6438 88.2216 34.6775 88.3818 34.7487C89.0248 35.1347 89.1168 35.8337 89.4848 36.3287L90.3847 37.9837L93.9877 44.6197C94.6867 45.5757 94.9067 47.3587 96.2666 46.8437L100.036 46.4577C100.697 46.4207 101.23 46.2927 101.984 46.3107C102.37 46.3657 102.719 46.6607 102.866 46.9907L103.289 47.8367L104.962 51.2187L108.306 57.9827L109.152 59.6737C109.409 60.3357 109.685 60.5937 110.144 60.4837L113.49 58.8837L115.199 58.0567C115.512 57.9277 115.695 57.7437 116.173 57.6517C116.389 57.6269 116.607 57.6522 116.811 57.7256C117.015 57.7989 117.2 57.9184 117.35 58.0747L119.482 61.2727L123.599 67.5047C123.66 67.567 123.736 67.613 123.82 67.6387C123.903 67.6643 123.992 67.6688 124.077 67.6517C124.224 67.6517 124.372 67.4857 124.647 67.2467L126.081 66.0337L128.967 63.5887L129.684 62.9827C129.849 62.8177 130.345 62.4307 130.823 62.4497C131.283 62.4127 131.798 62.7257 132.018 63.0007L132.662 63.6997L135.235 66.4747L137.808 69.2507L138.415 69.9127C138.466 69.9597 138.528 69.9928 138.596 70.0089C138.664 70.0251 138.734 70.0236 138.801 70.0047L140.602 69.5077L144.242 68.4977C144.462 68.4417 144.995 68.2397 145.51 68.4237C145.749 68.4967 145.97 68.6437 146.153 68.8277L146.484 69.1957L147.753 70.5927L150.289 73.3867L151.558 74.7837L152.201 75.4817L152.513 75.8317C152.513 75.8317 152.605 75.9047 152.66 75.9417C152.66 76.0337 153.616 75.7947 154.149 75.7217L156.006 75.3897L159.719 74.7097C159.81 74.6927 159.905 74.6939 159.996 74.7134C160.087 74.7328 160.174 74.7701 160.25 74.823C160.327 74.876 160.393 74.9436 160.444 75.0219C160.494 75.1003 160.529 75.1879 160.546 75.2797C160.563 75.3714 160.561 75.4656 160.542 75.5568C160.522 75.648 160.485 75.7345 160.432 75.8113C160.379 75.8881 160.311 75.9537 160.233 76.0044C160.155 76.0551 160.067 76.0899 159.976 76.1067L160.013 76.1437ZM159.977 99.7087L151.503 101.418L147.275 102.282C146.889 102.356 146.65 102.429 146.135 102.503C145.529 102.613 144.83 102.025 144.702 101.731L143.415 99.9847L138.305 93.0177C138.048 92.6497 137.974 92.7607 137.184 93.2387L135.327 94.3417L133.471 95.4437L132.551 95.9957L132.037 96.2897C131.779 96.4187 131.467 96.4547 131.191 96.3997C130.621 96.3627 130.125 95.6827 130.052 95.3887L129.61 94.3967L128.747 92.4107L127 88.4587L125.254 84.5067L124.39 82.5217L123.949 81.5297C123.875 81.3457 123.71 81.2357 123.526 81.2537C123.251 81.1797 122.754 82.0257 122.295 82.5037L120.916 84.1577L118.159 87.4847L117.479 88.3117C117.316 88.5143 117.095 88.6629 116.846 88.7384C116.597 88.8138 116.331 88.8125 116.082 88.7347C115.53 88.5147 115.383 88.1647 115.108 87.9447L114.354 87.1727L111.321 84.1027L109.795 82.5587C109.667 82.4297 109.556 82.3197 109.409 82.1547C109.244 81.9337 109.17 81.7687 109.097 81.6217L108.619 80.6467L106.726 76.7497L102.958 68.9747C102.775 68.2397 102.131 68.0747 101.745 68.4787L100.385 70.1517L97.6456 73.4967L96.2676 75.1697C95.9736 75.4997 95.4587 75.6097 95.0357 75.4267C94.5767 75.2427 94.4477 74.8017 94.2637 74.5267L92.1127 70.7767L89.9627 67.0267L88.8778 65.1517C88.6388 64.4347 87.9038 64.1587 87.3888 64.7107L84.0068 67.3937L82.3159 68.7357C82.0589 68.9377 81.7279 69.2687 81.3049 69.2137C80.9009 69.2137 80.5519 68.8837 80.4409 68.5157L73.511 52.6707L80.5879 68.4417C80.8269 69.1767 81.7279 69.1767 82.1869 68.5707L83.8598 67.2107L87.2058 64.4907C87.4448 64.2327 87.9218 64.0117 88.3078 64.1777C88.7498 64.2877 88.9328 64.7287 89.0988 65.0047L90.2017 66.8607L92.3887 70.5927L94.5767 74.3237C94.7787 74.6547 94.9067 74.9677 95.1647 75.0407C95.4217 75.1507 95.7346 75.0777 95.9176 74.8757L97.2596 73.2027L99.9616 69.8387L101.323 68.1477C101.472 67.9664 101.675 67.8355 101.901 67.7729C102.128 67.7103 102.369 67.7189 102.591 67.7977C103.069 67.9457 103.271 68.4597 103.4 68.7357L107.259 76.4747L109.189 80.3347L109.667 81.3087C109.74 81.4747 109.832 81.6397 109.887 81.6947C109.979 81.8047 110.126 81.9337 110.255 82.0627L111.799 83.5877L114.869 86.6207L115.641 87.3747C115.898 87.6137 116.155 87.9447 116.321 87.9627C116.523 88.0177 116.725 87.9627 116.872 87.7787L117.552 86.9337L120.273 83.5877L121.633 81.9157L122.313 81.0697C122.46 80.8497 122.92 80.2977 123.489 80.3157C124.023 80.2607 124.592 80.6287 124.776 81.1057L125.217 82.0997L126.1 84.0657L127.883 87.9997L129.666 91.9337L130.566 93.8997L131.007 94.8927C131.154 95.2607 131.191 95.2237 131.357 95.2967C131.485 95.3337 131.596 95.2417 131.982 95.0217L132.901 94.4517L134.739 93.3117L136.577 92.1907C136.945 92.0067 137.037 91.8047 137.717 91.6027C138.286 91.4557 138.985 91.8417 139.206 92.2457L144.389 99.1567L145.694 100.885C145.915 101.198 145.896 101.106 146.025 101.143L146.999 100.94L151.227 100.04L159.682 98.2377C159.867 98.2019 160.058 98.2394 160.216 98.3425C160.374 98.4455 160.486 98.6059 160.528 98.7897C160.563 98.9745 160.526 99.1661 160.423 99.3238C160.32 99.4815 160.16 99.593 159.977 99.6347V99.7087ZM159.737 127.041L156.061 128.089L154.223 128.604L153.304 128.861C152.973 128.898 152.844 129.137 152.036 129.045C151.878 129.004 151.728 128.935 151.594 128.843L151.392 128.714L151.006 128.438L150.234 127.887L148.672 126.784L145.547 124.578L145.069 124.229L144.867 124.321L144.426 124.505L142.661 125.221L139.114 126.655L138.636 126.839C138.339 126.931 138.018 126.912 137.735 126.784C137.478 126.674 137.22 126.343 137.165 126.196L136.944 125.773L136.081 124.063L134.353 120.663L130.879 113.862C130.75 113.623 130.548 113.182 130.493 113.108L129.849 112.446L128.526 111.086L125.861 108.347L124.519 106.987C124.096 106.601 123.526 105.847 123.434 106.013C123.397 105.976 123.122 106.27 122.901 106.472L122.203 107.134L120.824 108.439L118.048 111.068C117.791 111.307 117.644 111.472 117.313 111.748C116.89 112.06 116.247 111.95 115.953 111.527C115.585 110.81 115.438 110.314 115.163 109.689L109.372 95.5537C109.17 94.9287 108.895 94.9287 108.325 95.4437L106.799 96.5827L103.73 98.8627L102.958 99.4317C102.738 99.5787 102.425 99.9287 101.947 99.8547C101.469 99.7447 101.322 99.3767 101.12 99.1747L100.495 98.4577L98.0136 95.5537L95.5317 92.6497C95.3117 92.4287 95.1277 92.0977 94.9257 92.0427C94.7047 91.9507 94.4287 92.1347 94.1347 92.2637L92.3887 93.0167L88.8968 94.5427C88.6018 94.6347 88.3448 94.8917 87.9408 94.8187C87.5548 94.7267 87.4078 94.3767 87.1688 94.1747L85.8818 92.7597L80.7349 87.1167C80.5509 86.8407 80.2209 86.8227 79.9079 86.8957L78.9709 87.0247L77.077 87.3007L73.291 87.8337L77.059 87.2447L78.9519 86.9507L79.8899 86.8037C80.1839 86.7117 80.6069 86.7487 80.7899 87.0427L86.0108 92.6127L87.3158 94.0097C87.5548 94.2297 87.7198 94.5427 87.9778 94.5797C88.2348 94.6347 88.5108 94.4137 88.8048 94.3037L92.2787 92.7417L94.0247 91.9507C94.3007 91.8587 94.6127 91.5827 95.0357 91.7117C95.4397 91.8777 95.5507 92.1897 95.7897 92.4107L98.3076 95.2777L100.826 98.1457L101.451 98.8627C101.69 99.1007 101.855 99.3957 102.039 99.3957C102.241 99.4507 102.425 99.2487 102.719 99.0457L103.473 98.4577L106.505 96.1417L108.031 94.9837L108.417 94.6897C108.582 94.5607 108.821 94.4687 109.042 94.5057C109.519 94.5057 109.832 95.0757 109.887 95.2967L115.843 109.358L116.56 111.031C116.633 111.141 116.817 111.16 116.909 111.086L117.552 110.461L120.291 107.796L121.67 106.472L122.35 105.811C122.607 105.627 122.681 105.314 123.287 105.112C123.857 104.947 124.353 105.48 124.482 105.645L125.162 106.325L126.504 107.686L129.206 110.388L130.548 111.748L131.246 112.446C131.559 112.888 131.596 113.053 131.779 113.365L135.327 120.13L137.11 123.512L137.992 125.203L138.213 125.626C138.286 125.773 138.25 125.681 138.268 125.718C138.305 125.718 138.709 125.552 138.709 125.552L142.238 124.082L144.003 123.347L144.444 123.163L144.683 123.071C144.83 123.014 144.985 122.983 145.143 122.979C145.418 122.942 145.841 123.199 145.915 123.255L146.301 123.53L152.385 127.74L159.37 125.663C159.55 125.612 159.743 125.633 159.907 125.722C160.072 125.811 160.195 125.961 160.252 126.14C160.302 126.32 160.281 126.513 160.192 126.678C160.102 126.843 159.952 126.967 159.774 127.023L159.737 127.041Z" fill="#4846BF"/>
<path d="M3.41943 11.629L8.15435 9.26202C8.96072 8.85875 9.85368 8.65936 10.755 8.68132C11.6563 8.70329 12.5385 8.94594 13.3243 9.38802L119.042 68.855C121.884 70.454 124.25 72.7806 125.897 75.596C127.544 78.4115 128.411 81.6144 128.411 84.876V156.326C128.411 157.317 128.144 158.289 127.638 159.141C127.133 159.992 126.407 160.692 125.537 161.167L118.302 165.113L3.41943 11.629Z" fill="#D8C5F5" stroke="#4846BF"/>
<path d="M114.086 74.092L6.13731 12.039C3.68734 10.629 0.629395 12.399 0.629395 15.226V92.27C0.629296 94.856 1.31112 97.3962 2.6061 99.6346C3.90109 101.873 5.76342 103.73 8.00528 105.019L112.278 164.96C115.954 167.073 120.539 164.419 120.539 160.179V85.247C120.539 80.642 118.078 76.387 114.086 74.092Z" fill="#D8C5F5" stroke="#4846BF"/>
<path d="M50.6325 52.8389L20.285 35.4289C18.952 34.6629 17.29 35.6259 17.29 37.1629V58.2429C17.29 59.1229 17.5223 59.9873 17.9634 60.7488C18.4044 61.5104 19.0387 62.142 19.802 62.5799L50.1485 79.9889C51.4825 80.7539 53.1445 79.7919 53.1445 78.2549V57.1749C53.1445 56.2949 52.9122 55.4304 52.4711 54.6689C52.0301 53.9074 51.3958 53.2768 50.6325 52.8389ZM91.4659 76.8389L61.1193 59.4289C59.7854 58.6639 58.1234 59.6259 58.1234 61.1629V112.243C58.1234 113.123 58.3557 113.987 58.7967 114.749C59.2378 115.51 59.872 116.142 60.6353 116.58L90.9829 133.991C92.3158 134.756 93.9778 133.794 93.9778 132.257V81.1769C93.9778 80.2969 93.7455 79.4324 93.3045 78.6709C92.8634 77.9094 92.2292 77.2768 91.4659 76.8389ZM50.6325 84.8389L20.285 67.4279C18.952 66.6629 17.29 67.6249 17.29 69.1619V90.2419C17.29 91.1219 17.5223 91.9863 17.9634 92.7478C18.4044 93.5094 19.0387 94.141 19.802 94.5789L50.1485 111.99C51.4825 112.755 53.1445 111.793 53.1445 110.256V89.1759C53.1444 88.2959 52.912 87.4315 52.471 86.67C52.0299 85.9085 51.3958 85.2769 50.6325 84.8389Z" fill="#D8C5F5" stroke="#4846BF"/>
</svg>
