<svg width="356" height="347" viewBox="0 0 356 347" fill="none" xmlns="http://www.w3.org/2000/svg">
<ellipse cx="149.941" cy="189.037" rx="141.172" ry="138.973" fill="url(#paint0_radial_0_1)"/>
<ellipse cx="210.443" cy="185.585" rx="145.557" ry="142.425" fill="url(#paint1_radial_0_1)"/>
<path d="M183.124 226.962V156.949C183.276 152.872 184.836 149.019 187.477 146.195C190.117 143.371 193.635 141.794 197.294 141.794C200.953 141.794 204.471 143.371 207.112 146.195C209.752 149.019 211.312 152.872 211.465 156.949V196.542C211.465 213.354 198.768 226.962 183.124 226.962Z" fill="white"/>
<path d="M197.454 170.502C205.368 170.502 211.784 164.066 211.784 156.127C211.784 148.188 205.368 141.752 197.454 141.752C189.539 141.752 183.124 148.188 183.124 156.127C183.124 164.066 189.539 170.502 197.454 170.502Z" fill="#0D0129"/>
<path d="M141.178 149.103L123.066 216.734C121.904 220.697 119.445 224.026 116.178 226.056C112.912 228.086 109.08 228.669 105.445 227.687C103.699 227.254 102.051 226.426 100.604 225.254C99.157 224.082 97.9409 222.591 97.0315 220.874C96.122 219.156 95.5386 217.249 95.3172 215.27C95.0959 213.291 95.2414 211.283 95.7447 209.369L105.961 171.131C110.234 154.908 126.013 145.037 141.178 149.103Z" fill="#0D0129"/>
<path d="M127.671 149.199L145.734 216.83C146.893 220.792 149.35 224.12 152.614 226.151C155.879 228.181 159.71 228.764 163.342 227.783C165.106 227.368 166.773 226.551 168.239 225.383C169.706 224.214 170.939 222.72 171.862 220.994C172.785 219.268 173.377 217.348 173.602 215.354C173.826 213.361 173.677 211.337 173.165 209.41L162.888 171.227C158.553 155.004 142.787 145.133 127.671 149.199Z" fill="white"/>
<defs>
<radialGradient id="paint0_radial_0_1" cx="0" cy="0" r="1" gradientUnits="userSpaceOnUse" gradientTransform="translate(149.941 189.037) rotate(90) scale(138.973 141.172)">
<stop offset="0.15" stop-color="#E78A8D"/>
<stop offset="1" stop-color="#A5B9FF"/>
</radialGradient>
<radialGradient id="paint1_radial_0_1" cx="0" cy="0" r="1" gradientUnits="userSpaceOnUse" gradientTransform="translate(210.443 185.585) rotate(90) scale(142.425 145.557)">
<stop stop-color="#A5B9FF"/>
<stop offset="0.26" stop-color="#A9BFDD" stop-opacity="0.54"/>
<stop offset="1" stop-color="#93D9E2" stop-opacity="0"/>
</radialGradient>
</defs>
</svg>
