<svg width="240" height="263" viewBox="0 0 240 263" fill="none" xmlns="http://www.w3.org/2000/svg">
<g clip-path="url(#clip0_918_14657)">
<g clip-path="url(#clip1_918_14657)">
<g clip-path="url(#clip2_918_14657)">
<path d="M140.128 150.615V107.875C140.231 105.387 141.293 103.035 143.09 101.311C144.887 99.5867 147.282 98.624 149.772 98.624C152.263 98.624 154.657 99.5867 156.455 101.311C158.252 103.035 159.313 105.387 159.417 107.875V132.045C159.417 142.308 150.775 150.615 140.128 150.615Z" fill="#7A868D"/>
<path d="M149.881 116.149C155.268 116.149 159.634 112.22 159.634 107.374C159.634 102.527 155.268 98.5986 149.881 98.5986C144.494 98.5986 140.128 102.527 140.128 107.374C140.128 112.22 144.494 116.149 149.881 116.149Z" fill="#001926"/>
<path d="M111.579 103.087L99.2515 144.373C98.4606 146.792 96.7866 148.824 94.5636 150.063C92.3406 151.302 89.7321 151.658 87.2585 151.059C86.0701 150.794 84.9486 150.289 83.9636 149.573C82.9786 148.858 82.1509 147.948 81.532 146.899C80.913 145.851 80.5159 144.687 80.3652 143.479C80.2146 142.271 80.3136 141.044 80.6562 139.876L87.6095 116.534C90.5179 106.63 101.257 100.605 111.579 103.087Z" fill="#7A868D"/>
<path d="M102.386 103.145L114.68 144.431C115.469 146.85 117.141 148.881 119.363 150.121C121.584 151.36 124.192 151.716 126.664 151.117C127.864 150.864 128.999 150.365 129.997 149.652C130.995 148.939 131.835 148.027 132.462 146.973C133.091 145.919 133.494 144.747 133.647 143.53C133.799 142.313 133.698 141.078 133.35 139.901L126.355 116.592C123.405 106.689 112.674 100.663 102.386 103.145Z" fill="#001926"/>
</g>
</g>
</g>
<mask id="mask0_918_14657" style="mask-type:alpha" maskUnits="userSpaceOnUse" x="0" y="5" width="240" height="240">
<g clip-path="url(#clip3_918_14657)">
<g clip-path="url(#clip4_918_14657)">
<path fill-rule="evenodd" clip-rule="evenodd" d="M119.955 5C186.197 5 239.91 58.7132 239.91 124.955C239.91 136.018 230.98 144.948 219.918 144.948C208.855 144.948 199.925 136.018 199.925 124.955C199.925 80.8382 164.072 44.985 119.955 44.985C75.8382 44.985 39.985 80.8382 39.985 124.955C39.985 168.672 75.0385 204.259 118.622 204.925H119.955C131.018 204.925 139.948 213.855 139.948 224.918C139.948 235.98 131.018 244.91 119.955 244.91H117.956C52.6469 243.844 0 190.53 0 124.955C0 58.7132 53.7132 5 119.955 5Z" fill="#001926"/>
</g>
</g>
</mask>
<g mask="url(#mask0_918_14657)">
<rect y="5" width="239.92" height="239.91" fill="url(#paint0_linear_918_14657)"/>
</g>
<defs>
<linearGradient id="paint0_linear_918_14657" x1="119.96" y1="5" x2="119.96" y2="244.91" gradientUnits="userSpaceOnUse">
<stop offset="0.11" stop-color="#7E9AFF"/>
<stop offset="0.74" stop-color="#A4B8FF"/>
</linearGradient>
<clipPath id="clip0_918_14657">
<rect width="95.97" height="53.72" fill="white" transform="translate(71.9805 98.1396)"/>
</clipPath>
<clipPath id="clip1_918_14657">
<rect width="95.97" height="53.72" fill="white" transform="translate(71.9805 98.1396)"/>
</clipPath>
<clipPath id="clip2_918_14657">
<rect width="95.9664" height="53.72" fill="white" transform="translate(71.9824 98.1396)"/>
</clipPath>
<clipPath id="clip3_918_14657">
<rect width="239.92" height="239.91" fill="white" transform="translate(0 5)"/>
</clipPath>
<clipPath id="clip4_918_14657">
<rect width="239.91" height="239.91" fill="white" transform="translate(0 5)"/>
</clipPath>
</defs>
</svg>
