<svg width="240" height="251" viewBox="0 0 240 251" fill="none" xmlns="http://www.w3.org/2000/svg">
<g clip-path="url(#clip0_645_9529)">
<g clip-path="url(#clip1_645_9529)">
<path d="M140.127 151.115V108.375C140.231 105.887 141.292 103.535 143.09 101.811C144.887 100.087 147.281 99.124 149.772 99.124C152.262 99.124 154.657 100.087 156.454 101.811C158.251 103.535 159.312 105.887 159.417 108.375V132.545C159.417 142.808 150.775 151.115 140.127 151.115Z" fill="#7A868D"/>
<path d="M149.881 116.649C155.267 116.649 159.634 112.72 159.634 107.874C159.634 103.027 155.267 99.0986 149.881 99.0986C144.494 99.0986 140.127 103.027 140.127 107.874C140.127 112.72 144.494 116.649 149.881 116.649Z" fill="#001926"/>
<path d="M111.578 103.587L99.251 144.873C98.4601 147.292 96.7861 149.324 94.5632 150.563C92.3402 151.802 89.7316 152.158 87.2581 151.559C86.0696 151.294 84.9482 150.789 83.9631 150.073C82.9781 149.358 82.1504 148.448 81.5315 147.399C80.9125 146.351 80.5154 145.187 80.3647 143.979C80.2141 142.771 80.3131 141.544 80.6557 140.376L87.609 117.034C90.5174 107.13 101.257 101.105 111.578 103.587Z" fill="#7A868D"/>
<path d="M102.385 103.645L114.679 144.931C115.468 147.35 117.14 149.381 119.362 150.621C121.584 151.86 124.191 152.216 126.664 151.617C127.864 151.364 128.999 150.865 129.997 150.152C130.995 149.439 131.834 148.527 132.462 147.473C133.09 146.419 133.493 145.247 133.646 144.03C133.799 142.813 133.698 141.578 133.349 140.401L126.354 117.092C123.404 107.189 112.673 101.163 102.385 103.645Z" fill="#001926"/>
</g>
</g>
<mask id="mask0_645_9529" style="mask-type:alpha" maskUnits="userSpaceOnUse" x="0" y="0" width="240" height="241">
<g clip-path="url(#clip2_645_9529)">
<g clip-path="url(#clip3_645_9529)">
<path fill-rule="evenodd" clip-rule="evenodd" d="M119.955 0.5C186.197 0.5 239.91 54.2132 239.91 120.455C239.91 131.518 230.98 140.448 219.918 140.448C208.855 140.448 199.925 131.518 199.925 120.455C199.925 76.3382 164.072 40.485 119.955 40.485C75.8382 40.485 39.985 76.3382 39.985 120.455C39.985 164.172 75.0385 199.759 118.622 200.425H119.955C131.018 200.425 139.948 209.355 139.948 220.418C139.948 231.48 131.018 240.41 119.955 240.41H117.956C52.6469 239.344 0 186.03 0 120.455C0 54.2132 53.7132 0.5 119.955 0.5Z" fill="#001926"/>
</g>
</g>
</mask>
<g mask="url(#mask0_645_9529)">
<rect y="0.5" width="239.92" height="239.91" fill="#94A0D5"/>
</g>
<defs>
<clipPath id="clip0_645_9529">
<rect width="95.97" height="53.72" fill="white" transform="translate(71.98 98.6396)"/>
</clipPath>
<clipPath id="clip1_645_9529">
<rect width="95.97" height="53.72" fill="white" transform="translate(71.98 98.6396)"/>
</clipPath>
<clipPath id="clip2_645_9529">
<rect width="239.92" height="239.91" fill="white" transform="translate(0 0.5)"/>
</clipPath>
<clipPath id="clip3_645_9529">
<rect width="239.91" height="239.91" fill="white" transform="translate(0 0.5)"/>
</clipPath>
</defs>
</svg>
