<svg width="79" height="43" viewBox="0 0 79 43" fill="none" xmlns="http://www.w3.org/2000/svg">
<mask id="path-1-inside-1_0_1" fill="white">
<path d="M40.7246 21.5479L20.3596 42.942L-0.000403019 21.5531L20.3646 0.158933L40.7246 21.5479Z"/>
</mask>
<path d="M-0.000403019 21.5531L-3.44775 17.9315L-6.89511 21.5531L-3.44776 25.1747L-0.000403019 21.5531ZM23.807 39.3205L3.44695 17.9315L-3.44776 25.1747L16.9122 46.5636L23.807 39.3205ZM3.44695 25.1747L23.812 3.7805L16.9173 -3.46263L-3.44775 17.9315L3.44695 25.1747Z" fill="url(#paint0_linear_0_1)" mask="url(#path-1-inside-1_0_1)"/>
<mask id="path-3-inside-2_0_1" fill="white">
<path d="M59.5254 21.5479L39.1604 42.942L18.8004 21.5531L39.1654 0.158933L59.5254 21.5479Z"/>
</mask>
<path d="M18.8004 21.5531L15.353 17.9315L11.9057 21.5531L15.353 25.1747L18.8004 21.5531ZM42.6077 39.3205L22.2477 17.9315L15.353 25.1747L35.713 46.5636L42.6077 39.3205ZM22.2477 25.1747L42.6127 3.7805L35.718 -3.46263L15.353 17.9315L22.2477 25.1747Z" fill="url(#paint1_linear_0_1)" mask="url(#path-3-inside-2_0_1)"/>
<mask id="path-5-inside-3_0_1" fill="white">
<path d="M78.3262 21.5479L57.9612 42.942L37.6012 21.5531L57.9662 0.158933L78.3262 21.5479Z"/>
</mask>
<path d="M37.6012 21.5531L34.1538 17.9315L30.7065 21.5531L34.1538 25.1747L37.6012 21.5531ZM61.4085 39.3205L41.0485 17.9315L34.1538 25.1747L54.5138 46.5636L61.4085 39.3205ZM41.0485 25.1747L61.4135 3.7805L54.5188 -3.46263L34.1538 17.9315L41.0485 25.1747Z" fill="#EB8785" mask="url(#path-5-inside-3_0_1)"/>
<defs>
<linearGradient id="paint0_linear_0_1" x1="-0.000403019" y1="21.5531" x2="0.00349981" y2="51.8053" gradientUnits="userSpaceOnUse">
<stop/>
</linearGradient>
<linearGradient id="paint1_linear_0_1" x1="18.8004" y1="21.5531" x2="18.8043" y2="51.8053" gradientUnits="userSpaceOnUse">
<stop stop-color="#CFDAFF"/>
</linearGradient>
</defs>
</svg>
