<svg width="827" height="99" viewBox="0 0 827 99" fill="none" xmlns="http://www.w3.org/2000/svg">
<path d="M801.447 29.8641C805.903 29.8908 809.532 27.2022 809.552 23.859C809.572 20.5158 805.976 17.7839 801.519 17.7573C797.063 17.7306 793.434 20.4192 793.414 23.7624C793.394 27.1056 796.99 29.8374 801.447 29.8641Z" fill="#9867FF"/>
<path d="M797.744 26.5569C788.035 33.7792 776.507 39.4803 763.827 43.3304C751.146 47.1804 737.565 49.1028 723.869 48.9865C710.173 48.9389 696.616 46.854 683.983 42.8525C671.349 38.851 659.89 33.0123 650.269 25.6743L642.791 19.9832C633.997 13.3189 622.05 9.5343 609.571 9.45962C597.093 9.38494 585.102 13.0262 576.228 19.5848L501.187 75.1923C481.526 89.7215 454.959 97.7879 427.313 97.6224C399.667 97.457 373.199 89.0732 353.712 74.3097L339.296 63.437C340.883 62.082 341.724 60.3247 341.651 58.5188C341.577 56.7129 340.594 54.9926 338.9 53.7043C337.206 52.4161 334.926 51.6555 332.52 51.5758C330.114 51.4962 327.76 52.1033 325.933 53.2749L260.545 3.53005L258.462 3.51758L324.945 54.0175C323.449 55.2979 322.621 56.9424 322.614 58.6483C322.604 60.0159 323.117 61.3584 324.093 62.5162C325.068 63.674 326.466 64.5985 328.118 65.1798C329.771 65.7611 331.61 65.9749 333.417 65.7956C335.223 65.6163 336.921 65.0516 338.309 64.1685L352.666 75.0739C372.425 90.0501 399.268 98.5551 427.306 98.7229C455.345 98.8907 482.288 90.7076 502.224 75.969L577.236 20.3723C581.493 17.2175 586.54 14.725 592.088 13.037C597.637 11.3491 603.578 10.4987 609.572 10.5346C615.567 10.5705 621.497 11.4919 627.025 13.2461C632.553 15.0004 637.57 17.5531 641.789 20.7586L649.267 26.4388C659.028 33.886 670.655 39.8111 683.475 43.8706C696.295 47.9301 710.053 50.0432 723.951 50.0876C737.819 50.1919 751.567 48.2349 764.403 44.3294C777.239 40.424 788.908 34.6475 798.737 27.3333L826.339 6.91616L824.27 6.90378L797.744 26.5569ZM337.832 63.021C336.698 63.8605 335.257 64.4281 333.69 64.6521C332.124 64.8761 330.502 64.7463 329.031 64.2793C327.559 63.8122 326.304 63.0288 325.423 62.028C324.543 61.0273 324.077 59.8542 324.084 58.6571C324.091 57.46 324.571 56.2926 325.464 55.3024C326.356 54.3123 327.621 53.544 329.098 53.0946C330.575 52.6451 332.198 52.5348 333.761 52.7775C335.325 53.0202 336.759 53.6051 337.883 54.4581C339.387 55.6039 340.226 57.1486 340.216 58.7537C340.207 60.3587 339.349 61.8933 337.832 63.021Z" fill="#262626"/>
<path d="M394.357 44.1971C403.15 50.8607 415.094 54.645 427.57 54.7197C440.046 54.7943 452.035 51.1533 460.906 44.5954L514.239 5.0487L512.171 5.03632L459.869 43.8077C455.611 46.9625 450.565 49.455 445.016 51.143C439.468 52.831 433.527 53.6813 427.532 53.6454C421.538 53.6095 415.607 52.6882 410.08 50.9339C404.552 49.1797 399.535 46.6269 395.316 43.4214L343.526 4.02703L341.457 4.01465L394.357 44.1971Z" fill="#262626"/>
<path d="M87.6309 35.6942C96.423 42.3578 108.367 46.1421 120.843 46.2167C133.319 46.2914 145.308 42.6504 154.179 36.0925L207.513 -3.45423L205.444 -3.46661L153.142 35.3048C148.885 38.4596 143.838 40.9521 138.29 42.6401C132.741 44.328 126.8 45.1784 120.806 45.1425C114.811 45.1066 108.881 44.1852 103.353 42.431C97.8253 40.6767 92.8085 38.124 88.5892 34.9185L36.7991 -4.4759L34.7305 -4.48828L87.6309 35.6942Z" fill="#262626"/>
<path d="M791.788 6.7758C791.797 7.58052 791.59 8.37776 791.18 9.12024C790.77 9.86272 790.165 10.5353 789.4 11.0981C787.877 12.2195 785.821 12.8417 783.683 12.8289C781.544 12.8161 779.497 12.1694 777.986 11.0298C777.229 10.4579 776.632 9.77811 776.231 9.03078C775.829 8.28344 775.632 7.48378 775.65 6.67922C775.65 6.67922 775.65 6.67922 775.651 6.61318L774.183 6.6044C774.144 8.32423 774.936 9.99874 776.415 11.3176C762.391 21.5291 743.549 27.1701 723.972 27.0183C714.123 26.9714 704.377 25.4601 695.298 22.5719C686.219 19.6838 677.987 15.476 671.079 10.1919L665.485 5.95387L663.401 5.94141L670.076 11.0004C684.237 21.7412 703.446 27.8816 723.547 28.0925C743.648 28.3034 763.024 22.568 777.481 12.1274C779.196 13.2594 781.396 13.8901 783.676 13.9036C784.93 13.9119 786.174 13.7341 787.334 13.3802C788.494 13.0263 789.549 12.5035 790.438 11.8418C791.33 11.1858 792.038 10.4028 792.522 9.53833C793.006 8.67389 793.255 7.74529 793.255 6.8066L793.256 6.71855L791.789 6.70977L791.788 6.7758Z" fill="#262626"/>
<path d="M373.519 59.6356C380.581 65 388.977 69.272 398.229 72.2077C407.48 75.1435 417.405 76.6854 427.438 76.7454C437.47 76.8054 447.413 75.3824 456.699 72.5577C465.985 69.7329 474.432 65.5617 481.558 60.2821L555.773 5.29709L553.705 5.28471L480.535 59.4946C473.545 64.6737 465.259 68.7657 456.149 71.5367C447.04 74.3078 437.286 75.7038 427.444 75.6449C417.603 75.586 407.866 74.0734 398.791 71.1935C389.715 68.3135 381.478 64.1227 374.551 58.8603L302.035 3.77854L300.04 3.7666L373.519 59.6356Z" fill="#262626"/>
<path d="M74.0209 58.3758C81.0829 63.7402 89.4793 68.0123 98.7307 70.948C107.982 73.8837 117.907 75.4256 127.94 75.4856C137.972 75.5457 147.915 74.1227 157.201 71.2979C166.487 68.4731 174.934 64.3019 182.059 59.0224L256.275 4.03732L254.207 4.02494L181.037 58.2348C174.047 63.414 165.761 67.5059 156.651 70.277C147.542 73.048 137.788 74.444 127.946 74.3851C118.105 74.3262 108.368 72.8136 99.2926 69.9337C90.217 67.0538 81.9803 62.863 75.0526 57.6005L2.53725 2.51878L0.541992 2.50684L74.0209 58.3758Z" fill="#262626"/>
<path d="M777.986 11.0299C779.496 12.1695 781.544 12.8162 783.682 12.829C785.821 12.8418 787.876 12.2196 789.4 11.0982C790.164 10.5354 790.769 9.86282 791.179 9.12034C791.59 8.37786 791.796 7.58062 791.788 6.77591L791.788 6.70987L775.65 6.61328C775.65 6.61328 775.65 6.61328 775.65 6.67932C775.631 7.48388 775.829 8.28354 776.23 9.03088C776.631 9.77821 777.228 10.458 777.986 11.0299Z" fill="white"/>
<path d="M337.883 54.4589C336.76 53.6059 335.325 53.021 333.761 52.7783C332.198 52.5356 330.575 52.6459 329.098 53.0954C327.621 53.5448 326.356 54.3131 325.464 55.3032C324.571 56.2934 324.091 57.4608 324.084 58.6579C324.077 59.855 324.543 61.0281 325.423 62.0288C326.304 63.0296 327.559 63.813 329.031 64.2801C330.502 64.7471 332.124 64.8769 333.69 64.6529C335.257 64.4289 336.698 63.8613 337.832 63.0217C338.587 62.4648 339.187 61.8012 339.598 61.0689C340.009 60.3366 340.224 59.5501 340.228 58.7545C340.233 57.9589 340.028 57.1699 339.626 56.4328C339.223 55.6956 338.631 55.0248 337.883 54.4589Z" fill="#FBEE81"/>
<path d="M77.1112 17.1217L65.6484 25.6143L77.0087 34.2434L88.4714 25.7508L77.1112 17.1217Z" fill="#6CB2EE"/>
</svg>
