<svg width="178" height="59" viewBox="0 0 178 59" fill="none" xmlns="http://www.w3.org/2000/svg">
<path d="M85.1944 0.50926L0.101562 4.85514e-06L0.0949756 1.10062L85.1878 1.60988C104.626 1.71457 123.27 7.50002 137.161 17.7374L139.274 17.75C132.211 12.3443 123.795 8.03759 114.513 5.07848C105.232 2.11937 95.2669 0.566429 85.1944 0.50926Z" fill="#262626"/>
<path d="M147.069 38.1551C151.525 38.1818 155.154 35.4932 155.174 32.15C155.194 28.8068 151.598 26.075 147.141 26.0483C142.685 26.0216 139.056 28.7102 139.036 32.0534C139.016 35.3966 142.612 38.1284 147.069 38.1551Z" fill="#6CB2EE"/>
<path d="M155.619 38.4607C156.679 36.9497 156.981 35.2014 156.468 33.5336C155.956 31.8658 154.663 30.3892 152.826 29.3722C150.988 28.3552 148.727 27.8653 146.455 27.9915C144.182 28.1177 142.047 28.8516 140.44 30.0599C124.119 22.5961 105.411 18.6029 86.3262 18.5093L1.2334 18.0001L1.22681 19.1007L86.3196 19.61C105.047 19.7224 123.401 23.6356 139.437 30.9344C137.941 32.458 137.316 34.367 137.698 36.2415C138.08 38.116 139.439 39.8023 141.475 40.9296C143.511 42.0569 146.058 42.5328 148.555 42.2526C151.052 41.9723 153.296 40.959 154.791 39.4354C162.871 44.8005 169.806 51.0639 175.352 58.0055L177.054 58.0157C171.336 50.6876 164.1 44.0864 155.619 38.4607ZM147.122 41.1946C145.526 41.185 143.968 40.8206 142.645 40.1475C141.322 39.4744 140.294 38.5228 139.689 37.4131C139.085 36.3033 138.933 35.0852 139.251 33.9128C139.57 32.7404 140.345 31.6664 141.478 30.8266C142.612 29.9868 144.053 29.4188 145.62 29.1946C147.186 28.9704 148.808 29.1 150.28 29.567C151.751 30.034 153.007 30.8174 153.888 31.8182C154.768 32.819 155.235 33.9922 155.227 35.1894C155.214 36.794 154.353 38.3269 152.834 39.4525C151.315 40.578 149.261 41.2044 147.122 41.1946Z" fill="#262626"/>
</svg>
