<svg width="120" height="81" viewBox="0 0 120 81" fill="none" xmlns="http://www.w3.org/2000/svg">
<path fill-rule="evenodd" clip-rule="evenodd" d="M0 58C0 30.3858 22.3858 8 50 8L95 8C108.807 8 120 19.1929 120 33C120 46.8071 108.807 58 95 58H0Z" fill="#F7DC5C"/>
<path fill-rule="evenodd" clip-rule="evenodd" d="M35.7992 21.2004C46.7338 10.2657 64.4625 10.2657 75.3971 21.2004C86.3318 32.135 86.3318 49.8637 75.3971 60.7983C64.4625 71.733 46.7338 71.733 35.7992 60.7983C24.8645 49.8637 24.8645 32.135 35.7992 21.2004Z" fill="#0AC6F2"/>
<path d="M94.0981 3C80.5672 3 69.5981 13.969 69.5981 27.5" stroke="#25DEC5"/>
<circle cx="94.5981" cy="3" r="3" fill="#F76C35"/>
<path fill-rule="evenodd" clip-rule="evenodd" d="M33.5981 37.999C33.5981 35.7899 35.389 33.999 37.5981 33.999C39.8073 33.999 41.5981 35.7899 41.5981 37.999V49.999C41.5981 52.2082 39.8073 53.999 37.5981 53.999C35.389 53.999 33.5981 52.2082 33.5981 49.999V37.999Z" fill="#002933"/>
<path fill-rule="evenodd" clip-rule="evenodd" d="M59.5981 37.999C59.5981 35.7899 61.389 33.999 63.5981 33.999C65.8073 33.999 67.5981 35.7899 67.5981 37.999V49.999C67.5981 52.2082 65.8073 53.999 63.5981 53.999C61.389 53.999 59.5981 52.2082 59.5981 49.999V37.999Z" fill="#002933"/>
<path fill-rule="evenodd" clip-rule="evenodd" d="M45.5981 45L49.5981 50L54.5981 45L45.5981 45Z" stroke="#002933" stroke-linejoin="round"/>
<path d="M49.5981 50V53" stroke="#002933" stroke-linejoin="round"/>
</svg>
