<svg width="1360" height="407" viewBox="0 0 1360 407" fill="none" xmlns="http://www.w3.org/2000/svg">
<g filter="url(#filter0_i_0_1)">
<path d="M0.81 257L21.323 217.66H63.192C70.6853 217.66 74.432 213.445 74.432 205.015C74.432 186.469 65.2527 172.044 46.894 161.741L66.845 127.459C99.2537 146.192 115.458 172.232 115.458 205.577C115.458 239.859 100.565 257 70.779 257H0.81ZM213.332 257C196.097 257 182.609 251.474 172.868 240.421C164.438 230.68 160.223 218.222 160.223 203.048V97.392L200.968 75.755V201.362C200.968 207.357 202.185 211.572 204.621 214.007C207.056 216.442 211.271 217.66 217.266 217.66H244.804V257H213.332ZM229.702 257V217.66H277.191V257H229.702ZM262.357 257V217.66H309.846V257H262.357ZM295.013 257V217.66H342.502V257H295.013ZM327.668 257V217.66H375.157V257H327.668ZM360.323 257V217.66H407.812V257H360.323ZM482.055 109.756C475.686 109.756 470.534 107.883 466.6 104.136C462.854 100.202 460.98 95.0503 460.98 88.681C460.98 82.3117 462.854 77.2537 466.6 73.507C470.534 69.7603 475.686 67.887 482.055 67.887C488.237 67.887 493.202 69.7603 496.948 73.507C500.695 77.2537 502.568 82.3117 502.568 88.681C502.568 95.0503 500.695 100.202 496.948 104.136C493.202 107.883 488.237 109.756 482.055 109.756ZM530.949 217.66H571.413V257H506.502C496.948 257 488.893 256.251 482.336 254.752C475.592 256.251 467.537 257 458.17 257H392.978V217.66H433.723C428.291 207.357 425.574 197.147 425.574 187.031C425.574 168.11 431.101 152.936 442.153 141.509C452.457 130.831 465.851 125.492 482.336 125.492C501.07 125.492 515.682 132.33 526.172 146.005C534.79 157.058 539.098 170.733 539.098 187.031C539.098 197.147 536.382 207.357 530.949 217.66ZM482.336 213.726C487.394 211.103 491.516 207.076 494.7 201.643C497.885 196.023 499.477 190.309 499.477 184.502C499.477 170.639 493.764 163.708 482.336 163.708C470.722 163.708 464.914 170.546 464.914 184.221C464.914 190.216 466.507 196.023 469.691 201.643C472.876 207.076 477.091 211.103 482.336 213.726ZM556.529 257V217.66H604.018V257H556.529ZM589.184 257V217.66H636.673V257H589.184ZM621.84 257V217.66H649.378C655.372 217.66 659.587 216.442 662.023 214.007C664.458 211.572 665.676 207.357 665.676 201.362V152.187L706.421 130.55V203.048C706.421 220.47 700.988 234.145 690.123 244.074C680.756 252.691 668.486 257 653.312 257H621.84ZM636.452 323.035C630.082 323.035 625.024 321.068 621.278 317.134C617.344 313.2 615.377 308.048 615.377 301.679C615.377 295.497 617.344 290.533 621.278 286.786C625.024 283.039 630.082 281.166 636.452 281.166C642.634 281.166 647.598 283.039 651.345 286.786C655.091 290.533 656.965 295.497 656.965 301.679C656.965 308.236 655.091 313.387 651.345 317.134C647.598 321.068 642.634 323.035 636.452 323.035ZM683.098 323.035C676.916 323.035 671.858 321.068 667.924 317.134C664.177 313.2 662.304 308.048 662.304 301.679C662.304 295.497 664.177 290.533 667.924 286.786C671.858 283.039 676.916 281.166 683.098 281.166C689.28 281.166 694.244 283.039 697.991 286.786C701.925 290.533 703.892 295.497 703.892 301.679C703.892 308.236 702.018 313.387 698.272 317.134C694.525 321.068 689.467 323.035 683.098 323.035ZM757.073 257V97.392L797.818 75.755V257H757.073ZM745.833 337.085L755.668 318.82H764.379C762.319 314.886 761.288 310.858 761.288 306.737C761.288 300.555 763.536 295.216 768.032 290.72C772.716 286.224 778.242 283.976 784.611 283.976C790.981 283.976 796.694 286.224 801.752 290.72V308.704C796.882 304.395 792.198 302.241 787.702 302.241C781.52 302.241 778.429 304.77 778.429 309.828C778.429 312.638 779.647 315.635 782.082 318.82H810.744L800.909 337.085H745.833Z" fill="#40556A"/>
</g>
<rect x="1180" y="177.666" width="82.2328" height="9.54" transform="rotate(-16 1180 177.666)" fill="url(#paint0_linear_0_1)"/>
<rect x="1167.68" y="178.618" width="125.827" height="15.539" transform="rotate(-65 1167.68 178.618)" fill="url(#paint1_linear_0_1)"/>
<rect x="1128.35" y="96.5156" width="98.4159" height="12.54" transform="rotate(-29 1128.35 96.5156)" fill="url(#paint2_linear_0_1)"/>
<rect x="1130" y="74.5714" width="93.1287" height="9.54" transform="rotate(-21 1130 74.5714)" fill="url(#paint3_linear_0_1)"/>
<rect x="1122" y="36" width="98" height="16" fill="url(#paint4_linear_0_1)"/>
<rect x="1134" y="357" width="81" height="10" fill="url(#paint5_linear_0_1)"/>
<rect x="1182.86" y="233.034" width="116.16" height="15.539" transform="rotate(64 1182.86 233.034)" fill="url(#paint6_linear_0_1)"/>
<rect x="1136" y="321.976" width="136.816" height="9.54" transform="rotate(-26 1136 321.976)" fill="url(#paint7_linear_0_1)"/>
<rect x="1137.45" y="325.502" width="82.635" height="15.539" transform="rotate(17 1137.45 325.502)" fill="url(#paint8_linear_0_1)"/>
<rect x="1258.86" y="339.586" width="73.3354" height="12.54" transform="rotate(-50 1258.86 339.586)" fill="url(#paint9_linear_0_1)"/>
<rect x="1265.37" y="55.8474" width="57.5588" height="12.54" transform="rotate(46 1265.37 55.8474)" fill="url(#paint10_linear_0_1)"/>
<ellipse cx="1265" cy="265.5" rx="15" ry="14.5" fill="white"/>
<g filter="url(#filter1_i_0_1)">
<ellipse cx="1264.5" cy="265" rx="12.5" ry="12" fill="#963C30"/>
</g>
<ellipse cx="1265" cy="159.5" rx="15" ry="14.5" fill="white"/>
<g filter="url(#filter2_i_0_1)">
<ellipse cx="1264.5" cy="159" rx="12.5" ry="12" fill="#963C30"/>
</g>
<circle cx="1241.5" cy="47.5" r="31.5" fill="white"/>
<g filter="url(#filter3_i_0_1)">
<circle cx="1241.5" cy="47.5" r="27.5" fill="url(#paint11_linear_0_1)"/>
</g>
<circle cx="1321.5" cy="275.5" r="31.5" fill="white"/>
<g filter="url(#filter4_i_0_1)">
<circle cx="1321.5" cy="275.5" r="27.5" fill="url(#paint12_linear_0_1)"/>
</g>
<circle cx="1321" cy="125" r="39" fill="white"/>
<g filter="url(#filter5_i_0_1)">
<circle cx="1321" cy="125" r="34" fill="url(#paint13_linear_0_1)"/>
</g>
<circle cx="1158" cy="212" r="39" fill="white"/>
<g filter="url(#filter6_i_0_1)">
<circle cx="1158" cy="212" r="34" fill="url(#paint14_linear_0_1)"/>
</g>
<circle cx="1243" cy="365" r="39" fill="white"/>
<g filter="url(#filter7_i_0_1)">
<circle cx="1243" cy="365" r="34" fill="url(#paint15_linear_0_1)"/>
</g>
<path d="M842 10.5H831.5V21V328C831.5 365.832 862.168 396.5 900 396.5H1119H1129.5V386V79C1129.5 41.1685 1098.83 10.5 1061 10.5H842Z" stroke="white" stroke-width="21"/>
<g filter="url(#filter8_i_0_1)">
<path d="M850 17.5H839.5V28V320C839.5 357.832 870.168 388.5 908 388.5H1112H1122.5V378V86C1122.5 48.1685 1091.83 17.5 1054 17.5H850Z" stroke="url(#paint16_linear_0_1)" stroke-width="21"/>
</g>
<g filter="url(#filter9_i_0_1)">
<line x1="887.5" y1="167.5" x2="1081.5" y2="167.5" stroke="url(#paint17_linear_0_1)" stroke-width="13" stroke-linecap="round"/>
</g>
<g filter="url(#filter10_i_0_1)">
<line x1="887.5" y1="206.5" x2="966.5" y2="206.5" stroke="url(#paint18_linear_0_1)" stroke-width="13" stroke-linecap="round"/>
</g>
<g filter="url(#filter11_i_0_1)">
<line x1="887.5" y1="244.5" x2="966.5" y2="244.5" stroke="url(#paint19_linear_0_1)" stroke-width="13" stroke-linecap="round"/>
</g>
<g filter="url(#filter12_i_0_1)">
<line x1="998.5" y1="205.5" x2="1082.5" y2="205.5" stroke="url(#paint20_linear_0_1)" stroke-width="13" stroke-linecap="round"/>
</g>
<g filter="url(#filter13_i_0_1)">
<line x1="987.5" y1="127.5" x2="1083.5" y2="127.5" stroke="url(#paint21_linear_0_1)" stroke-width="13" stroke-linecap="round"/>
</g>
<g filter="url(#filter14_i_0_1)">
<line x1="987.5" y1="91.5" x2="1083.5" y2="91.5" stroke="url(#paint22_linear_0_1)" stroke-width="13" stroke-linecap="round"/>
</g>
<g filter="url(#filter15_i_0_1)">
<line x1="998.5" y1="244.5" x2="1082.5" y2="244.5" stroke="url(#paint23_linear_0_1)" stroke-width="13" stroke-linecap="round"/>
</g>
<g filter="url(#filter16_i_0_1)">
<line x1="993.5" y1="301.5" x2="1083.5" y2="301.5" stroke="url(#paint24_linear_0_1)" stroke-width="13" stroke-linecap="round"/>
</g>
<g filter="url(#filter17_i_0_1)">
<line x1="998.5" y1="339.5" x2="1082.5" y2="339.5" stroke="url(#paint25_linear_0_1)" stroke-width="13" stroke-linecap="round"/>
</g>
<g filter="url(#filter18_i_0_1)">
<line x1="887.5" y1="339.5" x2="966.5" y2="339.5" stroke="url(#paint26_linear_0_1)" stroke-width="13" stroke-linecap="round"/>
</g>
<path d="M906.496 98.7689C908.455 98.9196 910.325 99.646 911.872 100.857L921 108L923.251 109.575C925.04 110.828 927.172 111.5 929.356 111.5V111.5C931.408 111.5 933.417 110.907 935.14 109.792L940.942 106.037C940.981 106.013 941.016 105.984 941.049 105.951V105.951C941.433 105.567 942.09 105.797 942.151 106.337L944.278 125.121C944.703 128.881 942.543 132.455 939.017 133.827V133.827C937.076 134.582 934.923 134.583 932.982 133.83L911.5 125.5L896.879 117.654C893.431 115.805 891.702 111.832 892.698 108.048V108.048C893.215 106.082 894.424 104.368 896.101 103.22L900.106 100.48C901.979 99.1986 904.233 98.5949 906.496 98.7689V98.7689Z" fill="url(#paint27_linear_0_1)"/>
<path d="M901.5 100L903.547 99.1812C903.849 99.0606 904.159 98.9646 904.476 98.8942L907.699 98.1781C908.182 98.0707 908.681 98.2713 908.955 98.6829V98.6829C909.272 99.158 909.209 99.7906 908.806 100.194L902.893 106.107C902.632 106.368 902.4 106.657 902.201 106.969L901.044 108.787C899.973 110.471 900.666 112.714 902.5 113.5V113.5L915 120L927.5 124.5L934.409 126.227C935.131 126.408 935.878 126.458 936.617 126.376L936.879 126.347C938.825 126.131 940.529 124.942 941.404 123.191L942.715 120.569C942.89 120.22 943.246 120 943.636 120V120C944.136 120 944.563 120.359 944.65 120.851L945.379 124.98C945.762 127.15 944.93 129.356 943.209 130.733L942.029 131.677C939.82 133.444 936.882 134.008 934.177 133.184L916.704 127.866C915.904 127.623 915.134 127.289 914.41 126.871L904.509 121.159C903.2 120.404 901.694 120.06 900.186 120.171V120.171C894.846 120.567 890.809 115.424 892.461 110.33L893.544 106.989C894.465 104.15 896.619 101.877 899.405 100.806L901.5 100Z" fill="url(#paint28_linear_0_1)"/>
<path d="M901.691 100.537L900.768 100.153L900 102L900.923 102.384L901.691 100.537ZM905.974 104.483C906.484 104.695 907.07 104.454 907.282 103.944C907.494 103.434 907.252 102.848 906.742 102.636L905.974 104.483ZM900.923 102.384L905.974 104.483L906.742 102.636L901.691 100.537L900.923 102.384Z" fill="url(#paint29_linear_0_1)"/>
<path d="M908.384 94.0766L907.46 93.6928L906.693 95.5396L907.616 95.9234L908.384 94.0766ZM912.667 98.0229C913.177 98.2348 913.762 97.9932 913.974 97.4833C914.186 96.9733 913.945 96.388 913.435 96.176L912.667 98.0229ZM907.616 95.9234L912.667 98.0229L913.435 96.176L908.384 94.0766L907.616 95.9234Z" fill="url(#paint30_linear_0_1)"/>
<path d="M915.384 88.0766L914.46 87.6928L913.693 89.5396L914.616 89.9234L915.384 88.0766ZM919.667 92.0229C920.177 92.2348 920.762 91.9932 920.974 91.4833C921.186 90.9733 920.945 90.388 920.435 90.176L919.667 92.0229ZM914.616 89.9234L919.667 92.0229L920.435 90.176L915.384 88.0766L914.616 89.9234Z" fill="url(#paint31_linear_0_1)"/>
<path d="M935.384 96.0766C934.874 95.8646 934.289 96.1062 934.077 96.6162C933.865 97.1262 934.106 97.7114 934.616 97.9234L935.384 96.0766ZM939.667 100.023L940.591 100.407L941.358 98.5599L940.435 98.176L939.667 100.023ZM934.616 97.9234L939.667 100.023L940.435 98.176L935.384 96.0766L934.616 97.9234Z" fill="url(#paint32_linear_0_1)"/>
<path d="M937.384 106.077C936.874 105.865 936.289 106.106 936.077 106.616C935.865 107.126 936.106 107.711 936.616 107.923L937.384 106.077ZM941.667 110.023L942.591 110.407L943.358 108.56L942.435 108.176L941.667 110.023ZM936.616 107.923L941.667 110.023L942.435 108.176L937.384 106.077L936.616 107.923Z" fill="url(#paint33_linear_0_1)"/>
<path d="M937.384 115.077C936.874 114.865 936.289 115.106 936.077 115.616C935.865 116.126 936.106 116.711 936.616 116.923L937.384 115.077ZM941.667 119.023L942.591 119.407L943.358 117.56L942.435 117.176L941.667 119.023ZM936.616 116.923L941.667 119.023L942.435 117.176L937.384 115.077L936.616 116.923Z" fill="url(#paint34_linear_0_1)"/>
<path d="M945.386 126.257L941.861 94.1755C941.553 91.3699 939.789 88.9343 937.219 87.7664L927.226 83.224C924.452 81.963 921.202 82.3876 918.845 84.3191L893.523 105.069C888.835 108.911 889.956 116.369 895.567 118.662L934.408 134.536C940.023 136.831 946.049 132.286 945.386 126.257Z" stroke="url(#paint35_linear_0_1)" stroke-width="4"/>
<rect x="922.088" y="87.2119" width="18.6577" height="16.0976" transform="rotate(-67 922.088 87.2119)" fill="white"/>
<path d="M923.384 82.0766L922.46 81.6928L921.693 83.5396L922.616 83.9234L923.384 82.0766ZM927.667 86.0229C928.177 86.2348 928.762 85.9932 928.974 85.4833C929.186 84.9733 928.945 84.388 928.435 84.176L927.667 86.0229ZM922.616 83.9234L927.667 86.0229L928.435 84.176L923.384 82.0766L922.616 83.9234Z" fill="url(#paint36_linear_0_1)"/>
<path d="M934.384 87.0766C933.874 86.8646 933.289 87.1062 933.077 87.6162C932.865 88.1262 933.106 88.7114 933.616 88.9234L934.384 87.0766ZM938.667 91.0229L939.591 91.4067L940.358 89.5599L939.435 89.176L938.667 91.0229ZM933.616 88.9234L938.667 91.0229L939.435 89.176L934.384 87.0766L933.616 88.9234Z" fill="url(#paint37_linear_0_1)"/>
<path d="M941 89.1716L948.815 70.7615" stroke="url(#paint38_linear_0_1)" stroke-width="4" stroke-linecap="round"/>
<path d="M922 82.4102L929.815 64.0001" stroke="url(#paint39_linear_0_1)" stroke-width="4" stroke-linecap="round"/>
<path d="M926 61L953.816 72.2382" stroke="url(#paint40_linear_0_1)" stroke-width="4" stroke-linecap="round"/>
<defs>
<filter id="filter0_i_0_1" x="0.809998" y="67.887" width="809.934" height="273.198" filterUnits="userSpaceOnUse" color-interpolation-filters="sRGB">
<feFlood flood-opacity="0" result="BackgroundImageFix"/>
<feBlend mode="normal" in="SourceGraphic" in2="BackgroundImageFix" result="shape"/>
<feColorMatrix in="SourceAlpha" type="matrix" values="0 0 0 0 0 0 0 0 0 0 0 0 0 0 0 0 0 0 127 0" result="hardAlpha"/>
<feOffset dy="4"/>
<feGaussianBlur stdDeviation="2"/>
<feComposite in2="hardAlpha" operator="arithmetic" k2="-1" k3="1"/>
<feColorMatrix type="matrix" values="0 0 0 0 0 0 0 0 0 0 0 0 0 0 0 0 0 0 0.25 0"/>
<feBlend mode="normal" in2="shape" result="effect1_innerShadow_0_1"/>
</filter>
<filter id="filter1_i_0_1" x="1252" y="253" width="25" height="28" filterUnits="userSpaceOnUse" color-interpolation-filters="sRGB">
<feFlood flood-opacity="0" result="BackgroundImageFix"/>
<feBlend mode="normal" in="SourceGraphic" in2="BackgroundImageFix" result="shape"/>
<feColorMatrix in="SourceAlpha" type="matrix" values="0 0 0 0 0 0 0 0 0 0 0 0 0 0 0 0 0 0 127 0" result="hardAlpha"/>
<feOffset dy="4"/>
<feGaussianBlur stdDeviation="2"/>
<feComposite in2="hardAlpha" operator="arithmetic" k2="-1" k3="1"/>
<feColorMatrix type="matrix" values="0 0 0 0 0 0 0 0 0 0 0 0 0 0 0 0 0 0 0.25 0"/>
<feBlend mode="normal" in2="shape" result="effect1_innerShadow_0_1"/>
</filter>
<filter id="filter2_i_0_1" x="1252" y="147" width="25" height="28" filterUnits="userSpaceOnUse" color-interpolation-filters="sRGB">
<feFlood flood-opacity="0" result="BackgroundImageFix"/>
<feBlend mode="normal" in="SourceGraphic" in2="BackgroundImageFix" result="shape"/>
<feColorMatrix in="SourceAlpha" type="matrix" values="0 0 0 0 0 0 0 0 0 0 0 0 0 0 0 0 0 0 127 0" result="hardAlpha"/>
<feOffset dy="4"/>
<feGaussianBlur stdDeviation="2"/>
<feComposite in2="hardAlpha" operator="arithmetic" k2="-1" k3="1"/>
<feColorMatrix type="matrix" values="0 0 0 0 0 0 0 0 0 0 0 0 0 0 0 0 0 0 0.25 0"/>
<feBlend mode="normal" in2="shape" result="effect1_innerShadow_0_1"/>
</filter>
<filter id="filter3_i_0_1" x="1214" y="20" width="55" height="59" filterUnits="userSpaceOnUse" color-interpolation-filters="sRGB">
<feFlood flood-opacity="0" result="BackgroundImageFix"/>
<feBlend mode="normal" in="SourceGraphic" in2="BackgroundImageFix" result="shape"/>
<feColorMatrix in="SourceAlpha" type="matrix" values="0 0 0 0 0 0 0 0 0 0 0 0 0 0 0 0 0 0 127 0" result="hardAlpha"/>
<feOffset dy="4"/>
<feGaussianBlur stdDeviation="2"/>
<feComposite in2="hardAlpha" operator="arithmetic" k2="-1" k3="1"/>
<feColorMatrix type="matrix" values="0 0 0 0 0 0 0 0 0 0 0 0 0 0 0 0 0 0 0.25 0"/>
<feBlend mode="normal" in2="shape" result="effect1_innerShadow_0_1"/>
</filter>
<filter id="filter4_i_0_1" x="1294" y="248" width="55" height="59" filterUnits="userSpaceOnUse" color-interpolation-filters="sRGB">
<feFlood flood-opacity="0" result="BackgroundImageFix"/>
<feBlend mode="normal" in="SourceGraphic" in2="BackgroundImageFix" result="shape"/>
<feColorMatrix in="SourceAlpha" type="matrix" values="0 0 0 0 0 0 0 0 0 0 0 0 0 0 0 0 0 0 127 0" result="hardAlpha"/>
<feOffset dy="4"/>
<feGaussianBlur stdDeviation="2"/>
<feComposite in2="hardAlpha" operator="arithmetic" k2="-1" k3="1"/>
<feColorMatrix type="matrix" values="0 0 0 0 0 0 0 0 0 0 0 0 0 0 0 0 0 0 0.25 0"/>
<feBlend mode="normal" in2="shape" result="effect1_innerShadow_0_1"/>
</filter>
<filter id="filter5_i_0_1" x="1287" y="91" width="68" height="72" filterUnits="userSpaceOnUse" color-interpolation-filters="sRGB">
<feFlood flood-opacity="0" result="BackgroundImageFix"/>
<feBlend mode="normal" in="SourceGraphic" in2="BackgroundImageFix" result="shape"/>
<feColorMatrix in="SourceAlpha" type="matrix" values="0 0 0 0 0 0 0 0 0 0 0 0 0 0 0 0 0 0 127 0" result="hardAlpha"/>
<feOffset dy="4"/>
<feGaussianBlur stdDeviation="2"/>
<feComposite in2="hardAlpha" operator="arithmetic" k2="-1" k3="1"/>
<feColorMatrix type="matrix" values="0 0 0 0 0 0 0 0 0 0 0 0 0 0 0 0 0 0 0.25 0"/>
<feBlend mode="normal" in2="shape" result="effect1_innerShadow_0_1"/>
</filter>
<filter id="filter6_i_0_1" x="1124" y="178" width="68" height="72" filterUnits="userSpaceOnUse" color-interpolation-filters="sRGB">
<feFlood flood-opacity="0" result="BackgroundImageFix"/>
<feBlend mode="normal" in="SourceGraphic" in2="BackgroundImageFix" result="shape"/>
<feColorMatrix in="SourceAlpha" type="matrix" values="0 0 0 0 0 0 0 0 0 0 0 0 0 0 0 0 0 0 127 0" result="hardAlpha"/>
<feOffset dy="4"/>
<feGaussianBlur stdDeviation="2"/>
<feComposite in2="hardAlpha" operator="arithmetic" k2="-1" k3="1"/>
<feColorMatrix type="matrix" values="0 0 0 0 0 0 0 0 0 0 0 0 0 0 0 0 0 0 0.25 0"/>
<feBlend mode="normal" in2="shape" result="effect1_innerShadow_0_1"/>
</filter>
<filter id="filter7_i_0_1" x="1209" y="331" width="68" height="72" filterUnits="userSpaceOnUse" color-interpolation-filters="sRGB">
<feFlood flood-opacity="0" result="BackgroundImageFix"/>
<feBlend mode="normal" in="SourceGraphic" in2="BackgroundImageFix" result="shape"/>
<feColorMatrix in="SourceAlpha" type="matrix" values="0 0 0 0 0 0 0 0 0 0 0 0 0 0 0 0 0 0 127 0" result="hardAlpha"/>
<feOffset dy="4"/>
<feGaussianBlur stdDeviation="2"/>
<feComposite in2="hardAlpha" operator="arithmetic" k2="-1" k3="1"/>
<feColorMatrix type="matrix" values="0 0 0 0 0 0 0 0 0 0 0 0 0 0 0 0 0 0 0.25 0"/>
<feBlend mode="normal" in2="shape" result="effect1_innerShadow_0_1"/>
</filter>
<filter id="filter8_i_0_1" x="829" y="7" width="304" height="396" filterUnits="userSpaceOnUse" color-interpolation-filters="sRGB">
<feFlood flood-opacity="0" result="BackgroundImageFix"/>
<feBlend mode="normal" in="SourceGraphic" in2="BackgroundImageFix" result="shape"/>
<feColorMatrix in="SourceAlpha" type="matrix" values="0 0 0 0 0 0 0 0 0 0 0 0 0 0 0 0 0 0 127 0" result="hardAlpha"/>
<feOffset dy="4"/>
<feGaussianBlur stdDeviation="2"/>
<feComposite in2="hardAlpha" operator="arithmetic" k2="-1" k3="1"/>
<feColorMatrix type="matrix" values="0 0 0 0 0 0 0 0 0 0 0 0 0 0 0 0 0 0 0.25 0"/>
<feBlend mode="normal" in2="shape" result="effect1_innerShadow_0_1"/>
</filter>
<filter id="filter9_i_0_1" x="881" y="161" width="207" height="17" filterUnits="userSpaceOnUse" color-interpolation-filters="sRGB">
<feFlood flood-opacity="0" result="BackgroundImageFix"/>
<feBlend mode="normal" in="SourceGraphic" in2="BackgroundImageFix" result="shape"/>
<feColorMatrix in="SourceAlpha" type="matrix" values="0 0 0 0 0 0 0 0 0 0 0 0 0 0 0 0 0 0 127 0" result="hardAlpha"/>
<feOffset dy="4"/>
<feGaussianBlur stdDeviation="2"/>
<feComposite in2="hardAlpha" operator="arithmetic" k2="-1" k3="1"/>
<feColorMatrix type="matrix" values="0 0 0 0 0 0 0 0 0 0 0 0 0 0 0 0 0 0 0.25 0"/>
<feBlend mode="normal" in2="shape" result="effect1_innerShadow_0_1"/>
</filter>
<filter id="filter10_i_0_1" x="881" y="200" width="92" height="17" filterUnits="userSpaceOnUse" color-interpolation-filters="sRGB">
<feFlood flood-opacity="0" result="BackgroundImageFix"/>
<feBlend mode="normal" in="SourceGraphic" in2="BackgroundImageFix" result="shape"/>
<feColorMatrix in="SourceAlpha" type="matrix" values="0 0 0 0 0 0 0 0 0 0 0 0 0 0 0 0 0 0 127 0" result="hardAlpha"/>
<feOffset dy="4"/>
<feGaussianBlur stdDeviation="2"/>
<feComposite in2="hardAlpha" operator="arithmetic" k2="-1" k3="1"/>
<feColorMatrix type="matrix" values="0 0 0 0 0 0 0 0 0 0 0 0 0 0 0 0 0 0 0.25 0"/>
<feBlend mode="normal" in2="shape" result="effect1_innerShadow_0_1"/>
</filter>
<filter id="filter11_i_0_1" x="881" y="238" width="92" height="17" filterUnits="userSpaceOnUse" color-interpolation-filters="sRGB">
<feFlood flood-opacity="0" result="BackgroundImageFix"/>
<feBlend mode="normal" in="SourceGraphic" in2="BackgroundImageFix" result="shape"/>
<feColorMatrix in="SourceAlpha" type="matrix" values="0 0 0 0 0 0 0 0 0 0 0 0 0 0 0 0 0 0 127 0" result="hardAlpha"/>
<feOffset dy="4"/>
<feGaussianBlur stdDeviation="2"/>
<feComposite in2="hardAlpha" operator="arithmetic" k2="-1" k3="1"/>
<feColorMatrix type="matrix" values="0 0 0 0 0 0 0 0 0 0 0 0 0 0 0 0 0 0 0.25 0"/>
<feBlend mode="normal" in2="shape" result="effect1_innerShadow_0_1"/>
</filter>
<filter id="filter12_i_0_1" x="992" y="199" width="97" height="17" filterUnits="userSpaceOnUse" color-interpolation-filters="sRGB">
<feFlood flood-opacity="0" result="BackgroundImageFix"/>
<feBlend mode="normal" in="SourceGraphic" in2="BackgroundImageFix" result="shape"/>
<feColorMatrix in="SourceAlpha" type="matrix" values="0 0 0 0 0 0 0 0 0 0 0 0 0 0 0 0 0 0 127 0" result="hardAlpha"/>
<feOffset dy="4"/>
<feGaussianBlur stdDeviation="2"/>
<feComposite in2="hardAlpha" operator="arithmetic" k2="-1" k3="1"/>
<feColorMatrix type="matrix" values="0 0 0 0 0 0 0 0 0 0 0 0 0 0 0 0 0 0 0.25 0"/>
<feBlend mode="normal" in2="shape" result="effect1_innerShadow_0_1"/>
</filter>
<filter id="filter13_i_0_1" x="981" y="121" width="109" height="17" filterUnits="userSpaceOnUse" color-interpolation-filters="sRGB">
<feFlood flood-opacity="0" result="BackgroundImageFix"/>
<feBlend mode="normal" in="SourceGraphic" in2="BackgroundImageFix" result="shape"/>
<feColorMatrix in="SourceAlpha" type="matrix" values="0 0 0 0 0 0 0 0 0 0 0 0 0 0 0 0 0 0 127 0" result="hardAlpha"/>
<feOffset dy="4"/>
<feGaussianBlur stdDeviation="2"/>
<feComposite in2="hardAlpha" operator="arithmetic" k2="-1" k3="1"/>
<feColorMatrix type="matrix" values="0 0 0 0 0 0 0 0 0 0 0 0 0 0 0 0 0 0 0.25 0"/>
<feBlend mode="normal" in2="shape" result="effect1_innerShadow_0_1"/>
</filter>
<filter id="filter14_i_0_1" x="981" y="85" width="109" height="17" filterUnits="userSpaceOnUse" color-interpolation-filters="sRGB">
<feFlood flood-opacity="0" result="BackgroundImageFix"/>
<feBlend mode="normal" in="SourceGraphic" in2="BackgroundImageFix" result="shape"/>
<feColorMatrix in="SourceAlpha" type="matrix" values="0 0 0 0 0 0 0 0 0 0 0 0 0 0 0 0 0 0 127 0" result="hardAlpha"/>
<feOffset dy="4"/>
<feGaussianBlur stdDeviation="2"/>
<feComposite in2="hardAlpha" operator="arithmetic" k2="-1" k3="1"/>
<feColorMatrix type="matrix" values="0 0 0 0 0 0 0 0 0 0 0 0 0 0 0 0 0 0 0.25 0"/>
<feBlend mode="normal" in2="shape" result="effect1_innerShadow_0_1"/>
</filter>
<filter id="filter15_i_0_1" x="992" y="238" width="97" height="17" filterUnits="userSpaceOnUse" color-interpolation-filters="sRGB">
<feFlood flood-opacity="0" result="BackgroundImageFix"/>
<feBlend mode="normal" in="SourceGraphic" in2="BackgroundImageFix" result="shape"/>
<feColorMatrix in="SourceAlpha" type="matrix" values="0 0 0 0 0 0 0 0 0 0 0 0 0 0 0 0 0 0 127 0" result="hardAlpha"/>
<feOffset dy="4"/>
<feGaussianBlur stdDeviation="2"/>
<feComposite in2="hardAlpha" operator="arithmetic" k2="-1" k3="1"/>
<feColorMatrix type="matrix" values="0 0 0 0 0 0 0 0 0 0 0 0 0 0 0 0 0 0 0.25 0"/>
<feBlend mode="normal" in2="shape" result="effect1_innerShadow_0_1"/>
</filter>
<filter id="filter16_i_0_1" x="987" y="295" width="103" height="17" filterUnits="userSpaceOnUse" color-interpolation-filters="sRGB">
<feFlood flood-opacity="0" result="BackgroundImageFix"/>
<feBlend mode="normal" in="SourceGraphic" in2="BackgroundImageFix" result="shape"/>
<feColorMatrix in="SourceAlpha" type="matrix" values="0 0 0 0 0 0 0 0 0 0 0 0 0 0 0 0 0 0 127 0" result="hardAlpha"/>
<feOffset dy="4"/>
<feGaussianBlur stdDeviation="2"/>
<feComposite in2="hardAlpha" operator="arithmetic" k2="-1" k3="1"/>
<feColorMatrix type="matrix" values="0 0 0 0 0 0 0 0 0 0 0 0 0 0 0 0 0 0 0.25 0"/>
<feBlend mode="normal" in2="shape" result="effect1_innerShadow_0_1"/>
</filter>
<filter id="filter17_i_0_1" x="992" y="333" width="97" height="17" filterUnits="userSpaceOnUse" color-interpolation-filters="sRGB">
<feFlood flood-opacity="0" result="BackgroundImageFix"/>
<feBlend mode="normal" in="SourceGraphic" in2="BackgroundImageFix" result="shape"/>
<feColorMatrix in="SourceAlpha" type="matrix" values="0 0 0 0 0 0 0 0 0 0 0 0 0 0 0 0 0 0 127 0" result="hardAlpha"/>
<feOffset dy="4"/>
<feGaussianBlur stdDeviation="2"/>
<feComposite in2="hardAlpha" operator="arithmetic" k2="-1" k3="1"/>
<feColorMatrix type="matrix" values="0 0 0 0 0 0 0 0 0 0 0 0 0 0 0 0 0 0 0.25 0"/>
<feBlend mode="normal" in2="shape" result="effect1_innerShadow_0_1"/>
</filter>
<filter id="filter18_i_0_1" x="881" y="333" width="92" height="17" filterUnits="userSpaceOnUse" color-interpolation-filters="sRGB">
<feFlood flood-opacity="0" result="BackgroundImageFix"/>
<feBlend mode="normal" in="SourceGraphic" in2="BackgroundImageFix" result="shape"/>
<feColorMatrix in="SourceAlpha" type="matrix" values="0 0 0 0 0 0 0 0 0 0 0 0 0 0 0 0 0 0 127 0" result="hardAlpha"/>
<feOffset dy="4"/>
<feGaussianBlur stdDeviation="2"/>
<feComposite in2="hardAlpha" operator="arithmetic" k2="-1" k3="1"/>
<feColorMatrix type="matrix" values="0 0 0 0 0 0 0 0 0 0 0 0 0 0 0 0 0 0 0.25 0"/>
<feBlend mode="normal" in2="shape" result="effect1_innerShadow_0_1"/>
</filter>
<linearGradient id="paint0_linear_0_1" x1="1180" y1="182.436" x2="1262.23" y2="182.436" gradientUnits="userSpaceOnUse">
<stop stop-color="#963C30"/>
<stop offset="0.5" stop-color="#AF4638"/>
<stop offset="1" stop-color="#E26D5C"/>
</linearGradient>
<linearGradient id="paint1_linear_0_1" x1="1293.5" y1="186.387" x2="1167.68" y2="186.387" gradientUnits="userSpaceOnUse">
<stop stop-color="#94A0D5"/>
<stop offset="1" stop-color="#40556A"/>
</linearGradient>
<linearGradient id="paint2_linear_0_1" x1="1128.35" y1="102.786" x2="1226.77" y2="102.786" gradientUnits="userSpaceOnUse">
<stop stop-color="#002B35"/>
<stop offset="0.5" stop-color="#B04638"/>
<stop offset="0.75" stop-color="#963C30"/>
<stop offset="1" stop-color="#E26D5C"/>
</linearGradient>
<linearGradient id="paint3_linear_0_1" x1="1130" y1="79.3414" x2="1223.13" y2="79.3414" gradientUnits="userSpaceOnUse">
<stop stop-color="#002B35"/>
<stop offset="1" stop-color="#40556A"/>
</linearGradient>
<linearGradient id="paint4_linear_0_1" x1="1122" y1="44" x2="1220" y2="44" gradientUnits="userSpaceOnUse">
<stop stop-color="#002B35"/>
<stop offset="0.5" stop-color="#963C30"/>
<stop offset="1" stop-color="#E26D5C"/>
</linearGradient>
<linearGradient id="paint5_linear_0_1" x1="1134" y1="362" x2="1215" y2="362" gradientUnits="userSpaceOnUse">
<stop stop-color="#002B35"/>
<stop offset="1" stop-color="#40556A"/>
</linearGradient>
<linearGradient id="paint6_linear_0_1" x1="1182.86" y1="240.804" x2="1299.02" y2="240.804" gradientUnits="userSpaceOnUse">
<stop stop-color="#94A0D5"/>
<stop offset="0.5" stop-color="#40556A"/>
<stop offset="1" stop-color="#002B35"/>
</linearGradient>
<linearGradient id="paint7_linear_0_1" x1="1136" y1="326.746" x2="1272.82" y2="326.746" gradientUnits="userSpaceOnUse">
<stop stop-color="#963C30"/>
<stop offset="0.5" stop-color="#AF4638"/>
<stop offset="1" stop-color="#E26D5C"/>
</linearGradient>
<linearGradient id="paint8_linear_0_1" x1="1137.45" y1="333.271" x2="1220.09" y2="333.271" gradientUnits="userSpaceOnUse">
<stop stop-color="#963C30"/>
<stop offset="1" stop-color="#E26D5C"/>
</linearGradient>
<linearGradient id="paint9_linear_0_1" x1="1332.2" y1="345.856" x2="1258.86" y2="345.856" gradientUnits="userSpaceOnUse">
<stop stop-color="#94A0D5"/>
<stop offset="1" stop-color="#94A0D5"/>
</linearGradient>
<linearGradient id="paint10_linear_0_1" x1="1265.37" y1="62.1174" x2="1322.93" y2="62.1174" gradientUnits="userSpaceOnUse">
<stop stop-color="#94A0D5"/>
<stop offset="1" stop-color="#94A0D5"/>
</linearGradient>
<linearGradient id="paint11_linear_0_1" x1="1269" y1="47" x2="1214" y2="47" gradientUnits="userSpaceOnUse">
<stop stop-color="#E26D5C"/>
<stop offset="1" stop-color="#963C30"/>
</linearGradient>
<linearGradient id="paint12_linear_0_1" x1="1362" y1="275" x2="1294" y2="275" gradientUnits="userSpaceOnUse">
<stop stop-color="#E26D5C"/>
<stop offset="0.5" stop-color="#AF4638"/>
<stop offset="1" stop-color="#963C30"/>
</linearGradient>
<linearGradient id="paint13_linear_0_1" x1="1364.5" y1="125" x2="1287" y2="125" gradientUnits="userSpaceOnUse">
<stop stop-color="#E26D5C"/>
<stop offset="0.5" stop-color="#AF4638"/>
<stop offset="1" stop-color="#963C30"/>
</linearGradient>
<linearGradient id="paint14_linear_0_1" x1="1214" y1="212" x2="1138" y2="212" gradientUnits="userSpaceOnUse">
<stop stop-color="#E26D5C"/>
<stop offset="0.5" stop-color="#AF4638"/>
<stop offset="1" stop-color="#963C30"/>
</linearGradient>
<linearGradient id="paint15_linear_0_1" x1="1277" y1="365" x2="1209" y2="365" gradientUnits="userSpaceOnUse">
<stop stop-color="#E26D5C"/>
<stop offset="1" stop-color="#963C30"/>
</linearGradient>
<linearGradient id="paint16_linear_0_1" x1="1084.5" y1="35" x2="879.5" y2="370.5" gradientUnits="userSpaceOnUse">
<stop stop-color="#40556A"/>
<stop offset="0.5" stop-color="#94A0D5"/>
<stop offset="1" stop-color="#002B35"/>
</linearGradient>
<linearGradient id="paint17_linear_0_1" x1="881" y1="174.5" x2="1088" y2="174.5" gradientUnits="userSpaceOnUse">
<stop stop-color="#002B35"/>
<stop offset="1" stop-color="#40556A"/>
</linearGradient>
<linearGradient id="paint18_linear_0_1" x1="881" y1="213.5" x2="973" y2="213.5" gradientUnits="userSpaceOnUse">
<stop stop-color="#002B35"/>
<stop offset="1" stop-color="#40556A"/>
</linearGradient>
<linearGradient id="paint19_linear_0_1" x1="881" y1="251.5" x2="973" y2="251.5" gradientUnits="userSpaceOnUse">
<stop stop-color="#002B35"/>
<stop offset="1" stop-color="#94A0D5"/>
</linearGradient>
<linearGradient id="paint20_linear_0_1" x1="992" y1="212.5" x2="1089" y2="212.5" gradientUnits="userSpaceOnUse">
<stop stop-color="#002B35"/>
<stop offset="1" stop-color="#40556A"/>
</linearGradient>
<linearGradient id="paint21_linear_0_1" x1="981" y1="134.5" x2="1090" y2="134.5" gradientUnits="userSpaceOnUse">
<stop stop-color="#40556A"/>
<stop offset="1" stop-color="#002B35"/>
</linearGradient>
<linearGradient id="paint22_linear_0_1" x1="981" y1="98.5" x2="1090" y2="98.5" gradientUnits="userSpaceOnUse">
<stop stop-color="#40556A"/>
<stop offset="1" stop-color="#40556A"/>
</linearGradient>
<linearGradient id="paint23_linear_0_1" x1="992" y1="251.5" x2="1089" y2="251.5" gradientUnits="userSpaceOnUse">
<stop stop-color="#40556A"/>
<stop offset="1" stop-color="#40556A"/>
</linearGradient>
<linearGradient id="paint24_linear_0_1" x1="987" y1="308.5" x2="1090" y2="308.5" gradientUnits="userSpaceOnUse">
<stop stop-color="#94A0D5"/>
<stop offset="1" stop-color="#94A0D5"/>
</linearGradient>
<linearGradient id="paint25_linear_0_1" x1="992" y1="346.5" x2="1089" y2="346.5" gradientUnits="userSpaceOnUse">
<stop stop-color="#94A0D5"/>
<stop offset="1" stop-color="#94A0D5"/>
</linearGradient>
<linearGradient id="paint26_linear_0_1" x1="881" y1="346.5" x2="973" y2="346.5" gradientUnits="userSpaceOnUse">
<stop stop-color="#94A0D5"/>
<stop offset="1" stop-color="#94A0D5"/>
</linearGradient>
<linearGradient id="paint27_linear_0_1" x1="931.5" y1="107.5" x2="903.5" y2="126" gradientUnits="userSpaceOnUse">
<stop stop-color="#E26D5C"/>
<stop offset="1" stop-color="#963C30"/>
</linearGradient>
<linearGradient id="paint28_linear_0_1" x1="935" y1="74.5" x2="913.5" y2="131.5" gradientUnits="userSpaceOnUse">
<stop stop-color="#E26D5C"/>
<stop offset="0.5" stop-color="#AF4638"/>
<stop offset="0.75" stop-color="#963C30"/>
<stop offset="1" stop-color="#002B35"/>
</linearGradient>
<linearGradient id="paint29_linear_0_1" x1="901.115" y1="101.922" x2="906.166" y2="104.022" gradientUnits="userSpaceOnUse">
<stop stop-color="#40556A"/>
<stop offset="0.5" stop-color="#94A0D5"/>
<stop offset="1" stop-color="#002B35"/>
</linearGradient>
<linearGradient id="paint30_linear_0_1" x1="907.808" y1="95.4617" x2="912.859" y2="97.5612" gradientUnits="userSpaceOnUse">
<stop stop-color="#40556A"/>
<stop offset="0.5" stop-color="#94A0D5"/>
<stop offset="1" stop-color="#002B35"/>
</linearGradient>
<linearGradient id="paint31_linear_0_1" x1="914.808" y1="89.4617" x2="919.859" y2="91.5612" gradientUnits="userSpaceOnUse">
<stop stop-color="#40556A"/>
<stop offset="0.5" stop-color="#94A0D5"/>
<stop offset="1" stop-color="#002B35"/>
</linearGradient>
<linearGradient id="paint32_linear_0_1" x1="934.808" y1="97.4617" x2="939.859" y2="99.5612" gradientUnits="userSpaceOnUse">
<stop stop-color="#40556A"/>
<stop offset="0.5" stop-color="#94A0D5"/>
<stop offset="1" stop-color="#002B35"/>
</linearGradient>
<linearGradient id="paint33_linear_0_1" x1="936.808" y1="107.462" x2="941.859" y2="109.561" gradientUnits="userSpaceOnUse">
<stop stop-color="#40556A"/>
<stop offset="0.5" stop-color="#94A0D5"/>
<stop offset="1" stop-color="#002B35"/>
</linearGradient>
<linearGradient id="paint34_linear_0_1" x1="936.808" y1="116.462" x2="941.859" y2="118.561" gradientUnits="userSpaceOnUse">
<stop stop-color="#40556A"/>
<stop offset="0.5" stop-color="#94A0D5"/>
<stop offset="1" stop-color="#002B35"/>
</linearGradient>
<linearGradient id="paint35_linear_0_1" x1="931.095" y1="86.7705" x2="915.703" y2="124.865" gradientUnits="userSpaceOnUse">
<stop stop-color="#40556A"/>
<stop offset="0.5" stop-color="#94A0D5"/>
<stop offset="1" stop-color="#002B35"/>
</linearGradient>
<linearGradient id="paint36_linear_0_1" x1="922.808" y1="83.4617" x2="927.859" y2="85.5612" gradientUnits="userSpaceOnUse">
<stop stop-color="#40556A"/>
<stop offset="0.5" stop-color="#94A0D5"/>
<stop offset="1" stop-color="#002B35"/>
</linearGradient>
<linearGradient id="paint37_linear_0_1" x1="933.808" y1="88.4617" x2="938.859" y2="90.5612" gradientUnits="userSpaceOnUse">
<stop stop-color="#40556A"/>
<stop offset="0.5" stop-color="#94A0D5"/>
<stop offset="1" stop-color="#002B35"/>
</linearGradient>
<linearGradient id="paint38_linear_0_1" x1="949.275" y1="70.9569" x2="941.46" y2="89.367" gradientUnits="userSpaceOnUse">
<stop stop-color="#40556A"/>
<stop offset="0.5" stop-color="#94A0D5"/>
<stop offset="1" stop-color="#002B35"/>
</linearGradient>
<linearGradient id="paint39_linear_0_1" x1="930.275" y1="64.1954" x2="922.46" y2="82.6055" gradientUnits="userSpaceOnUse">
<stop stop-color="#40556A"/>
<stop offset="0.5" stop-color="#94A0D5"/>
<stop offset="1" stop-color="#002B35"/>
</linearGradient>
<linearGradient id="paint40_linear_0_1" x1="925.813" y1="61.4636" x2="953.628" y2="72.7018" gradientUnits="userSpaceOnUse">
<stop stop-color="#40556A"/>
<stop offset="0.5" stop-color="#94A0D5"/>
<stop offset="1" stop-color="#002B35"/>
</linearGradient>
</defs>
</svg>
