<svg width="225" height="308" viewBox="0 0 225 308" fill="none" xmlns="http://www.w3.org/2000/svg">
<path d="M90.5153 122.039H88.9766V283.755H90.5153V122.039Z" fill="#F3F3F3"/>
<path d="M106.342 102.111H89.7461V106.327H106.342V102.111Z" fill="white"/>
<path d="M103.025 109.904H89.7461V114.119H103.025V109.904Z" fill="white"/>
<path d="M107.931 293.334H90.5156V298.953H107.931V293.334Z" fill="white"/>
<path d="M153.677 65.6562C153.677 65.6562 187.362 105.644 165.993 131.538C144.624 157.432 138.746 132.044 138.746 132.044C138.746 132.044 125.959 134.421 148.11 102.034C158.549 86.7669 153.677 65.6562 153.677 65.6562Z" fill="url(#paint0_linear_645_9677)"/>
<path d="M47.0075 122.039H45.4688V283.755H47.0075V122.039Z" fill="#F3F3F3"/>
<path d="M156.468 122.039H154.93V283.755H156.468V122.039Z" fill="#F3F3F3"/>
<path d="M75.836 102.111H45.0547V106.327H75.836V102.111Z" fill="white"/>
<path d="M64.7374 109.904H45.0547V114.119H64.7374V109.904Z" fill="white"/>
<path d="M175.545 102.111H156.469V106.327H175.545V102.111Z" fill="white"/>
<path d="M178.701 109.904H156.469V114.119H178.701V109.904Z" fill="white"/>
<path d="M63.6493 293.334H46.2344V298.953H63.6493V293.334Z" fill="white"/>
<path d="M173.884 293.334H156.469V298.953H173.884V293.334Z" fill="white"/>
<path d="M13.83 307.238H178.496C186.134 307.238 192.326 301.039 192.326 293.392V66.3252C192.326 58.6778 186.134 52.4785 178.496 52.4785H13.83C6.19178 52.4785 0 58.6778 0 66.3252V293.392C0 301.039 6.19178 307.238 13.83 307.238Z" fill="url(#paint1_linear_645_9677)"/>
<path d="M180.944 24.4453H20.6682C15.5399 24.4453 11.3828 28.6074 11.3828 33.7419V296.473H180.946V24.4453H180.944Z" fill="#F5F5F5"/>
<path d="M165.14 75.375H115.145V81.7059H165.14V75.375Z" fill="url(#paint2_linear_645_9677)"/>
<path d="M161.038 101.914H115.145V108.245H161.038V101.914Z" fill="url(#paint3_linear_645_9677)"/>
<path d="M154.854 88.6445H115.145V94.9754H154.854V88.6445Z" fill="url(#paint4_linear_645_9677)"/>
<path d="M61.5042 115.977C55.8245 115.977 50.3479 114.794 45.2288 112.463C31.1935 106.077 22.125 91.9811 22.125 76.55C22.125 54.8088 39.7914 37.1211 61.5065 37.1211C83.2215 37.1211 100.888 54.8088 100.888 76.55C100.888 91.9811 91.8194 106.077 77.7818 112.463C72.6581 114.794 67.1815 115.977 61.5042 115.977ZM61.5042 39.2021C40.9356 39.2021 24.2012 55.9567 24.2012 76.55C24.2012 91.1657 32.7922 104.518 46.087 110.57C50.9362 112.778 56.1221 113.898 61.5019 113.898C66.8816 113.898 72.0676 112.778 76.9167 110.57C90.2115 104.52 98.8025 91.1657 98.8025 76.55C98.8048 55.9544 82.0704 39.2021 61.5042 39.2021Z" fill="url(#paint5_linear_645_9677)"/>
<path d="M79.572 131.848H22.125V137.493H79.572V131.848Z" fill="#E0E0E0"/>
<path d="M79.572 147.037H22.125V152.682H79.572V147.037Z" fill="#E0E0E0"/>
<path d="M79.572 162.225H22.125V167.87H79.572V162.225Z" fill="#E0E0E0"/>
<path d="M100.887 131.848H91.2969V137.493H100.887V131.848Z" fill="#002B35"/>
<path d="M100.887 147.037H91.2969V152.682H100.887V147.037Z" fill="#002B35"/>
<path d="M100.887 162.225H91.2969V167.87H100.887V162.225Z" fill="#002B35"/>
<path d="M207.259 300.658H126.962C117.442 300.658 109.723 292.93 109.723 283.398V143.421C109.723 133.888 117.442 126.16 126.962 126.16H207.259C216.78 126.16 224.499 133.888 224.499 143.421V283.398C224.499 292.93 216.78 300.658 207.259 300.658Z" fill="#F5F5F5"/>
<path d="M215.929 152.114C213.117 144.24 205.599 139.403 197.677 139.641C195.76 139.699 193.817 140.055 191.912 140.736C186.142 142.803 182.004 147.404 180.304 152.841C179.125 156.608 179.118 160.777 180.548 164.782C180.691 165.18 180.846 165.572 181.009 165.956C181.761 167.69 182.749 169.258 183.923 170.637C188.839 176.423 196.996 178.869 204.565 176.16C214.335 172.663 219.422 161.897 215.929 152.114ZM202.983 171.728C197.308 173.76 191.192 171.926 187.506 167.589C186.627 166.554 185.886 165.378 185.323 164.078C185.199 163.791 185.083 163.498 184.975 163.198C183.902 160.195 183.909 157.07 184.793 154.245C186.066 150.169 189.169 146.718 193.497 145.171C194.925 144.66 196.38 144.392 197.82 144.348C203.758 144.168 209.396 147.794 211.505 153.7C214.121 161.034 210.307 169.104 202.983 171.728Z" fill="#E0E0E0"/>
<path d="M184.794 154.245L180.305 152.841C182.005 147.404 186.143 142.803 191.913 140.735C193.819 140.054 195.761 139.698 197.678 139.641L197.819 144.348C196.382 144.392 194.926 144.657 193.496 145.17C189.17 146.718 186.067 150.168 184.794 154.245Z" fill="#94A0D5"/>
<path d="M185.325 164.076L181.013 165.956C180.847 165.573 180.693 165.183 180.552 164.783C179.122 160.778 179.129 156.609 180.307 152.842L184.797 154.246C183.913 157.071 183.909 160.196 184.979 163.198C185.083 163.496 185.2 163.79 185.325 164.076Z" fill="#E76B5B"/>
<path d="M183.921 170.638C182.75 169.259 181.762 167.691 181.008 165.956L185.319 164.076C185.882 165.377 186.623 166.554 187.502 167.587L183.921 170.638Z" fill="#4A6369"/>
<path d="M198.069 261.266H187.941V294.511H198.069V261.266Z" fill="#4A6369"/>
<path d="M183.014 270.59H172.887V294.511H183.014V270.59Z" fill="#4A6369"/>
<path d="M212.678 245.855H202.551V294.509H212.678V245.855Z" fill="#4A6369"/>
<path d="M129.902 257.839L129.023 257.162L145.525 235.663L165.893 236.77L181.252 212.282L197.797 210.573L207.74 190.883L208.732 191.384L198.515 211.617L181.905 213.331L166.486 237.915L146.049 236.804L129.902 257.839Z" fill="#4A6369"/>
<path d="M161.115 150.934H132.315C130.498 150.934 129.023 149.458 129.023 147.638C129.023 145.818 130.498 144.342 132.315 144.342H161.115C162.933 144.342 164.407 145.818 164.407 147.638C164.407 149.458 162.933 150.934 161.115 150.934Z" fill="#002B35"/>
<path d="M161.115 162.434H132.315C130.498 162.434 129.023 160.958 129.023 159.138C129.023 157.318 130.498 155.842 132.315 155.842H161.115C162.933 155.842 164.407 157.318 164.407 159.138C164.407 160.958 162.933 162.434 161.115 162.434Z" fill="#E0E0E0"/>
<path d="M161.115 173.934H132.315C130.498 173.934 129.023 172.458 129.023 170.638C129.023 168.818 130.498 167.342 132.315 167.342H161.115C162.933 167.342 164.407 168.818 164.407 170.638C164.407 172.458 162.933 173.934 161.115 173.934Z" fill="#E0E0E0"/>
<path d="M93.9375 0.782988H116.891V0H93.9375V0.782988Z" fill="white"/>
<path d="M66.6346 54.9434H56.3711V98.1509H66.6346V54.9434Z" fill="url(#paint6_linear_645_9677)"/>
<path d="M39.9258 81.6857V71.4121H83.0814V81.6857H39.9258Z" fill="url(#paint7_linear_645_9677)"/>
<defs>
<linearGradient id="paint0_linear_645_9677" x1="139.834" y1="69.8635" x2="161.15" y2="139.994" gradientUnits="userSpaceOnUse">
<stop stop-color="#40D5E6"/>
<stop offset="1" stop-color="#5577FF"/>
</linearGradient>
<linearGradient id="paint1_linear_645_9677" x1="92.2837" y1="400.415" x2="99.0163" y2="18.4551" gradientUnits="userSpaceOnUse">
<stop stop-color="#D0C4DB"/>
<stop offset="1" stop-color="#DCACB6"/>
</linearGradient>
<linearGradient id="paint2_linear_645_9677" x1="115.146" y1="78.5403" x2="165.142" y2="78.5403" gradientUnits="userSpaceOnUse">
<stop stop-color="#D9B0BD"/>
<stop offset="1" stop-color="#CFC4DC"/>
</linearGradient>
<linearGradient id="paint3_linear_645_9677" x1="115.146" y1="105.081" x2="161.04" y2="105.081" gradientUnits="userSpaceOnUse">
<stop stop-color="#DDA8B0"/>
<stop offset="1" stop-color="#CCC6DF"/>
</linearGradient>
<linearGradient id="paint4_linear_645_9677" x1="115.146" y1="91.8104" x2="154.854" y2="91.8104" gradientUnits="userSpaceOnUse">
<stop stop-color="#DDABB4"/>
<stop offset="1" stop-color="#CEC5DD"/>
</linearGradient>
<linearGradient id="paint5_linear_645_9677" x1="61.5031" y1="130.266" x2="61.5031" y2="75.2961" gradientUnits="userSpaceOnUse">
<stop stop-color="#7DB3E0"/>
<stop offset="1" stop-color="white"/>
</linearGradient>
<linearGradient id="paint6_linear_645_9677" x1="59.6808" y1="48.6217" x2="64.057" y2="115.531" gradientUnits="userSpaceOnUse">
<stop offset="1" stop-color="#002B35"/>
</linearGradient>
<linearGradient id="paint7_linear_645_9677" x1="59.6816" y1="48.6225" x2="64.0577" y2="115.531" gradientUnits="userSpaceOnUse">
<stop offset="1" stop-color="#002B35"/>
</linearGradient>
</defs>
</svg>
