<svg width="330" height="370" viewBox="0 0 330 370" fill="none" xmlns="http://www.w3.org/2000/svg">
<path d="M224 0.956055H1V279.949H224V0.956055Z" fill="white" stroke="#0D0129"/>
<path d="M117 232.95H102V241.45H117V232.95Z" fill="#EBF6FF"/>
<path d="M134 80.9539H102V72.9541H134V80.9539Z" fill="#E1F9FE"/>
<path d="M90 39.9551H27V48.9549H90V39.9551Z" fill="#E9F6FF"/>
<path d="M14 28.9551H178" stroke="#0D0129"/>
<path d="M14 44.9551H190" stroke="#0D0129"/>
<path d="M14 60.9551H149" stroke="#0D0129"/>
<path d="M14 76.9541H178" stroke="#0D0129"/>
<path d="M189.5 93.9541H14.5V156.953H189.5V93.9541Z" stroke="#0D0129"/>
<path d="M14 172.952H178" stroke="#0D0129"/>
<path d="M14 188.951H172" stroke="#0D0129"/>
<path d="M14 204.951H165" stroke="#0D0129"/>
<path d="M14 220.951H149" stroke="#0D0129"/>
<path d="M14 236.95H165" stroke="#0D0129"/>
<path d="M14 252.95H172" stroke="#0D0129"/>
<path d="M96 129.688L145.531 80H328.747V318.552L278.458 369H96V129.688Z" fill="white"/>
<path d="M329 80H328.747M328.747 80H145.531L96 129.688V369H278.458L328.747 318.552V80Z" stroke="#0D0129"/>
<path d="M182 102.5H292" stroke="#0D0129"/>
<path d="M182 110.5H248" stroke="#0D0129"/>
<path d="M96 268.5H329" stroke="#0D0129"/>
<path d="M189.281 297.139V296.719C189.281 295.319 188.161 294.199 186.761 294.199H185.641C184.241 294.199 183.121 295.319 183.121 296.719V301.479C183.121 302.879 184.255 303.999 185.641 303.999H186.761C188.161 303.999 189.281 302.879 189.281 301.479V300.303C189.281 298.903 188.147 297.783 186.761 297.783H185.683L184.521 298.567V296.719C184.521 296.089 185.011 295.599 185.641 295.599H186.761C187.391 295.599 187.881 296.089 187.881 296.719V297.139H189.281ZM186.117 299.183H186.761C187.377 299.183 187.881 299.687 187.881 300.303V301.479C187.881 302.109 187.391 302.599 186.761 302.599H185.641C185.025 302.599 184.521 302.095 184.521 301.479V300.261L186.117 299.183ZM197.676 298.539H196.276V295.039H194.876V298.539H192.916V294.199H191.516V299.939H194.876V303.999H196.276V299.939H197.676V298.539ZM200.932 297.923C201.954 297.923 202.78 297.097 202.78 296.061C202.78 295.025 201.954 294.199 200.932 294.199C199.896 294.199 199.07 295.025 199.07 296.061C199.07 297.097 199.896 297.923 200.932 297.923ZM201.31 303.999V302.263L206.07 296.439V294.199H204.67V295.935L199.91 301.759V303.999H201.31ZM200.932 296.523C200.68 296.523 200.47 296.313 200.47 296.061C200.47 295.809 200.68 295.599 200.932 295.599C201.184 295.599 201.38 295.809 201.38 296.061C201.38 296.313 201.184 296.523 200.932 296.523ZM205.062 303.999C206.084 303.999 206.91 303.173 206.91 302.137C206.91 301.101 206.084 300.275 205.062 300.275C204.026 300.275 203.2 301.101 203.2 302.137C203.2 303.173 204.026 303.999 205.062 303.999ZM205.062 302.599C204.81 302.599 204.6 302.389 204.6 302.137C204.6 301.885 204.81 301.675 205.062 301.675C205.314 301.675 205.51 301.885 205.51 302.137C205.51 302.389 205.314 302.599 205.062 302.599Z" fill="#0D0129"/>
<path d="M216 294.5H242" stroke="#0D0129"/>
<path d="M216 302.5H237" stroke="#0D0129"/>
<path d="M257.901 302.599V294.199H256.501L254.121 295.599V297.223L256.501 295.823V302.599H254.121V303.999H256.501H260.281V302.599H257.901ZM266.296 302.599V294.199H264.896L262.516 295.599V297.223L264.896 295.823V302.599H262.516V303.999H264.896H268.676V302.599H266.296ZM271.932 297.923C272.954 297.923 273.78 297.097 273.78 296.061C273.78 295.025 272.954 294.199 271.932 294.199C270.896 294.199 270.07 295.025 270.07 296.061C270.07 297.097 270.896 297.923 271.932 297.923ZM272.31 303.999V302.263L277.07 296.439V294.199H275.67V295.935L270.91 301.759V303.999H272.31ZM271.932 296.523C271.68 296.523 271.47 296.313 271.47 296.061C271.47 295.809 271.68 295.599 271.932 295.599C272.184 295.599 272.38 295.809 272.38 296.061C272.38 296.313 272.184 296.523 271.932 296.523ZM276.062 303.999C277.084 303.999 277.91 303.173 277.91 302.137C277.91 301.101 277.084 300.275 276.062 300.275C275.026 300.275 274.2 301.101 274.2 302.137C274.2 303.173 275.026 303.999 276.062 303.999ZM276.062 302.599C275.81 302.599 275.6 302.389 275.6 302.137C275.6 301.885 275.81 301.675 276.062 301.675C276.314 301.675 276.51 301.885 276.51 302.137C276.51 302.389 276.314 302.599 276.062 302.599Z" fill="#0D0129"/>
<path d="M287 294.5H313" stroke="#0D0129"/>
<path d="M287 302.5H308" stroke="#0D0129"/>
<path d="M186.901 332.599V324.199H185.501L183.121 325.599V327.223L185.501 325.823V332.599H183.121V333.999H185.501H189.281V332.599H186.901ZM195.156 324.199H194.036C192.65 324.199 191.516 325.319 191.516 326.719V331.465C191.516 332.851 192.65 333.999 194.036 333.999H195.156C196.556 333.999 197.676 332.851 197.676 331.465V326.719C197.676 325.319 196.556 324.199 195.156 324.199ZM195.156 325.599C195.786 325.599 196.276 326.089 196.276 326.719V330.485L193.392 325.795C193.574 325.669 193.798 325.599 194.036 325.599H195.156ZM194.036 332.585C193.42 332.585 192.916 332.081 192.916 331.465V327.713L195.786 332.389C195.604 332.515 195.394 332.585 195.156 332.585H194.036ZM200.932 327.923C201.954 327.923 202.78 327.097 202.78 326.061C202.78 325.025 201.954 324.199 200.932 324.199C199.896 324.199 199.07 325.025 199.07 326.061C199.07 327.097 199.896 327.923 200.932 327.923ZM201.31 333.999V332.263L206.07 326.439V324.199H204.67V325.935L199.91 331.759V333.999H201.31ZM200.932 326.523C200.68 326.523 200.47 326.313 200.47 326.061C200.47 325.809 200.68 325.599 200.932 325.599C201.184 325.599 201.38 325.809 201.38 326.061C201.38 326.313 201.184 326.523 200.932 326.523ZM205.062 333.999C206.084 333.999 206.91 333.173 206.91 332.137C206.91 331.101 206.084 330.275 205.062 330.275C204.026 330.275 203.2 331.101 203.2 332.137C203.2 333.173 204.026 333.999 205.062 333.999ZM205.062 332.599C204.81 332.599 204.6 332.389 204.6 332.137C204.6 331.885 204.81 331.675 205.062 331.675C205.314 331.675 205.51 331.885 205.51 332.137C205.51 332.389 205.314 332.599 205.062 332.599Z" fill="#0D0129"/>
<path d="M216 324.5H242" stroke="#0D0129"/>
<path d="M216 332.5H237" stroke="#0D0129"/>
<path d="M257.901 332.599V324.199H256.501L254.121 325.599V327.223L256.501 325.823V332.599H254.121V333.999H256.501H260.281V332.599H257.901ZM266.156 324.199H265.036C263.636 324.199 262.516 325.319 262.516 326.719V327.895C262.516 329.295 263.65 330.415 265.036 330.415H266.114L267.276 329.631V331.479C267.276 332.109 266.786 332.599 266.156 332.599H265.036C264.406 332.599 263.916 332.109 263.916 331.479V331.059H262.516V331.479C262.516 332.879 263.636 333.999 265.036 333.999H266.156C267.556 333.999 268.676 332.879 268.676 331.479V326.719C268.676 325.319 267.542 324.199 266.156 324.199ZM265.68 329.015H265.036C264.42 329.015 263.916 328.511 263.916 327.895V326.719C263.916 326.089 264.406 325.599 265.036 325.599H266.156C266.772 325.599 267.276 326.103 267.276 326.719V327.937L265.68 329.015ZM271.932 327.923C272.954 327.923 273.78 327.097 273.78 326.061C273.78 325.025 272.954 324.199 271.932 324.199C270.896 324.199 270.07 325.025 270.07 326.061C270.07 327.097 270.896 327.923 271.932 327.923ZM272.31 333.999V332.263L277.07 326.439V324.199H275.67V325.935L270.91 331.759V333.999H272.31ZM271.932 326.523C271.68 326.523 271.47 326.313 271.47 326.061C271.47 325.809 271.68 325.599 271.932 325.599C272.184 325.599 272.38 325.809 272.38 326.061C272.38 326.313 272.184 326.523 271.932 326.523ZM276.062 333.999C277.084 333.999 277.91 333.173 277.91 332.137C277.91 331.101 277.084 330.275 276.062 330.275C275.026 330.275 274.2 331.101 274.2 332.137C274.2 333.173 275.026 333.999 276.062 333.999ZM276.062 332.599C275.81 332.599 275.6 332.389 275.6 332.137C275.6 331.885 275.81 331.675 276.062 331.675C276.314 331.675 276.51 331.885 276.51 332.137C276.51 332.389 276.314 332.599 276.062 332.599Z" fill="#0D0129"/>
<path d="M287 325H309" stroke="#0D0129"/>
<path d="M287 333H301" stroke="#0D0129"/>
<path d="M238.5 153.5H181.5V248.5H238.5V153.5Z" fill="white" stroke="#0D0129"/>
<path d="M202 204H185V213H202V204Z" fill="#EBF6FF"/>
<path d="M223 164H205V173H223V164Z" fill="#EBF6FF"/>
<path d="M189 160.5H227" stroke="#0D0129"/>
<path d="M189 168.5H219" stroke="#0D0129"/>
<path d="M189 176.5H225" stroke="#0D0129"/>
<path d="M189 184.5H219" stroke="#0D0129"/>
<path d="M189 192.5H222" stroke="#0D0129"/>
<path d="M189 200.5H225" stroke="#0D0129"/>
<path d="M189 216.5H219" stroke="#0D0129"/>
<path d="M189 224.5H225" stroke="#0D0129"/>
<path d="M189 232.5H222" stroke="#0D0129"/>
<path d="M189 240.5H222" stroke="#0D0129"/>
<path d="M189 248.5H222" stroke="#0D0129"/>
<path d="M305.5 153.5H248.5V248.5H305.5V153.5Z" fill="white" stroke="#0D0129"/>
<path d="M296 196H279V205H296V196Z" fill="#EBF6FF"/>
<path d="M270 172H252V181H270V172Z" fill="#EBF6FF"/>
<path d="M256 160.5H294" stroke="#0D0129"/>
<path d="M256 168.5H286" stroke="#0D0129"/>
<path d="M256 176.5H292" stroke="#0D0129"/>
<path d="M256 184.5H286" stroke="#0D0129"/>
<path d="M256 192.5H289" stroke="#0D0129"/>
<path d="M256 200.5H292" stroke="#0D0129"/>
<path d="M256 208.5H281" stroke="#0D0129"/>
<path d="M256 216.5H286" stroke="#0D0129"/>
<path d="M256 224.5H292" stroke="#0D0129"/>
<path d="M256 232.5H289" stroke="#0D0129"/>
<path d="M171.5 153.5H114.5V248.5H171.5V153.5Z" fill="white" stroke="#0D0129"/>
<path d="M159 228H142V237H159V228Z" fill="#EBF6FF"/>
<path d="M122 160.5H160" stroke="#0D0129"/>
<path d="M122 168.5H152" stroke="#0D0129"/>
<path d="M122 176.5H158" stroke="#0D0129"/>
<path d="M122 184.5H152" stroke="#0D0129"/>
<path d="M122 192.5H155" stroke="#0D0129"/>
<path d="M122 200.5H158" stroke="#0D0129"/>
<path d="M122 208.5H147" stroke="#0D0129"/>
<path d="M122 216.5H152" stroke="#0D0129"/>
<path d="M122 224.5H158" stroke="#0D0129"/>
<path d="M122 232.5H155" stroke="#0D0129"/>
<path d="M122 240.5H155" stroke="#0D0129"/>
</svg>
