<svg width="590" height="747" viewBox="0 0 590 747" fill="none" xmlns="http://www.w3.org/2000/svg">
<path fill-rule="evenodd" clip-rule="evenodd" d="M590 0.999484C590 0.99562 590.007 0.992721 589.37 0.494257C588.732 -0.0042098 588.732 -0.00324575 588.732 0.000618337L588.725 0.0160814L588.695 0.0788748C588.673 0.13587 588.629 0.220865 588.577 0.332924C588.473 0.558978 588.31 0.895163 588.102 1.3405C587.68 2.23117 587.042 3.55364 586.197 5.28089C584.514 8.73345 581.986 13.8002 578.643 20.2513C571.948 33.1525 561.977 51.5881 548.841 73.7138C522.583 117.965 483.707 176.967 433.259 235.968C332.341 353.977 185.17 471.913 0.00592745 471.913V473.845C185.674 473.845 333.186 355.588 434.245 237.405C484.782 178.31 523.717 119.216 550.02 74.8953C563.171 52.7347 573.164 34.2654 579.873 21.3333C583.224 14.8667 585.752 9.78543 587.45 6.31841C588.295 4.58537 588.932 3.25514 589.362 2.35771C589.577 1.90948 589.733 1.56945 589.844 1.3405C589.896 1.22554 589.933 1.13956 589.963 1.0816L589.993 1.01591L590 0.999484ZM589.933 143.13C589.933 143.127 589.933 143.126 589.37 142.499C588.806 141.874 588.806 141.874 588.806 141.876L588.799 141.887L588.769 141.931L588.718 142.01L588.651 142.11C588.606 142.179 588.547 142.261 588.488 142.357L588.384 142.512C588.317 142.606 588.25 142.709 588.176 142.822C587.754 143.451 587.116 144.386 586.271 145.607C584.588 148.048 582.068 151.632 578.717 156.195C572.03 165.32 562.059 178.361 548.93 194.013C522.672 225.317 483.803 267.061 433.355 308.806C332.452 392.296 185.244 475.777 0.00592745 475.777V477.709C185.6 477.709 333.074 394.068 434.148 310.437C484.685 268.621 523.621 226.804 549.931 195.437C563.082 179.754 573.083 166.683 579.792 157.529C583.15 152.952 585.678 149.354 587.376 146.9C588.221 145.672 588.866 144.73 589.288 144.094C589.503 143.777 589.666 143.535 589.77 143.373C589.822 143.292 589.867 143.231 589.889 143.189L589.926 143.143L589.933 143.13ZM589.37 241.034C589.844 241.773 589.844 241.775 589.844 241.777L589.837 241.785L589.807 241.819L589.726 241.906L589.681 241.95C589.578 242.067 589.414 242.24 589.199 242.468C588.777 242.924 588.132 243.599 587.287 244.48C585.589 246.241 583.054 248.82 579.703 252.1C572.986 258.663 562.993 268.033 549.834 279.275C523.532 301.759 484.589 331.731 434.06 361.699C332.993 421.639 185.548 481.573 0.00592745 481.573V479.641C185.296 479.641 332.533 419.788 433.444 359.941C483.9 330.018 522.768 300.095 549.026 277.659C562.148 266.441 572.119 257.095 578.813 250.556C582.157 247.286 584.677 244.718 586.36 242.969C587.205 242.094 587.843 241.424 588.265 240.974C588.354 240.877 588.436 240.79 588.503 240.714C588.599 240.613 588.673 240.529 588.74 240.464C588.792 240.408 588.829 240.364 588.851 240.336L588.881 240.304L588.888 240.297C588.888 240.297 588.888 240.296 588.903 240.318C588.91 240.328 588.925 240.344 588.94 240.367C588.97 240.41 589.007 240.477 589.081 240.586L589.37 241.034ZM589.689 349.135C589.689 349.135 589.689 349.135 589.689 349.133C589.689 349.132 589.689 349.128 589.681 349.119C589.674 349.103 589.666 349.07 589.637 349.002C589.6 348.886 589.518 348.669 589.37 348.262C589.222 347.868 589.148 347.653 589.103 347.535C589.081 347.48 589.066 347.446 589.058 347.425C589.051 347.404 589.051 347.397 589.051 347.394C589.051 347.392 589.051 347.392 589.051 347.392L589.044 347.397L589.014 347.415L588.895 347.487C588.792 347.552 588.629 347.649 588.421 347.777C587.998 348.033 587.361 348.415 586.516 348.912C584.833 349.906 582.312 351.367 578.961 353.226C572.275 356.946 562.304 362.261 549.175 368.639C522.909 381.399 484.033 398.414 433.563 415.431C332.63 449.465 185.355 483.505 0.00592745 483.505V485.437C185.496 485.437 332.896 451.372 433.933 417.302C484.456 400.267 523.383 383.23 549.686 370.45C562.845 364.059 572.838 358.734 579.547 355.004C582.898 353.139 585.433 351.672 587.131 350.672C587.976 350.172 588.614 349.787 589.044 349.529C589.259 349.399 589.422 349.301 589.526 349.235L589.652 349.159L589.681 349.14L589.689 349.135ZM589.37 434.238C589.474 434.929 589.496 435.117 589.503 435.168C589.503 435.188 589.503 435.188 589.503 435.188L589.496 435.189L589.466 435.197L589.348 435.227C589.236 435.253 589.081 435.292 588.866 435.343L588.666 435.391L588.421 435.45C588.288 435.482 588.139 435.518 587.976 435.556C587.68 435.626 587.339 435.706 586.953 435.796C585.263 436.193 582.735 436.775 579.377 437.515C572.675 438.996 562.682 441.109 549.538 443.646C523.25 448.72 484.33 455.484 433.83 462.248C332.815 475.775 185.452 489.301 0.00592745 489.301V487.369C185.4 487.369 332.711 473.847 433.674 460.325C484.159 453.565 523.05 446.805 549.323 441.735C562.459 439.2 572.438 437.089 579.132 435.61C582.475 434.871 585.003 434.29 586.694 433.895C587.539 433.697 588.176 433.545 588.599 433.443C588.806 433.393 588.97 433.354 589.073 433.328L589.192 433.299L589.222 433.291L589.229 433.289C589.229 433.289 589.229 433.289 589.236 433.308C589.236 433.326 589.244 433.361 589.251 433.429L589.273 433.582C589.296 433.722 589.325 433.931 589.37 434.238ZM589.362 486.403C589.362 486.403 589.362 486.403 589.37 487.369C589.377 488.335 589.377 488.335 589.37 488.335H589.362H589.355L589.333 488.336H589.311H589.288H589.251L589.214 488.337H589.17L589.125 488.338H589.073L589.014 488.339H588.955L588.888 488.34L588.814 488.341L588.74 488.342H588.658L588.569 488.343L588.473 488.344L588.377 488.345L588.28 488.346L588.169 488.347L588.058 488.349L587.939 488.35L587.82 488.351L587.694 488.352L587.561 488.354L587.428 488.354L587.287 488.355L587.138 488.357L586.99 488.358L586.827 488.36L586.671 488.362L586.501 488.363L586.33 488.365L586.16 488.367L585.975 488.369L585.789 488.371L585.604 488.373L585.404 488.375L585.204 488.377L585.003 488.379L584.788 488.381L584.573 488.383L584.358 488.384L584.129 488.386L583.899 488.389L583.669 488.391L583.432 488.394L583.187 488.396L582.935 488.399L582.683 488.401L582.424 488.404L582.164 488.407L581.89 488.409L581.623 488.411L581.341 488.414L581.06 488.417L580.77 488.42L580.481 488.423L580.185 488.426L579.881 488.429L579.569 488.432L579.258 488.435L578.947 488.438L578.62 488.441L578.294 488.444L577.968 488.447L577.635 488.451L577.293 488.454L576.945 488.458L576.597 488.461L576.241 488.465L575.878 488.468L575.514 488.471L575.144 488.475L574.773 488.479L574.395 488.483L574.009 488.487L573.624 488.49L573.231 488.494L572.831 488.498L572.43 488.502L572.023 488.506L571.607 488.51L571.192 488.514L570.77 488.519L570.347 488.523L569.917 488.526L569.48 488.531L569.035 488.535L568.59 488.54L568.145 488.544L567.686 488.549L567.226 488.553L566.766 488.557L566.292 488.562L565.825 488.567L565.343 488.572L564.861 488.577L564.372 488.582L563.883 488.586L563.386 488.591L562.882 488.596L562.378 488.601L561.866 488.606L561.347 488.611L560.828 488.616L560.302 488.621L559.768 488.627L559.234 488.632L558.701 488.637L558.152 488.642L557.604 488.648L557.055 488.653L556.492 488.659L555.928 488.665L555.365 488.669L554.794 488.675L554.216 488.681L553.637 488.687L553.052 488.693L552.459 488.698L551.866 488.704L551.265 488.71L550.657 488.716L550.049 488.722L549.434 488.728L548.819 488.734L548.196 488.74L547.566 488.747L546.936 488.753L546.298 488.759L545.661 488.765L545.008 488.772L544.363 488.778L543.703 488.784L543.044 488.791L542.384 488.798L541.709 488.804L541.042 488.81L540.36 488.817L539.678 488.824L538.989 488.831L538.299 488.837L537.602 488.844L536.898 488.851L536.194 488.859L535.489 488.866L534.77 488.872L534.051 488.879L533.325 488.887L532.598 488.894L531.864 488.901L531.13 488.908L530.389 488.916L529.64 488.923L528.892 488.93L528.135 488.938L527.372 488.945L526.608 488.952L525.837 488.96L525.066 488.968L524.288 488.976L523.509 488.983L522.716 488.991L521.93 488.999L521.13 489.007L520.329 489.014L519.521 489.022L518.713 489.03L517.897 489.038L517.082 489.046L516.259 489.054L515.429 489.063L514.599 489.07L513.761 489.079L512.923 489.087L512.078 489.095L511.225 489.104L510.373 489.112L509.513 489.121L508.646 489.129L507.778 489.138L506.911 489.147L506.029 489.155L505.146 489.164L504.264 489.173L503.375 489.181L502.478 489.19L501.581 489.199L500.676 489.208L499.764 489.216L498.853 489.226L497.941 489.235L497.014 489.243L496.095 489.253L495.161 489.262L494.227 489.271L493.285 489.28L492.344 489.29L491.395 489.299L490.446 489.308L489.489 489.318L488.526 489.327L487.562 489.337L486.591 489.347L485.62 489.355L484.641 489.365L483.655 489.375L482.669 489.384L481.676 489.395L480.682 489.405L479.681 489.414L478.673 489.424L477.665 489.434L476.657 489.444L475.634 489.454L474.611 489.464L473.588 489.474L472.557 489.484L471.519 489.494L470.481 489.505L469.436 489.515L468.391 489.525L467.338 489.536L466.278 489.546L465.218 489.556L464.15 489.567L463.083 489.577L462.008 489.588L460.933 489.599L459.851 489.609L458.761 489.62L457.671 489.631L456.574 489.641L455.469 489.652L454.365 489.663L453.26 489.674L452.148 489.685L451.029 489.696L449.909 489.707L448.782 489.718L447.648 489.729L446.514 489.74L445.38 489.751L444.238 489.763L443.089 489.774L441.94 489.785L440.783 489.797L439.62 489.808L438.456 489.82L437.292 489.831L436.113 489.842L434.942 489.854L433.756 489.865L432.569 489.877L431.383 489.89L430.19 489.901L428.989 489.913L427.788 489.924L426.579 489.936L425.371 489.948L424.155 489.96L422.932 489.973L421.709 489.984L420.486 489.997L419.248 490.008L418.017 490.021L416.772 490.032L415.526 490.045L414.281 490.058L413.028 490.069L411.768 490.082L410.507 490.094L409.247 490.107L407.972 490.119L406.697 490.132L405.422 490.145L404.139 490.157L402.849 490.17L401.559 490.182L400.269 490.195L398.965 490.208L397.667 490.221L396.355 490.233L395.043 490.246L393.731 490.259L392.411 490.272L391.084 490.286L389.757 490.298L388.423 490.312L387.088 490.324L385.746 490.338L384.405 490.351L383.055 490.365L381.706 490.377L380.35 490.391L378.985 490.404L377.621 490.418L376.25 490.431L374.879 490.445L373.5 490.458L372.121 490.472L370.734 490.486L369.341 490.499L367.947 490.513L366.553 490.527L365.145 490.541L363.744 490.554L362.328 490.569L360.919 490.582L359.496 490.596L358.072 490.61L356.649 490.624L355.218 490.638L353.78 490.653L352.342 490.666L350.904 490.681L349.458 490.695L348.005 490.709L346.552 490.723L345.091 490.738L343.624 490.752L342.156 490.767L340.688 490.781L339.213 490.796L337.73 490.81L336.247 490.825L334.765 490.839L333.275 490.854L331.777 490.869L330.28 490.884L328.775 490.898L327.262 490.913L325.757 490.928L324.238 490.942L322.718 490.958L321.198 490.972L319.671 490.988L318.136 491.002L316.602 491.018L315.06 491.033L313.518 491.048L311.969 491.063L310.419 491.079L308.862 491.094L307.306 491.11L305.741 491.125L304.177 491.141L302.605 491.156L301.026 491.171L299.447 491.187L297.868 491.202L296.282 491.218L294.688 491.233L293.094 491.249L291.493 491.265L289.891 491.281L288.283 491.296L286.674 491.312L285.058 491.328L283.442 491.344L281.818 491.36L280.187 491.376L278.564 491.392L276.925 491.408L275.287 491.424L273.649 491.44L272.003 491.456L270.35 491.473L268.697 491.489L267.036 491.506L265.375 491.522L263.707 491.539L262.039 491.555L260.371 491.571L258.688 491.588L257.013 491.604L255.323 491.621L253.633 491.637L251.942 491.653L250.245 491.671L248.547 491.687L246.842 491.704L245.137 491.721L243.424 491.738L241.704 491.755L239.985 491.771L238.265 491.789L236.537 491.805L234.803 491.823L233.068 491.84L231.326 491.856L229.584 491.874L227.841 491.891L226.092 491.909L224.335 491.925L222.578 491.942L220.814 491.96L219.049 491.977L217.277 491.994L215.506 492.012L213.726 492.029L211.947 492.047L210.16 492.065L208.374 492.082L206.58 492.1L204.786 492.117L202.984 492.135L201.183 492.153L199.374 492.171L197.565 492.189L195.749 492.206L193.933 492.224L192.109 492.242L190.278 492.26L188.447 492.278L186.616 492.296L184.777 492.314L182.939 492.333L181.093 492.351L179.239 492.368L177.393 492.387L175.533 492.405L173.672 492.423L171.811 492.442L169.943 492.46L168.067 492.478L166.192 492.497L164.316 492.515L162.433 492.534L160.55 492.553L158.66 492.571L156.762 492.59L154.864 492.609L152.966 492.627L151.059 492.646L149.15 492.665L147.238 492.683L145.322 492.703L143.402 492.721L141.478 492.74L139.552 492.76L137.621 492.778L135.686 492.797L133.748 492.817L131.806 492.835L129.86 492.854L127.911 492.874L125.959 492.893L124.002 492.912L122.042 492.932L120.078 492.951L118.11 492.97L116.14 492.989L114.165 493.009L112.186 493.028L110.204 493.047L108.218 493.068L106.229 493.087L104.236 493.106L102.239 493.126L100.239 493.146L98.2347 493.165L96.2272 493.186L94.2159 493.205L92.201 493.225L90.1823 493.245L88.1607 493.265L86.1346 493.284L84.1056 493.304L82.0728 493.325L80.0363 493.344L77.9962 493.364L75.9523 493.385L73.9055 493.405L71.8542 493.425L69.8 493.445L67.742 493.466L65.6803 493.486L63.6157 493.506L61.5466 493.527L59.4746 493.547L57.3981 493.567L55.3187 493.587L53.2362 493.608L51.1494 493.629L49.0595 493.649L46.9653 493.67L44.868 493.69L42.7678 493.711L40.6632 493.731L38.5555 493.753L36.4442 493.773L34.3292 493.794L32.2104 493.814L30.0887 493.836L27.9633 493.857L25.8342 493.877L23.7013 493.898L21.5655 493.92L19.4253 493.94L17.2828 493.961L15.1359 493.983L12.986 494.004L10.8324 494.025L8.67512 494.046L6.51413 494.068L4.35016 494.089L2.18248 494.11L0.0111309 494.131L0 492.199L2.17139 492.178L4.33903 492.157L6.503 492.135L8.66403 492.114L10.8206 492.093L12.9741 492.072L15.1248 492.051L17.271 492.029L19.4142 492.009L21.5544 491.988L23.6902 491.966L25.823 491.945L27.9522 491.925L30.0776 491.904L32.1993 491.882L34.318 491.862L36.4331 491.841L38.5444 491.821L40.652 491.799L42.7567 491.779L44.8569 491.759L46.9541 491.738L49.0484 491.717L51.1383 491.697L53.2251 491.676L55.3075 491.655L57.387 491.635L59.4635 491.615L61.5355 491.595L63.6039 491.574L65.6692 491.554L67.7309 491.534L69.7888 491.513L71.8431 491.493L73.8944 491.473L75.9412 491.453L77.9851 491.432L80.0253 491.412L82.0617 491.393L84.0944 491.372L86.1235 491.352L88.1496 491.333L90.1712 491.312L92.1899 491.293L94.2048 491.273L96.2161 491.254L98.2236 491.233L100.227 491.214L102.228 491.194L104.224 491.174L106.217 491.155L108.206 491.136L110.193 491.115L112.175 491.096L114.153 491.077L116.128 491.057L118.099 491.038L120.066 491.019L122.03 490.999L123.991 490.98L125.947 490.961L127.9 490.941L129.849 490.922L131.795 490.903L133.737 490.885L135.675 490.865L137.609 490.846L139.541 490.828L141.467 490.808L143.391 490.789L145.31 490.771L147.227 490.751L149.139 490.733L151.048 490.714L152.951 490.695L154.857 490.677L156.755 490.657L158.645 490.639L160.535 490.621L162.418 490.602L164.301 490.583L166.184 490.565L168.06 490.546L169.928 490.528L171.796 490.51L173.664 490.491L175.525 490.473L177.379 490.455L179.232 490.437L181.078 490.419L182.924 490.401L184.77 490.382L186.608 490.364L188.439 490.346L190.27 490.328L192.094 490.311L193.918 490.292L195.734 490.274L197.55 490.257L199.367 490.239L201.168 490.221L202.977 490.203L204.771 490.185L206.572 490.168L208.367 490.15L210.153 490.133L211.94 490.116L213.719 490.097L215.498 490.08L217.27 490.062L219.034 490.045L220.806 490.028L222.563 490.01L224.32 489.993L226.077 489.976L227.827 489.959L229.576 489.942L231.318 489.924L233.06 489.908L234.795 489.89L236.523 489.873L238.25 489.857L239.977 489.839L241.697 489.823L243.41 489.805L245.122 489.789L246.827 489.772L248.532 489.755L250.237 489.739L251.935 489.721L253.625 489.705L255.315 489.689L256.998 489.672L258.681 489.656L260.356 489.639L262.032 489.623L263.7 489.606L265.368 489.59L267.029 489.574L268.682 489.557L270.335 489.541L271.988 489.524L273.634 489.508L275.28 489.492L276.918 489.476L278.549 489.46L280.18 489.444L281.803 489.428L283.427 489.412L285.051 489.396L286.659 489.38L288.275 489.364L289.877 489.349L291.485 489.333L293.079 489.317L294.673 489.301L296.267 489.286L297.853 489.27L299.44 489.255L301.019 489.239L302.591 489.224L304.162 489.208L305.734 489.193L307.291 489.178L308.855 489.162L310.412 489.147L311.961 489.131L313.51 489.117L315.052 489.101L316.587 489.086L318.129 489.071L319.656 489.056L321.183 489.04L322.711 489.026L324.23 489.01L325.743 488.996L327.255 488.981L328.76 488.966L330.265 488.952L331.762 488.937L333.26 488.922L334.75 488.907L336.24 488.893L337.723 488.878L339.205 488.864L340.681 488.849L342.148 488.835L343.616 488.82L345.077 488.806L346.537 488.791L347.99 488.777L349.443 488.763L350.889 488.749L352.334 488.734L353.773 488.721L355.211 488.706L356.642 488.692L358.065 488.678L359.488 488.664L360.904 488.65L362.32 488.637L363.729 488.622L365.137 488.609L366.538 488.595L367.94 488.581L369.333 488.567L370.72 488.553L372.106 488.54L373.485 488.526L374.864 488.513L376.243 488.499L377.607 488.486L378.971 488.472L380.335 488.459L381.691 488.445L383.048 488.433L384.39 488.419L385.739 488.406L387.081 488.393L388.415 488.38L389.75 488.366L391.077 488.354L392.396 488.34L393.716 488.327L395.035 488.315L396.348 488.301L397.652 488.289L398.957 488.276L400.254 488.263L401.552 488.25L402.842 488.238L404.124 488.225L405.407 488.212L406.689 488.2L407.964 488.187L409.232 488.175L410.5 488.162L411.76 488.15L413.013 488.137L414.273 488.126L415.519 488.113L416.764 488.1L418.002 488.089L419.24 488.076L420.471 488.065L421.701 488.052L422.925 488.041L424.14 488.028L425.356 488.016L426.572 488.005L427.773 487.992L428.981 487.981L430.175 487.969L431.368 487.957L432.562 487.946L433.748 487.933L434.927 487.922L436.106 487.91L437.277 487.899L438.448 487.888L439.612 487.876L440.769 487.865L441.925 487.853L443.074 487.842L444.223 487.831L445.365 487.819L446.507 487.809L447.641 487.797L448.768 487.786L449.894 487.775L451.021 487.764L452.133 487.753L453.245 487.742L454.357 487.731L455.462 487.72L456.559 487.709L457.656 487.699L458.746 487.688L459.836 487.677L460.918 487.667L462.001 487.656L463.076 487.645L464.143 487.635L465.211 487.624L466.271 487.614L467.323 487.604L468.376 487.593L469.429 487.583L470.474 487.573L471.512 487.562L472.542 487.552L473.573 487.542L474.603 487.532L475.626 487.522L476.642 487.512L477.658 487.501L478.666 487.492L479.667 487.482L480.667 487.473L481.668 487.463L482.662 487.452L483.648 487.443L484.626 487.433L485.605 487.423L486.583 487.415L487.555 487.405L488.518 487.395L489.475 487.386L490.431 487.376L491.387 487.367L492.336 487.358L493.278 487.348L494.219 487.339L495.153 487.33L496.08 487.321L497.007 487.311L497.926 487.302L498.845 487.294L499.757 487.284L500.661 487.275L501.566 487.267L502.47 487.258L503.36 487.249L504.249 487.241L505.139 487.232L506.021 487.223L506.896 487.215L507.771 487.206L508.638 487.197L509.498 487.189L510.358 487.18L511.211 487.172L512.063 487.163L512.908 487.156L513.753 487.147L514.591 487.138L515.421 487.131L516.244 487.123L517.067 487.114L517.89 487.106L518.706 487.099L519.514 487.09L520.322 487.082L521.122 487.075L521.916 487.067L522.709 487.059L523.495 487.051L524.28 487.044L525.059 487.036L525.83 487.028L526.601 487.02L527.364 487.013L528.121 487.006L528.877 486.998L529.633 486.99L530.374 486.984L531.116 486.976L531.857 486.969L532.591 486.961L533.317 486.955L534.044 486.947L534.763 486.94L535.475 486.934L536.186 486.927L536.891 486.919L537.595 486.912L538.284 486.905L538.981 486.899L539.671 486.892L540.353 486.885L541.027 486.878L541.702 486.872L542.369 486.866L543.036 486.859L543.696 486.852L544.348 486.846L545.001 486.84L545.646 486.833L546.291 486.827L546.921 486.82L547.558 486.815L548.181 486.808L548.804 486.802L549.427 486.796L550.042 486.79L550.65 486.784L551.25 486.778L551.851 486.772L552.444 486.766L553.037 486.761L553.623 486.755L554.201 486.749L554.779 486.743L555.35 486.737L555.921 486.733L556.484 486.727L557.04 486.721L557.596 486.716L558.145 486.71L558.686 486.705L559.227 486.7L559.761 486.695L560.287 486.689L560.814 486.684L561.34 486.679L561.851 486.674L562.363 486.669L562.867 486.664L563.371 486.659L563.868 486.654L564.365 486.649L564.846 486.645L565.336 486.64L565.81 486.635L566.285 486.63L566.752 486.625L567.219 486.621L567.678 486.617L568.131 486.612L568.583 486.608L569.028 486.603L569.465 486.599L569.902 486.594L570.332 486.591L570.762 486.587L571.185 486.582L571.6 486.578L572.008 486.574L572.415 486.57L572.823 486.566L573.216 486.563L573.609 486.559L574.002 486.555L574.38 486.551L574.758 486.547L575.136 486.543L575.507 486.539L575.87 486.536L576.226 486.533L576.582 486.529L576.93 486.526L577.279 486.522L577.62 486.519L577.953 486.515L578.287 486.512L578.613 486.509L578.932 486.506L579.251 486.503L579.562 486.5L579.866 486.497L580.17 486.494L580.466 486.491L580.763 486.488L581.045 486.485L581.334 486.482L581.608 486.479L581.882 486.477L582.149 486.475L582.416 486.472L582.668 486.469L582.928 486.467L583.172 486.464L583.417 486.462L583.654 486.459L583.891 486.457L584.121 486.455L584.344 486.452L584.566 486.45L584.781 486.449L584.989 486.447L585.196 486.445L585.396 486.443L585.589 486.441L585.782 486.439L585.967 486.437L586.145 486.435L586.323 486.433L586.493 486.431L586.657 486.43L586.82 486.428L586.975 486.427L587.124 486.425L587.272 486.423L587.413 486.422L587.554 486.422L587.68 486.42L587.806 486.419L587.932 486.418L588.05 486.417L588.161 486.415L588.265 486.414L588.369 486.413L588.465 486.412L588.554 486.411H588.643L588.725 486.41L588.806 486.409L588.873 486.408L588.94 486.407H589.007L589.058 486.406H589.118L589.162 486.405H589.207L589.244 486.404H589.273H589.303H589.325L589.34 486.403H589.355H589.362ZM589.37 746.263C589.844 745.524 589.844 745.523 589.844 745.521L589.837 745.512L589.807 745.479L589.8 745.47L589.733 745.399L589.681 745.346L589.592 745.248L589.489 745.137C589.407 745.049 589.311 744.946 589.199 744.828C588.777 744.372 588.132 743.697 587.287 742.817C585.589 741.056 583.054 738.478 579.703 735.196C572.986 728.634 562.993 719.264 549.834 708.022C523.532 685.538 484.589 655.567 434.06 625.597C332.993 565.657 185.548 505.724 0.00592745 505.724V507.656C185.296 507.656 332.533 567.508 433.444 627.355C483.9 657.28 522.768 687.201 549.026 709.637C562.148 720.856 572.119 730.202 578.813 736.742C582.157 740.011 584.677 742.579 586.36 744.328C587.205 745.203 587.843 745.873 588.265 746.323C588.473 746.549 588.629 746.719 588.74 746.833C588.777 746.878 588.814 746.915 588.836 746.942L588.851 746.96L588.881 746.992L588.888 747C588.888 747 588.888 747.001 588.925 746.947C588.977 746.872 589.096 746.692 589.37 746.263ZM589.689 637.195C589.689 637.195 589.689 637.197 589.37 638.068C589.051 638.94 589.051 638.939 589.051 638.939L589.044 638.934L589.014 638.917L588.895 638.843C588.792 638.779 588.629 638.682 588.421 638.553C588.243 638.448 588.035 638.323 587.791 638.176C587.643 638.086 587.479 637.988 587.302 637.884C587.064 637.743 586.805 637.587 586.516 637.419C584.833 636.424 582.312 634.964 578.961 633.104C572.275 629.386 562.304 624.071 549.175 617.691C522.909 604.932 484.033 587.917 433.563 570.899C332.63 536.865 185.355 502.826 0.00592745 502.826V500.893C185.496 500.893 332.896 534.958 433.933 569.029C484.456 586.064 523.383 603.1 549.686 615.881C562.845 622.271 572.838 627.597 579.547 631.328C582.898 633.192 585.433 634.658 587.131 635.659C587.976 636.159 588.614 636.543 589.044 636.802C589.162 636.875 589.266 636.938 589.355 636.991C589.422 637.032 589.481 637.068 589.526 637.097L589.652 637.171L589.681 637.19L589.689 637.195ZM589.37 551.127C589.511 550.178 589.511 550.177 589.503 550.177L589.496 550.175L589.466 550.167L589.348 550.138C589.236 550.112 589.081 550.073 588.866 550.021C588.443 549.919 587.806 549.766 586.953 549.568C585.263 549.171 582.735 548.59 579.377 547.85C572.675 546.37 562.682 544.255 549.538 541.719C523.25 536.645 484.33 529.881 433.83 523.117C332.815 509.59 185.452 496.063 0.00592745 496.063V497.995C185.4 497.995 332.711 511.518 433.674 525.039C484.159 531.799 523.05 538.56 549.323 543.629C562.459 546.164 572.438 548.277 579.132 549.755C582.475 550.494 585.003 551.074 586.694 551.469C587.205 551.589 587.635 551.692 587.991 551.777C588.228 551.833 588.428 551.881 588.599 551.922C588.806 551.973 588.97 552.011 589.073 552.037L589.192 552.067L589.222 552.073L589.229 552.075C589.229 552.075 589.229 552.076 589.37 551.127Z" fill="url(#paint0_linear_696_3809)"/>
<defs>
<linearGradient id="paint0_linear_696_3809" x1="8.90125" y1="363.704" x2="578.561" y2="363.704" gradientUnits="userSpaceOnUse">
<stop offset="0.0182341" stop-color="#A1A0EE"/>
<stop offset="0.44" stop-color="#E5E5E5"/>
<stop offset="0.917969" stop-color="#008EF0" stop-opacity="0"/>
<stop offset="1" stop-color="#008EF0" stop-opacity="0.65"/>
</linearGradient>
</defs>
</svg>
