<svg width="551" height="747" viewBox="0 0 551 747" fill="none" xmlns="http://www.w3.org/2000/svg">
<path fill-rule="evenodd" clip-rule="evenodd" d="M0.000179931 0.999484C-0.0015509 0.99562 -0.00245089 0.992721 0.590463 0.494257C1.18345 -0.0042098 1.18406 -0.00324575 1.18552 0.000618337L1.19223 0.0160814L1.21965 0.0788748C1.24423 0.13587 1.28113 0.220865 1.33049 0.332924C1.42922 0.558978 1.57745 0.895163 1.77511 1.3405C2.17029 2.23117 2.76287 3.55364 3.55095 5.28089C5.12705 8.73345 7.4849 13.8002 10.6096 20.2513C16.8591 33.1525 26.1753 51.5881 38.4373 73.7138C62.9621 117.965 99.2667 176.967 146.384 235.968C240.626 353.977 378.069 471.913 550.995 471.913V473.845C377.599 473.845 239.839 355.588 145.459 237.405C98.2663 178.31 61.9051 119.216 37.3419 74.8953C25.06 52.7347 15.7265 34.2654 9.46241 21.3333C6.33039 14.8667 3.96552 9.78543 2.38298 6.31841C1.59172 4.58537 0.996096 3.25514 0.597868 2.35771C0.398823 1.90948 0.249072 1.56945 0.148891 1.3405C0.0988357 1.22554 0.0611722 1.13956 0.0359713 1.0816L0.00744808 1.01591L0.000179931 0.999484ZM0.0660897 143.13C0.0643589 143.127 0.06339 143.126 0.590463 142.499C1.11747 141.874 1.11802 141.874 1.11941 141.876L1.12605 141.887L1.15326 141.931L1.20137 142.01L1.26368 142.11C1.30578 142.179 1.35687 142.261 1.41703 142.357L1.5132 142.512C1.57156 142.606 1.6363 142.709 1.7074 142.822C2.10203 143.451 2.69404 144.386 3.4815 145.607C5.05642 148.048 7.4131 151.632 10.5366 156.195C16.7836 165.32 26.0974 178.361 38.3569 194.013C62.8765 225.317 99.1774 267.061 146.293 308.806C240.525 392.296 377.999 475.777 550.995 475.777V477.709C377.669 477.709 239.94 394.068 145.551 310.437C98.3556 268.621 61.9906 226.804 37.4222 195.437C25.1378 179.754 15.8019 166.683 9.53531 157.529C6.40205 152.952 4.03606 149.354 2.45235 146.9C1.66053 145.672 1.06422 144.73 0.665511 144.094C0.46605 143.777 0.316091 143.535 0.215634 143.373C0.165439 143.292 0.127638 143.231 0.102229 143.189L0.0734977 143.143L0.0660897 143.13ZM0.590463 241.034C0.144739 241.773 0.145708 241.775 0.147508 241.777L0.154916 241.785L0.183785 241.819L0.258627 241.906L0.297466 241.95C0.398062 242.067 0.54823 242.24 0.747833 242.468C1.14689 242.924 1.74348 243.599 2.53571 244.48C4.11998 246.241 6.48664 248.82 9.62047 252.1C15.8882 258.663 25.2249 268.033 37.5098 279.275C62.0796 301.759 98.4435 331.731 145.635 361.699C240.019 421.639 377.717 481.573 550.995 481.573V479.641C377.95 479.641 240.447 419.788 146.209 359.941C99.0895 330.018 62.7875 300.095 38.2692 277.659C26.0102 266.441 16.6974 257.095 10.4515 250.556C7.32857 247.286 4.97244 244.718 3.39814 242.969C2.61103 242.094 2.01937 241.424 1.62509 240.974C1.54048 240.877 1.46494 240.79 1.39855 240.714C1.31021 240.613 1.238 240.529 1.18192 240.464C1.13276 240.408 1.096 240.364 1.07177 240.336L1.04463 240.304L1.03806 240.297C1.03806 240.297 1.0373 240.296 1.02359 240.318C1.01708 240.328 1.00753 240.344 0.993472 240.367C0.96751 240.41 0.926316 240.477 0.860544 240.586L0.590463 241.034ZM0.294421 349.135C0.294421 349.135 0.294006 349.135 0.294421 349.133C0.294836 349.132 0.295942 349.128 0.298504 349.119C0.303627 349.103 0.314638 349.07 0.337623 349.002C0.376809 348.886 0.450958 348.669 0.590463 348.262C0.72547 347.868 0.79955 347.653 0.840398 347.535C0.859437 347.48 0.871206 347.446 0.878614 347.425C0.885745 347.404 0.888646 347.397 0.889962 347.394C0.890792 347.392 0.891146 347.392 0.891146 347.392L0.897716 347.397L0.924924 347.415L1.03522 347.487C1.13353 347.552 1.28141 347.649 1.47865 347.777C1.87314 348.033 2.46509 348.415 3.25248 348.912C4.82726 349.906 7.18401 351.367 10.3077 353.226C16.5549 356.946 25.8699 362.261 38.1314 368.639C62.6546 381.399 98.9648 398.414 146.095 415.431C240.357 449.465 377.899 483.505 550.995 483.505V485.437C377.769 485.437 240.109 451.372 145.749 417.302C98.5681 400.267 62.2124 383.23 37.6477 370.45C25.3653 364.059 16.0306 358.734 9.76426 355.004C6.63121 353.139 4.26523 351.672 2.68138 350.672C1.88949 350.172 1.29311 349.787 0.894185 349.529C0.694793 349.399 0.5447 349.301 0.444173 349.235L0.330629 349.159L0.301829 349.14L0.294421 349.135ZM0.590463 434.238C0.496444 434.929 0.471243 435.117 0.46522 435.168C0.462935 435.188 0.463764 435.188 0.463764 435.188L0.470964 435.189L0.49935 435.197L0.612133 435.227C0.712108 435.253 0.861645 435.292 1.06055 435.343L1.24693 435.391L1.47637 435.45C1.603 435.482 1.74154 435.518 1.89184 435.556C2.16933 435.626 2.4869 435.706 2.84442 435.796C4.42592 436.193 6.78968 436.775 9.92031 437.515C16.1817 438.996 25.5113 441.109 37.7881 443.646C62.3418 448.72 98.6851 455.484 145.851 462.248C240.183 475.775 377.808 489.301 550.995 489.301V487.369C377.859 487.369 240.282 473.847 145.993 460.325C98.8478 453.565 62.5253 446.805 37.9909 441.735C25.7239 439.2 16.4038 437.089 10.1516 435.61C7.02553 434.871 4.66643 434.29 3.08943 433.895C2.30094 433.697 1.70788 433.545 1.31235 433.443C1.11455 433.393 0.966125 433.354 0.867191 433.328L0.756141 433.299L0.728579 433.291L0.721794 433.289C0.721794 433.289 0.721032 433.289 0.718194 433.308C0.715494 433.326 0.710516 433.361 0.701031 433.429L0.679981 433.582C0.660734 433.722 0.63228 433.931 0.590463 434.238ZM0.598008 486.403C0.596416 486.403 0.595656 486.403 0.590463 487.369C0.585202 488.335 0.586032 488.335 0.587555 488.335H0.594546H0.606177L0.622518 488.336H0.643564H0.669179H0.699501L0.734464 488.337H0.774065L0.818305 488.338H0.867191L0.920701 488.339H0.978933L1.04172 488.34L1.10916 488.341L1.18123 488.342H1.25794L1.33922 488.343L1.42513 488.344L1.5157 488.345L1.61096 488.346L1.71073 488.347L1.81513 488.349L1.92411 488.35L2.03771 488.351L2.15589 488.352L2.27879 488.354L2.40617 488.354L2.5382 488.355L2.67473 488.357L2.81589 488.358L2.96171 488.36L3.11207 488.362L3.26695 488.363L3.42646 488.365L3.59054 488.367L3.7592 488.369L3.93243 488.371L4.11021 488.373L4.29257 488.375L4.4795 488.377L4.67094 488.379L4.867 488.381L5.06757 488.383L5.27271 488.384L5.48234 488.386L5.69656 488.389L5.91534 488.391L6.13861 488.394L6.36646 488.396L6.59881 488.399L6.83572 488.401L7.07711 488.404L7.32303 488.407L7.57351 488.409L7.8285 488.411L8.08799 488.414L8.35204 488.417L8.6206 488.42L8.89359 488.423L9.17114 488.426L9.4532 488.429L9.73975 488.432L10.0307 488.435L10.3263 488.438L10.6263 488.441L10.9308 488.444L11.2398 488.447L11.5533 488.451L11.8713 488.454L12.1937 488.458L12.5206 488.461L12.852 488.465L13.1878 488.468L13.5282 488.471L13.873 488.475L14.2223 488.479L14.5759 488.483L14.9341 488.487L15.2967 488.49L15.6638 488.494L16.0353 488.498L16.4112 488.502L16.7916 488.506L17.1764 488.51L17.5657 488.514L17.9595 488.519L18.3576 488.523L18.7602 488.526L19.1672 488.531L19.5786 488.535L19.9944 488.54L20.4146 488.544L20.8393 488.549L21.2684 488.553L21.7019 488.557L22.1398 488.562L22.582 488.567L23.0287 488.572L23.4798 488.577L23.9353 488.582L24.3952 488.586L24.8594 488.591L25.328 488.596L25.8011 488.601L26.2785 488.606L26.7603 488.611L27.2465 488.616L27.737 488.621L28.2319 488.627L28.7312 488.632L29.2348 488.637L29.7428 488.642L30.2552 488.648L30.7719 488.653L31.293 488.659L31.8184 488.665L32.3482 488.669L32.8823 488.675L33.4207 488.681L33.9635 488.687L34.5106 488.693L35.062 488.698L35.6178 488.704L36.178 488.71L36.7425 488.716L37.3112 488.722L37.8843 488.728L38.4617 488.734L39.0434 488.74L39.6295 488.747L40.2198 488.753L40.8145 488.759L41.4134 488.765L42.0167 488.772L42.6242 488.778L43.2361 488.784L43.8522 488.791L44.4726 488.798L45.0973 488.804L45.7263 488.81L46.3597 488.817L46.9972 488.824L47.639 488.831L48.2852 488.837L48.9355 488.844L49.5902 488.851L50.249 488.859L50.9122 488.866L51.5797 488.872L52.2513 488.879L52.9273 488.887L53.6075 488.894L54.2919 488.901L54.9807 488.908L55.6735 488.916L56.3707 488.923L57.0721 488.93L57.7777 488.938L58.4876 488.945L59.2017 488.952L59.92 488.96L60.6426 488.968L61.3694 488.976L62.1003 488.983L62.8355 488.991L63.5749 488.999L64.3186 489.007L65.0664 489.014L65.8184 489.022L66.5747 489.03L67.3351 489.038L68.0997 489.046L68.8686 489.054L69.6418 489.063L70.4186 489.07L71.2002 489.079L71.986 489.087L72.7753 489.095L73.5694 489.104L74.3676 489.112L75.1701 489.121L75.9759 489.129L76.7867 489.138L77.6015 489.147L78.4206 489.155L79.2437 489.164L80.0711 489.173L80.9019 489.181L81.7375 489.19L82.5773 489.199L83.4213 489.208L84.2694 489.216L85.1209 489.226L85.9774 489.235L86.8379 489.243L87.7027 489.253L88.5708 489.262L89.4439 489.271L90.3204 489.28L91.2017 489.29L92.0865 489.299L92.9762 489.308L93.8693 489.318L94.7665 489.327L95.6679 489.337L96.5735 489.347L97.4832 489.355L98.3971 489.365L99.3152 489.375L100.237 489.384L101.163 489.395L102.093 489.405L103.027 489.414L103.966 489.424L104.909 489.434L105.855 489.444L106.806 489.454L107.76 489.464L108.719 489.474L109.681 489.484L110.649 489.494L111.619 489.505L112.594 489.515L113.573 489.525L114.556 489.536L115.543 489.546L116.535 489.556L117.53 489.567L118.529 489.577L119.532 489.588L120.539 489.599L121.551 489.609L122.566 489.62L123.586 489.631L124.609 489.641L125.636 489.652L126.668 489.663L127.703 489.674L128.743 489.685L129.786 489.696L130.834 489.707L131.885 489.718L132.94 489.729L134 489.74L135.063 489.751L136.131 489.763L137.202 489.774L138.278 489.785L139.357 489.797L140.44 489.808L141.527 489.82L142.618 489.831L143.714 489.842L144.813 489.854L145.917 489.865L147.024 489.877L148.135 489.89L149.25 489.901L150.369 489.913L151.492 489.924L152.619 489.936L153.75 489.948L154.885 489.96L156.023 489.973L157.166 489.984L158.313 489.997L159.464 490.008L160.618 490.021L161.777 490.032L162.939 490.045L164.105 490.058L165.276 490.069L166.449 490.082L167.628 490.094L168.809 490.107L169.995 490.119L171.186 490.132L172.379 490.145L173.577 490.157L174.778 490.17L175.983 490.182L177.193 490.195L178.406 490.208L179.623 490.221L180.844 490.233L182.068 490.246L183.297 490.259L184.53 490.272L185.766 490.286L187.007 490.298L188.251 490.312L189.498 490.324L190.751 490.338L192.006 490.351L193.266 490.365L194.53 490.377L195.797 490.391L197.068 490.404L198.343 490.418L199.622 490.431L200.905 490.445L202.191 490.458L203.481 490.472L204.775 490.486L206.074 490.499L207.375 490.513L208.681 490.527L209.99 490.541L211.303 490.554L212.621 490.569L213.942 490.582L215.266 490.596L216.595 490.61L217.927 490.624L219.263 490.638L220.604 490.653L221.947 490.666L223.295 490.681L224.646 490.695L226.001 490.709L227.36 490.723L228.723 490.738L230.089 490.752L231.459 490.767L232.833 490.781L234.211 490.796L235.593 490.81L236.978 490.825L238.367 490.839L239.76 490.854L241.156 490.869L242.556 490.884L243.96 490.898L245.368 490.913L246.78 490.928L248.195 490.942L249.614 490.958L251.037 490.972L252.463 490.988L253.894 491.002L255.328 491.018L256.765 491.033L258.207 491.048L259.652 491.063L261.101 491.079L262.553 491.094L264.009 491.11L265.469 491.125L266.933 491.141L268.401 491.156L269.872 491.171L271.347 491.187L272.825 491.202L274.307 491.218L275.793 491.233L277.283 491.249L278.776 491.265L280.273 491.281L281.773 491.296L283.278 491.312L284.786 491.328L286.297 491.344L287.812 491.36L289.331 491.376L290.854 491.392L292.38 491.408L293.911 491.424L295.444 491.44L296.981 491.456L298.522 491.473L300.067 491.489L301.615 491.506L303.166 491.522L304.722 491.539L306.281 491.555L307.844 491.571L309.41 491.588L310.98 491.604L312.554 491.621L314.131 491.637L315.712 491.653L317.296 491.671L318.884 491.687L320.476 491.704L322.071 491.721L323.67 491.738L325.272 491.755L326.879 491.771L328.488 491.789L330.102 491.805L331.719 491.823L333.339 491.84L334.963 491.856L336.591 491.874L338.222 491.891L339.857 491.909L341.495 491.925L343.137 491.942L344.782 491.96L346.432 491.977L348.084 491.994L349.74 492.012L351.4 492.029L353.063 492.047L354.73 492.065L356.4 492.082L358.075 492.1L359.751 492.117L361.433 492.135L363.117 492.153L364.805 492.171L366.497 492.189L368.192 492.206L369.891 492.224L371.593 492.242L373.299 492.26L375.008 492.278L376.72 492.296L378.437 492.314L380.156 492.333L381.88 492.351L383.606 492.368L385.337 492.387L387.071 492.405L388.808 492.423L390.549 492.442L392.293 492.46L394.041 492.478L395.792 492.497L397.547 492.515L399.305 492.534L401.067 492.553L402.832 492.571L404.601 492.59L406.372 492.609L408.148 492.627L409.927 492.646L411.71 492.665L413.496 492.683L415.285 492.703L417.078 492.721L418.874 492.74L420.674 492.76L422.477 492.778L424.284 492.797L426.093 492.817L427.907 492.835L429.724 492.854L431.544 492.874L433.369 492.893L435.196 492.912L437.026 492.932L438.86 492.951L440.698 492.97L442.538 492.989L444.383 493.009L446.231 493.028L448.081 493.047L449.936 493.068L451.794 493.087L453.655 493.106L455.52 493.126L457.388 493.146L459.26 493.165L461.135 493.186L463.013 493.205L464.894 493.225L466.779 493.245L468.668 493.265L470.559 493.284L472.454 493.304L474.353 493.325L476.255 493.344L478.16 493.364L480.068 493.385L481.981 493.405L483.896 493.425L485.814 493.445L487.736 493.466L489.661 493.486L491.59 493.506L493.523 493.527L495.458 493.547L497.396 493.567L499.338 493.587L501.284 493.608L503.233 493.629L505.184 493.649L507.139 493.67L509.098 493.69L511.06 493.711L513.025 493.731L514.994 493.753L516.966 493.773L518.941 493.794L520.919 493.814L522.901 493.836L524.886 493.857L526.874 493.877L528.865 493.898L530.861 493.92L532.859 493.94L534.86 493.961L536.865 493.983L538.873 494.004L540.884 494.025L542.899 494.046L544.916 494.068L546.938 494.089L548.962 494.11L550.99 494.131L551 492.199L548.973 492.178L546.948 492.157L544.927 492.135L542.909 492.114L540.895 492.093L538.883 492.072L536.876 492.051L534.871 492.029L532.869 492.009L530.871 491.988L528.877 491.966L526.885 491.945L524.896 491.925L522.911 491.904L520.929 491.882L518.951 491.862L516.976 491.841L515.004 491.821L513.035 491.799L511.07 491.779L509.108 491.759L507.15 491.738L505.195 491.717L503.243 491.697L501.294 491.676L499.349 491.655L497.407 491.635L495.468 491.615L493.533 491.595L491.601 491.574L489.672 491.554L487.746 491.534L485.824 491.513L483.906 491.493L481.991 491.473L480.079 491.453L478.17 491.432L476.265 491.412L474.364 491.393L472.465 491.372L470.57 491.352L468.678 491.333L466.789 491.312L464.905 491.293L463.023 491.273L461.145 491.254L459.27 491.233L457.399 491.214L455.53 491.194L453.666 491.174L451.805 491.155L449.946 491.136L448.092 491.115L446.241 491.096L444.393 491.077L442.549 491.057L440.708 491.038L438.87 491.019L437.036 490.999L435.206 490.98L433.379 490.961L431.555 490.941L429.734 490.922L427.918 490.903L426.104 490.885L424.294 490.865L422.487 490.846L420.684 490.828L418.884 490.808L417.088 490.789L415.295 490.771L413.506 490.751L411.72 490.733L409.938 490.714L408.159 490.695L406.383 490.677L404.611 490.657L402.842 490.639L401.077 490.621L399.315 490.602L397.558 490.583L395.803 490.565L394.052 490.546L392.303 490.528L390.56 490.51L388.818 490.491L387.081 490.473L385.348 490.455L383.617 490.437L381.89 490.419L380.167 490.401L378.447 490.382L376.731 490.364L375.019 490.346L373.309 490.328L371.603 490.311L369.901 490.292L368.203 490.274L366.507 490.257L364.816 490.239L363.128 490.221L361.443 490.203L359.762 490.185L358.085 490.168L356.411 490.15L354.74 490.133L353.074 490.116L351.41 490.097L349.751 490.08L348.095 490.062L346.442 490.045L344.793 490.028L343.147 490.01L341.506 489.993L339.867 489.976L338.232 489.959L336.601 489.942L334.973 489.924L333.349 489.908L331.729 489.89L330.112 489.873L328.499 489.857L326.889 489.839L325.283 489.823L323.681 489.805L322.082 489.789L320.486 489.772L318.895 489.755L317.307 489.739L315.722 489.721L314.141 489.705L312.564 489.689L310.99 489.672L309.421 489.656L307.854 489.639L306.292 489.623L304.732 489.606L303.177 489.59L301.625 489.574L300.077 489.557L298.533 489.541L296.991 489.524L295.454 489.508L293.921 489.492L292.391 489.476L290.864 489.46L289.342 489.444L287.823 489.428L286.308 489.412L284.796 489.396L283.288 489.38L281.784 489.364L280.283 489.349L278.787 489.333L277.293 489.317L275.803 489.301L274.318 489.286L272.835 489.27L271.357 489.255L269.882 489.239L268.411 489.224L266.943 489.208L265.48 489.193L264.02 489.178L262.564 489.162L261.111 489.147L259.662 489.131L258.217 489.117L256.776 489.101L255.338 489.086L253.904 489.071L252.474 489.056L251.048 489.04L249.625 489.026L248.205 489.01L246.79 488.996L245.379 488.981L243.971 488.966L242.567 488.952L241.167 488.937L239.77 488.922L238.377 488.907L236.988 488.893L235.603 488.878L234.221 488.864L232.843 488.849L231.47 488.835L230.1 488.82L228.733 488.806L227.37 488.791L226.011 488.777L224.656 488.763L223.305 488.749L221.958 488.734L220.614 488.721L219.274 488.706L217.937 488.692L216.605 488.678L215.277 488.664L213.952 488.65L212.631 488.637L211.314 488.622L210 488.609L208.691 488.595L207.386 488.581L206.084 488.567L204.786 488.553L203.492 488.54L202.201 488.526L200.915 488.513L199.632 488.499L198.353 488.486L197.078 488.472L195.807 488.459L194.54 488.445L193.276 488.433L192.017 488.419L190.761 488.406L189.509 488.393L188.261 488.38L187.017 488.366L185.776 488.354L184.54 488.34L183.308 488.327L182.079 488.315L180.854 488.301L179.633 488.289L178.416 488.276L177.203 488.263L175.994 488.25L174.788 488.238L173.587 488.225L172.389 488.212L171.196 488.2L170.006 488.187L168.82 488.175L167.638 488.162L166.46 488.15L165.286 488.137L164.115 488.126L162.95 488.113L161.787 488.1L160.629 488.089L159.474 488.076L158.323 488.065L157.177 488.052L156.034 488.041L154.895 488.028L153.76 488.016L152.63 488.005L151.503 487.992L150.38 487.981L149.261 487.969L148.145 487.957L147.034 487.946L145.927 487.933L144.824 487.922L143.725 487.91L142.63 487.899L141.538 487.888L140.451 487.876L139.367 487.865L138.288 487.853L137.213 487.842L136.141 487.831L135.073 487.819L134.01 487.809L132.951 487.797L131.895 487.786L130.844 487.775L129.796 487.764L128.753 487.753L127.713 487.742L126.678 487.731L125.647 487.72L124.619 487.709L123.596 487.699L122.577 487.688L121.561 487.677L120.55 487.667L119.542 487.656L118.539 487.645L117.54 487.635L116.545 487.624L115.554 487.614L114.567 487.604L113.583 487.593L112.604 487.583L111.63 487.573L110.659 487.562L109.692 487.552L108.729 487.542L107.771 487.532L106.816 487.522L105.865 487.512L104.919 487.501L103.977 487.492L103.039 487.482L102.104 487.473L101.174 487.463L100.248 487.452L99.3255 487.443L98.4075 487.433L97.4936 487.423L96.5839 487.415L95.6783 487.405L94.7769 487.395L93.8797 487.386L92.9865 487.376L92.0969 487.367L91.2121 487.358L90.3308 487.348L89.4543 487.339L88.5812 487.33L87.713 487.321L86.8483 487.311L85.9877 487.302L85.132 487.294L84.2798 487.284L83.4317 487.275L82.5877 487.267L81.7479 487.258L80.913 487.249L80.0815 487.241L79.2541 487.232L78.4309 487.223L77.6119 487.215L76.797 487.206L75.9863 487.197L75.1804 487.189L74.378 487.18L73.5798 487.172L72.7857 487.163L71.9964 487.156L71.2106 487.147L70.429 487.138L69.6522 487.131L68.879 487.123L68.1102 487.114L67.3456 487.106L66.5851 487.099L65.8289 487.09L65.0769 487.082L64.329 487.075L63.5855 487.067L62.846 487.059L62.1108 487.051L61.3798 487.044L60.653 487.036L59.9305 487.028L59.2122 487.02L58.4981 487.013L57.7882 487.006L57.0826 486.998L56.3812 486.99L55.684 486.984L54.991 486.976L54.3024 486.969L53.6179 486.961L52.9377 486.955L52.2618 486.947L51.5901 486.94L50.9227 486.934L50.2595 486.927L49.6006 486.919L48.9459 486.912L48.2956 486.905L47.6495 486.899L47.0076 486.892L46.37 486.885L45.7368 486.878L45.1079 486.872L44.4831 486.866L43.8626 486.859L43.2465 486.852L42.6347 486.846L42.0272 486.84L41.4239 486.833L40.8249 486.827L40.2303 486.82L39.6399 486.815L39.0539 486.808L38.4722 486.802L37.8948 486.796L37.3217 486.79L36.7528 486.784L36.1885 486.778L35.6284 486.772L35.0726 486.766L34.521 486.761L33.974 486.755L33.4312 486.749L32.8927 486.743L32.3586 486.737L31.8288 486.733L31.3034 486.727L30.7823 486.721L30.2656 486.716L29.7533 486.71L29.2453 486.705L28.7417 486.7L28.2423 486.695L27.7475 486.689L27.2569 486.684L26.7707 486.679L26.289 486.674L25.8116 486.669L25.3385 486.664L24.8699 486.659L24.4056 486.654L23.9457 486.649L23.4902 486.645L23.0391 486.64L22.5925 486.635L22.1502 486.63L21.7123 486.625L21.2788 486.621L20.8498 486.617L20.4251 486.612L20.0048 486.608L19.589 486.603L19.1776 486.599L18.7705 486.594L18.368 486.591L17.9699 486.587L17.5762 486.582L17.1869 486.578L16.8021 486.574L16.4217 486.57L16.0457 486.566L15.6742 486.563L15.3071 486.559L14.9445 486.555L14.5864 486.551L14.2326 486.547L13.8834 486.543L13.5387 486.539L13.1983 486.536L12.8625 486.533L12.5311 486.529L12.2041 486.526L11.8817 486.522L11.5638 486.519L11.2503 486.515L10.9412 486.512L10.6367 486.509L10.3368 486.506L10.0412 486.503L9.75014 486.5L9.46365 486.497L9.1816 486.494L8.90404 486.491L8.63098 486.488L8.3625 486.485L8.09844 486.482L7.83895 486.479L7.58397 486.477L7.33348 486.475L7.08757 486.472L6.84617 486.469L6.60926 486.467L6.37691 486.464L6.14907 486.462L5.92579 486.459L5.70701 486.457L5.4928 486.455L5.28309 486.452L5.07802 486.45L4.87738 486.449L4.68145 486.447L4.48988 486.445L4.30303 486.443L4.12067 486.441L3.94287 486.439L3.76966 486.437L3.60101 486.435L3.43692 486.433L3.2774 486.431L3.12246 486.43L2.97215 486.428L2.82642 486.427L2.68518 486.425L2.54858 486.423L2.41663 486.422L2.28917 486.422L2.16642 486.42L2.04817 486.419L1.93456 486.418L1.82558 486.417L1.72111 486.415L1.62134 486.414L1.52622 486.413L1.4356 486.412L1.34968 486.411H1.26833L1.19168 486.41L1.11961 486.409L1.05218 486.408L0.989318 486.407H0.931162L0.877645 486.406H0.828766L0.784526 486.405H0.744856L0.709962 486.404H0.679635H0.654017H0.63297L0.616702 486.403H0.605002H0.598008ZM0.590463 746.263C0.144739 745.524 0.145708 745.523 0.147508 745.521L0.154916 745.512L0.183785 745.479L0.19057 745.47L0.251565 745.399L0.297466 745.346L0.382347 745.248L0.478789 745.137C0.555292 745.049 0.645018 744.946 0.747833 744.828C1.14689 744.372 1.74348 743.697 2.53571 742.817C4.11998 741.056 6.48658 738.478 9.62047 735.196C15.8882 728.634 25.2249 719.264 37.5098 708.022C62.0796 685.538 98.4435 655.567 145.635 625.597C240.019 565.657 377.717 505.724 550.995 505.724V507.656C377.95 507.656 240.447 567.508 146.209 627.355C99.0895 657.28 62.7875 687.201 38.2692 709.637C26.0102 720.856 16.6974 730.202 10.4515 736.742C7.32857 740.011 4.97244 742.579 3.39814 744.328C2.61103 745.203 2.01937 745.873 1.62509 746.323C1.42791 746.549 1.28009 746.719 1.18192 746.833C1.14246 746.878 1.11102 746.915 1.08762 746.942L1.07177 746.96L1.04463 746.992L1.03806 747C1.03806 747 1.03709 747.001 1.00386 746.947C0.957886 746.872 0.849121 746.692 0.590463 746.263ZM0.294421 637.195C0.292621 637.196 0.291652 637.197 0.590463 638.068C0.889207 638.94 0.889761 638.94 0.891146 638.939L0.897716 638.934L0.924924 638.917L1.03522 638.843C1.13353 638.779 1.28141 638.682 1.47865 638.553C1.64059 638.448 1.83576 638.323 2.06409 638.176C2.20359 638.086 2.35549 637.988 2.51971 637.884C2.74147 637.743 2.98572 637.587 3.25248 637.419C4.82726 636.424 7.18401 634.964 10.3077 633.104C16.5549 629.386 25.8699 624.071 38.1314 617.691C62.6546 604.932 98.9648 587.917 146.095 570.899C240.357 536.865 377.899 502.826 550.995 502.826V500.893C377.769 500.893 240.109 534.958 145.749 569.029C98.5681 586.064 62.2124 603.1 37.6477 615.881C25.3653 622.271 16.0306 627.597 9.76426 631.328C6.63121 633.192 4.26523 634.658 2.68138 635.659C1.88949 636.159 1.29311 636.543 0.894185 636.802C0.781958 636.875 0.685381 636.938 0.604447 636.991C0.541514 637.032 0.488136 637.068 0.444173 637.097L0.330629 637.171L0.301829 637.19L0.294421 637.195ZM0.590463 551.127C0.461205 550.178 0.462103 550.177 0.463764 550.177L0.470964 550.175L0.49935 550.167L0.612133 550.138C0.712108 550.112 0.861645 550.073 1.06055 550.021C1.45837 549.919 2.05364 549.766 2.84442 549.568C4.42592 549.171 6.78968 548.59 9.92031 547.85C16.1817 546.37 25.5113 544.255 37.7881 541.719C62.3418 536.645 98.6851 529.881 145.851 523.117C240.183 509.59 377.808 496.063 550.995 496.063V497.995C377.859 497.995 240.282 511.518 145.993 525.039C98.8478 531.799 62.5253 538.56 37.9909 543.629C25.7239 546.164 16.4038 548.277 10.1516 549.755C7.02553 550.494 4.66643 551.074 3.08943 551.469C2.61318 551.589 2.20824 551.692 1.87502 551.777C1.65659 551.833 1.46896 551.881 1.31235 551.922C1.11455 551.973 0.966125 552.011 0.867191 552.037L0.756141 552.067L0.728579 552.073L0.721794 552.075C0.72034 552.075 0.719655 552.076 0.590463 551.127Z" fill="url(#paint0_linear_696_3811)"/>
<defs>
<linearGradient id="paint0_linear_696_3811" x1="542.688" y1="363.704" x2="10.685" y2="363.704" gradientUnits="userSpaceOnUse">
<stop offset="0.0182341" stop-color="#9291EC"/>
<stop offset="0.44" stop-color="#DBDBDB"/>
<stop offset="0.563305" stop-color="#008EF0" stop-opacity="0.65"/>
<stop offset="0.943305" stop-color="#008EF0" stop-opacity="0"/>
</linearGradient>
</defs>
</svg>
