<svg width="539" height="407" viewBox="0 0 539 407" fill="none" xmlns="http://www.w3.org/2000/svg">
<rect x="359" y="177.666" width="82.2328" height="9.54" transform="rotate(-16 359 177.666)" fill="url(#paint0_linear_0_1)"/>
<rect x="346.675" y="178.618" width="125.827" height="15.539" transform="rotate(-65 346.675 178.618)" fill="url(#paint1_linear_0_1)"/>
<rect x="307.353" y="96.5156" width="98.4159" height="12.54" transform="rotate(-29 307.353 96.5156)" fill="url(#paint2_linear_0_1)"/>
<rect x="309" y="74.5714" width="93.1287" height="9.54" transform="rotate(-21 309 74.5714)" fill="url(#paint3_linear_0_1)"/>
<rect x="301" y="36" width="98" height="16" fill="url(#paint4_linear_0_1)"/>
<rect x="313" y="357" width="81" height="10" fill="url(#paint5_linear_0_1)"/>
<rect x="361.86" y="233.034" width="116.16" height="15.539" transform="rotate(64 361.86 233.034)" fill="url(#paint6_linear_0_1)"/>
<rect x="315" y="321.976" width="136.816" height="9.54" transform="rotate(-26 315 321.976)" fill="url(#paint7_linear_0_1)"/>
<rect x="316.455" y="325.502" width="82.635" height="15.539" transform="rotate(17 316.455 325.502)" fill="url(#paint8_linear_0_1)"/>
<rect x="437.864" y="339.586" width="73.3354" height="12.54" transform="rotate(-50 437.864 339.586)" fill="url(#paint9_linear_0_1)"/>
<rect x="444.374" y="55.8474" width="57.5588" height="12.54" transform="rotate(46 444.374 55.8474)" fill="url(#paint10_linear_0_1)"/>
<ellipse cx="444" cy="265.5" rx="15" ry="14.5" fill="white"/>
<g filter="url(#filter0_i_0_1)">
<ellipse cx="443.5" cy="265" rx="12.5" ry="12" fill="#963C30"/>
</g>
<ellipse cx="444" cy="159.5" rx="15" ry="14.5" fill="white"/>
<g filter="url(#filter1_i_0_1)">
<ellipse cx="443.5" cy="159" rx="12.5" ry="12" fill="#963C30"/>
</g>
<circle cx="420.5" cy="47.5" r="31.5" fill="white"/>
<g filter="url(#filter2_i_0_1)">
<circle cx="420.5" cy="47.5" r="27.5" fill="url(#paint11_linear_0_1)"/>
</g>
<circle cx="500.5" cy="275.5" r="31.5" fill="white"/>
<g filter="url(#filter3_i_0_1)">
<circle cx="500.5" cy="275.5" r="27.5" fill="url(#paint12_linear_0_1)"/>
</g>
<circle cx="500" cy="125" r="39" fill="white"/>
<g filter="url(#filter4_i_0_1)">
<circle cx="500" cy="125" r="34" fill="url(#paint13_linear_0_1)"/>
</g>
<circle cx="337" cy="212" r="39" fill="white"/>
<g filter="url(#filter5_i_0_1)">
<circle cx="337" cy="212" r="34" fill="url(#paint14_linear_0_1)"/>
</g>
<circle cx="422" cy="365" r="39" fill="white"/>
<g filter="url(#filter6_i_0_1)">
<circle cx="422" cy="365" r="34" fill="url(#paint15_linear_0_1)"/>
</g>
<path d="M21 10.5H10.5V21V328C10.5 365.832 41.1685 396.5 79 396.5H298H308.5V386V79C308.5 41.1685 277.832 10.5 240 10.5H21Z" stroke="white" stroke-width="21"/>
<g filter="url(#filter7_i_0_1)">
<path d="M29 17.5H18.5V28V320C18.5 357.832 49.1685 388.5 87 388.5H291H301.5V378V86C301.5 48.1685 270.832 17.5 233 17.5H29Z" stroke="url(#paint16_linear_0_1)" stroke-width="21"/>
</g>
<g filter="url(#filter8_i_0_1)">
<line x1="66.5" y1="167.5" x2="260.5" y2="167.5" stroke="url(#paint17_linear_0_1)" stroke-width="13" stroke-linecap="round"/>
</g>
<g filter="url(#filter9_i_0_1)">
<line x1="66.5" y1="206.5" x2="145.5" y2="206.5" stroke="url(#paint18_linear_0_1)" stroke-width="13" stroke-linecap="round"/>
</g>
<g filter="url(#filter10_i_0_1)">
<line x1="66.5" y1="244.5" x2="145.5" y2="244.5" stroke="url(#paint19_linear_0_1)" stroke-width="13" stroke-linecap="round"/>
</g>
<g filter="url(#filter11_i_0_1)">
<line x1="177.5" y1="205.5" x2="261.5" y2="205.5" stroke="url(#paint20_linear_0_1)" stroke-width="13" stroke-linecap="round"/>
</g>
<g filter="url(#filter12_i_0_1)">
<line x1="166.5" y1="127.5" x2="262.5" y2="127.5" stroke="url(#paint21_linear_0_1)" stroke-width="13" stroke-linecap="round"/>
</g>
<g filter="url(#filter13_i_0_1)">
<line x1="166.5" y1="91.5" x2="262.5" y2="91.5" stroke="url(#paint22_linear_0_1)" stroke-width="13" stroke-linecap="round"/>
</g>
<g filter="url(#filter14_i_0_1)">
<line x1="177.5" y1="244.5" x2="261.5" y2="244.5" stroke="url(#paint23_linear_0_1)" stroke-width="13" stroke-linecap="round"/>
</g>
<g filter="url(#filter15_i_0_1)">
<line x1="172.5" y1="301.5" x2="262.5" y2="301.5" stroke="url(#paint24_linear_0_1)" stroke-width="13" stroke-linecap="round"/>
</g>
<g filter="url(#filter16_i_0_1)">
<line x1="177.5" y1="339.5" x2="261.5" y2="339.5" stroke="url(#paint25_linear_0_1)" stroke-width="13" stroke-linecap="round"/>
</g>
<g filter="url(#filter17_i_0_1)">
<line x1="66.5" y1="339.5" x2="145.5" y2="339.5" stroke="url(#paint26_linear_0_1)" stroke-width="13" stroke-linecap="round"/>
</g>
<path d="M85.4962 98.7689C87.4549 98.9196 89.3254 99.646 90.8725 100.857L100 108L102.251 109.575C104.04 110.828 106.172 111.5 108.356 111.5V111.5C110.408 111.5 112.417 110.907 114.14 109.792L119.942 106.037C119.981 106.013 120.016 105.984 120.049 105.951V105.951C120.433 105.567 121.09 105.797 121.151 106.337L123.278 125.121C123.703 128.881 121.543 132.455 118.017 133.827V133.827C116.076 134.582 113.923 134.583 111.982 133.83L90.5 125.5L75.8785 117.654C72.4311 115.805 70.7021 111.832 71.6978 108.048V108.048C72.2152 106.082 73.4235 104.368 75.1015 103.22L79.106 100.48C80.979 99.1986 83.2334 98.5949 85.4962 98.7689V98.7689Z" fill="url(#paint27_linear_0_1)"/>
<path d="M80.5 100L82.5471 99.1812C82.8485 99.0606 83.1593 98.9646 83.4762 98.8942L86.6988 98.1781C87.1817 98.0707 87.6809 98.2713 87.9553 98.6829V98.6829C88.272 99.158 88.2094 99.7906 87.8056 100.194L81.8934 106.107C81.6319 106.368 81.3998 106.657 81.2013 106.969L80.0444 108.787C78.9729 110.471 79.6657 112.714 81.5 113.5V113.5L94 120L106.5 124.5L113.409 126.227C114.131 126.408 114.878 126.458 115.617 126.376L115.879 126.347C117.825 126.131 119.529 124.942 120.404 123.191L121.715 120.569C121.89 120.22 122.246 120 122.636 120V120C123.136 120 123.563 120.359 123.65 120.851L124.379 124.98C124.762 127.15 123.93 129.356 122.209 130.733L121.029 131.677C118.82 133.444 115.882 134.008 113.177 133.184L95.704 127.866C94.904 127.623 94.1343 127.289 93.4099 126.871L83.5095 121.159C82.2001 120.404 80.6939 120.06 79.1864 120.171V120.171C73.8463 120.567 69.8086 115.424 71.4605 110.33L72.544 106.989C73.465 104.15 75.6187 101.877 78.4051 100.806L80.5 100Z" fill="url(#paint28_linear_0_1)"/>
<path d="M80.6911 100.537L79.7677 100.153L79 102L79.9234 102.384L80.6911 100.537ZM84.9745 104.483C85.4845 104.695 86.0697 104.454 86.2817 103.944C86.4937 103.434 86.2521 102.848 85.7421 102.636L84.9745 104.483ZM79.9234 102.384L84.9745 104.483L85.7421 102.636L80.6911 100.537L79.9234 102.384Z" fill="url(#paint29_linear_0_1)"/>
<path d="M87.3838 94.0766L86.4604 93.6928L85.6928 95.5396L86.6162 95.9234L87.3838 94.0766ZM91.6672 98.0229C92.1772 98.2348 92.7625 97.9932 92.9745 97.4833C93.1864 96.9733 92.9449 96.388 92.4349 96.176L91.6672 98.0229ZM86.6162 95.9234L91.6672 98.0229L92.4349 96.176L87.3838 94.0766L86.6162 95.9234Z" fill="url(#paint30_linear_0_1)"/>
<path d="M94.3838 88.0766L93.4604 87.6928L92.6928 89.5396L93.6162 89.9234L94.3838 88.0766ZM98.6672 92.0229C99.1772 92.2348 99.7625 91.9932 99.9745 91.4833C100.186 90.9733 99.9449 90.388 99.4349 90.176L98.6672 92.0229ZM93.6162 89.9234L98.6672 92.0229L99.4349 90.176L94.3838 88.0766L93.6162 89.9234Z" fill="url(#paint31_linear_0_1)"/>
<path d="M114.384 96.0766C113.874 95.8646 113.289 96.1062 113.077 96.6162C112.865 97.1262 113.106 97.7114 113.616 97.9234L114.384 96.0766ZM118.667 100.023L119.591 100.407L120.358 98.5599L119.435 98.176L118.667 100.023ZM113.616 97.9234L118.667 100.023L119.435 98.176L114.384 96.0766L113.616 97.9234Z" fill="url(#paint32_linear_0_1)"/>
<path d="M116.384 106.077C115.874 105.865 115.289 106.106 115.077 106.616C114.865 107.126 115.106 107.711 115.616 107.923L116.384 106.077ZM120.667 110.023L121.591 110.407L122.358 108.56L121.435 108.176L120.667 110.023ZM115.616 107.923L120.667 110.023L121.435 108.176L116.384 106.077L115.616 107.923Z" fill="url(#paint33_linear_0_1)"/>
<path d="M116.384 115.077C115.874 114.865 115.289 115.106 115.077 115.616C114.865 116.126 115.106 116.711 115.616 116.923L116.384 115.077ZM120.667 119.023L121.591 119.407L122.358 117.56L121.435 117.176L120.667 119.023ZM115.616 116.923L120.667 119.023L121.435 117.176L116.384 115.077L115.616 116.923Z" fill="url(#paint34_linear_0_1)"/>
<path d="M124.386 126.257L120.861 94.1755C120.553 91.3699 118.789 88.9343 116.219 87.7664L106.226 83.224C103.452 81.963 100.202 82.3876 97.845 84.3191L72.5233 105.069C67.8346 108.911 68.9561 116.369 74.5673 118.662L113.408 134.536C119.023 136.831 125.049 132.286 124.386 126.257Z" stroke="url(#paint35_linear_0_1)" stroke-width="4"/>
<rect x="101.088" y="87.2119" width="18.6577" height="16.0976" transform="rotate(-67 101.088 87.2119)" fill="white"/>
<path d="M102.384 82.0766L101.46 81.6928L100.693 83.5396L101.616 83.9234L102.384 82.0766ZM106.667 86.0229C107.177 86.2348 107.762 85.9932 107.974 85.4833C108.186 84.9733 107.945 84.388 107.435 84.176L106.667 86.0229ZM101.616 83.9234L106.667 86.0229L107.435 84.176L102.384 82.0766L101.616 83.9234Z" fill="url(#paint36_linear_0_1)"/>
<path d="M113.384 87.0766C112.874 86.8646 112.289 87.1062 112.077 87.6162C111.865 88.1262 112.106 88.7114 112.616 88.9234L113.384 87.0766ZM117.667 91.0229L118.591 91.4067L119.358 89.5599L118.435 89.176L117.667 91.0229ZM112.616 88.9234L117.667 91.0229L118.435 89.176L113.384 87.0766L112.616 88.9234Z" fill="url(#paint37_linear_0_1)"/>
<path d="M120 89.1716L127.815 70.7615" stroke="url(#paint38_linear_0_1)" stroke-width="4" stroke-linecap="round"/>
<path d="M101 82.4102L108.815 64.0001" stroke="url(#paint39_linear_0_1)" stroke-width="4" stroke-linecap="round"/>
<path d="M105 61L132.816 72.2382" stroke="url(#paint40_linear_0_1)" stroke-width="4" stroke-linecap="round"/>
<defs>
<filter id="filter0_i_0_1" x="431" y="253" width="25" height="28" filterUnits="userSpaceOnUse" color-interpolation-filters="sRGB">
<feFlood flood-opacity="0" result="BackgroundImageFix"/>
<feBlend mode="normal" in="SourceGraphic" in2="BackgroundImageFix" result="shape"/>
<feColorMatrix in="SourceAlpha" type="matrix" values="0 0 0 0 0 0 0 0 0 0 0 0 0 0 0 0 0 0 127 0" result="hardAlpha"/>
<feOffset dy="4"/>
<feGaussianBlur stdDeviation="2"/>
<feComposite in2="hardAlpha" operator="arithmetic" k2="-1" k3="1"/>
<feColorMatrix type="matrix" values="0 0 0 0 0 0 0 0 0 0 0 0 0 0 0 0 0 0 0.25 0"/>
<feBlend mode="normal" in2="shape" result="effect1_innerShadow_0_1"/>
</filter>
<filter id="filter1_i_0_1" x="431" y="147" width="25" height="28" filterUnits="userSpaceOnUse" color-interpolation-filters="sRGB">
<feFlood flood-opacity="0" result="BackgroundImageFix"/>
<feBlend mode="normal" in="SourceGraphic" in2="BackgroundImageFix" result="shape"/>
<feColorMatrix in="SourceAlpha" type="matrix" values="0 0 0 0 0 0 0 0 0 0 0 0 0 0 0 0 0 0 127 0" result="hardAlpha"/>
<feOffset dy="4"/>
<feGaussianBlur stdDeviation="2"/>
<feComposite in2="hardAlpha" operator="arithmetic" k2="-1" k3="1"/>
<feColorMatrix type="matrix" values="0 0 0 0 0 0 0 0 0 0 0 0 0 0 0 0 0 0 0.25 0"/>
<feBlend mode="normal" in2="shape" result="effect1_innerShadow_0_1"/>
</filter>
<filter id="filter2_i_0_1" x="393" y="20" width="55" height="59" filterUnits="userSpaceOnUse" color-interpolation-filters="sRGB">
<feFlood flood-opacity="0" result="BackgroundImageFix"/>
<feBlend mode="normal" in="SourceGraphic" in2="BackgroundImageFix" result="shape"/>
<feColorMatrix in="SourceAlpha" type="matrix" values="0 0 0 0 0 0 0 0 0 0 0 0 0 0 0 0 0 0 127 0" result="hardAlpha"/>
<feOffset dy="4"/>
<feGaussianBlur stdDeviation="2"/>
<feComposite in2="hardAlpha" operator="arithmetic" k2="-1" k3="1"/>
<feColorMatrix type="matrix" values="0 0 0 0 0 0 0 0 0 0 0 0 0 0 0 0 0 0 0.25 0"/>
<feBlend mode="normal" in2="shape" result="effect1_innerShadow_0_1"/>
</filter>
<filter id="filter3_i_0_1" x="473" y="248" width="55" height="59" filterUnits="userSpaceOnUse" color-interpolation-filters="sRGB">
<feFlood flood-opacity="0" result="BackgroundImageFix"/>
<feBlend mode="normal" in="SourceGraphic" in2="BackgroundImageFix" result="shape"/>
<feColorMatrix in="SourceAlpha" type="matrix" values="0 0 0 0 0 0 0 0 0 0 0 0 0 0 0 0 0 0 127 0" result="hardAlpha"/>
<feOffset dy="4"/>
<feGaussianBlur stdDeviation="2"/>
<feComposite in2="hardAlpha" operator="arithmetic" k2="-1" k3="1"/>
<feColorMatrix type="matrix" values="0 0 0 0 0 0 0 0 0 0 0 0 0 0 0 0 0 0 0.25 0"/>
<feBlend mode="normal" in2="shape" result="effect1_innerShadow_0_1"/>
</filter>
<filter id="filter4_i_0_1" x="466" y="91" width="68" height="72" filterUnits="userSpaceOnUse" color-interpolation-filters="sRGB">
<feFlood flood-opacity="0" result="BackgroundImageFix"/>
<feBlend mode="normal" in="SourceGraphic" in2="BackgroundImageFix" result="shape"/>
<feColorMatrix in="SourceAlpha" type="matrix" values="0 0 0 0 0 0 0 0 0 0 0 0 0 0 0 0 0 0 127 0" result="hardAlpha"/>
<feOffset dy="4"/>
<feGaussianBlur stdDeviation="2"/>
<feComposite in2="hardAlpha" operator="arithmetic" k2="-1" k3="1"/>
<feColorMatrix type="matrix" values="0 0 0 0 0 0 0 0 0 0 0 0 0 0 0 0 0 0 0.25 0"/>
<feBlend mode="normal" in2="shape" result="effect1_innerShadow_0_1"/>
</filter>
<filter id="filter5_i_0_1" x="303" y="178" width="68" height="72" filterUnits="userSpaceOnUse" color-interpolation-filters="sRGB">
<feFlood flood-opacity="0" result="BackgroundImageFix"/>
<feBlend mode="normal" in="SourceGraphic" in2="BackgroundImageFix" result="shape"/>
<feColorMatrix in="SourceAlpha" type="matrix" values="0 0 0 0 0 0 0 0 0 0 0 0 0 0 0 0 0 0 127 0" result="hardAlpha"/>
<feOffset dy="4"/>
<feGaussianBlur stdDeviation="2"/>
<feComposite in2="hardAlpha" operator="arithmetic" k2="-1" k3="1"/>
<feColorMatrix type="matrix" values="0 0 0 0 0 0 0 0 0 0 0 0 0 0 0 0 0 0 0.25 0"/>
<feBlend mode="normal" in2="shape" result="effect1_innerShadow_0_1"/>
</filter>
<filter id="filter6_i_0_1" x="388" y="331" width="68" height="72" filterUnits="userSpaceOnUse" color-interpolation-filters="sRGB">
<feFlood flood-opacity="0" result="BackgroundImageFix"/>
<feBlend mode="normal" in="SourceGraphic" in2="BackgroundImageFix" result="shape"/>
<feColorMatrix in="SourceAlpha" type="matrix" values="0 0 0 0 0 0 0 0 0 0 0 0 0 0 0 0 0 0 127 0" result="hardAlpha"/>
<feOffset dy="4"/>
<feGaussianBlur stdDeviation="2"/>
<feComposite in2="hardAlpha" operator="arithmetic" k2="-1" k3="1"/>
<feColorMatrix type="matrix" values="0 0 0 0 0 0 0 0 0 0 0 0 0 0 0 0 0 0 0.25 0"/>
<feBlend mode="normal" in2="shape" result="effect1_innerShadow_0_1"/>
</filter>
<filter id="filter7_i_0_1" x="8" y="7" width="304" height="396" filterUnits="userSpaceOnUse" color-interpolation-filters="sRGB">
<feFlood flood-opacity="0" result="BackgroundImageFix"/>
<feBlend mode="normal" in="SourceGraphic" in2="BackgroundImageFix" result="shape"/>
<feColorMatrix in="SourceAlpha" type="matrix" values="0 0 0 0 0 0 0 0 0 0 0 0 0 0 0 0 0 0 127 0" result="hardAlpha"/>
<feOffset dy="4"/>
<feGaussianBlur stdDeviation="2"/>
<feComposite in2="hardAlpha" operator="arithmetic" k2="-1" k3="1"/>
<feColorMatrix type="matrix" values="0 0 0 0 0 0 0 0 0 0 0 0 0 0 0 0 0 0 0.25 0"/>
<feBlend mode="normal" in2="shape" result="effect1_innerShadow_0_1"/>
</filter>
<filter id="filter8_i_0_1" x="60" y="161" width="207" height="17" filterUnits="userSpaceOnUse" color-interpolation-filters="sRGB">
<feFlood flood-opacity="0" result="BackgroundImageFix"/>
<feBlend mode="normal" in="SourceGraphic" in2="BackgroundImageFix" result="shape"/>
<feColorMatrix in="SourceAlpha" type="matrix" values="0 0 0 0 0 0 0 0 0 0 0 0 0 0 0 0 0 0 127 0" result="hardAlpha"/>
<feOffset dy="4"/>
<feGaussianBlur stdDeviation="2"/>
<feComposite in2="hardAlpha" operator="arithmetic" k2="-1" k3="1"/>
<feColorMatrix type="matrix" values="0 0 0 0 0 0 0 0 0 0 0 0 0 0 0 0 0 0 0.25 0"/>
<feBlend mode="normal" in2="shape" result="effect1_innerShadow_0_1"/>
</filter>
<filter id="filter9_i_0_1" x="60" y="200" width="92" height="17" filterUnits="userSpaceOnUse" color-interpolation-filters="sRGB">
<feFlood flood-opacity="0" result="BackgroundImageFix"/>
<feBlend mode="normal" in="SourceGraphic" in2="BackgroundImageFix" result="shape"/>
<feColorMatrix in="SourceAlpha" type="matrix" values="0 0 0 0 0 0 0 0 0 0 0 0 0 0 0 0 0 0 127 0" result="hardAlpha"/>
<feOffset dy="4"/>
<feGaussianBlur stdDeviation="2"/>
<feComposite in2="hardAlpha" operator="arithmetic" k2="-1" k3="1"/>
<feColorMatrix type="matrix" values="0 0 0 0 0 0 0 0 0 0 0 0 0 0 0 0 0 0 0.25 0"/>
<feBlend mode="normal" in2="shape" result="effect1_innerShadow_0_1"/>
</filter>
<filter id="filter10_i_0_1" x="60" y="238" width="92" height="17" filterUnits="userSpaceOnUse" color-interpolation-filters="sRGB">
<feFlood flood-opacity="0" result="BackgroundImageFix"/>
<feBlend mode="normal" in="SourceGraphic" in2="BackgroundImageFix" result="shape"/>
<feColorMatrix in="SourceAlpha" type="matrix" values="0 0 0 0 0 0 0 0 0 0 0 0 0 0 0 0 0 0 127 0" result="hardAlpha"/>
<feOffset dy="4"/>
<feGaussianBlur stdDeviation="2"/>
<feComposite in2="hardAlpha" operator="arithmetic" k2="-1" k3="1"/>
<feColorMatrix type="matrix" values="0 0 0 0 0 0 0 0 0 0 0 0 0 0 0 0 0 0 0.25 0"/>
<feBlend mode="normal" in2="shape" result="effect1_innerShadow_0_1"/>
</filter>
<filter id="filter11_i_0_1" x="171" y="199" width="97" height="17" filterUnits="userSpaceOnUse" color-interpolation-filters="sRGB">
<feFlood flood-opacity="0" result="BackgroundImageFix"/>
<feBlend mode="normal" in="SourceGraphic" in2="BackgroundImageFix" result="shape"/>
<feColorMatrix in="SourceAlpha" type="matrix" values="0 0 0 0 0 0 0 0 0 0 0 0 0 0 0 0 0 0 127 0" result="hardAlpha"/>
<feOffset dy="4"/>
<feGaussianBlur stdDeviation="2"/>
<feComposite in2="hardAlpha" operator="arithmetic" k2="-1" k3="1"/>
<feColorMatrix type="matrix" values="0 0 0 0 0 0 0 0 0 0 0 0 0 0 0 0 0 0 0.25 0"/>
<feBlend mode="normal" in2="shape" result="effect1_innerShadow_0_1"/>
</filter>
<filter id="filter12_i_0_1" x="160" y="121" width="109" height="17" filterUnits="userSpaceOnUse" color-interpolation-filters="sRGB">
<feFlood flood-opacity="0" result="BackgroundImageFix"/>
<feBlend mode="normal" in="SourceGraphic" in2="BackgroundImageFix" result="shape"/>
<feColorMatrix in="SourceAlpha" type="matrix" values="0 0 0 0 0 0 0 0 0 0 0 0 0 0 0 0 0 0 127 0" result="hardAlpha"/>
<feOffset dy="4"/>
<feGaussianBlur stdDeviation="2"/>
<feComposite in2="hardAlpha" operator="arithmetic" k2="-1" k3="1"/>
<feColorMatrix type="matrix" values="0 0 0 0 0 0 0 0 0 0 0 0 0 0 0 0 0 0 0.25 0"/>
<feBlend mode="normal" in2="shape" result="effect1_innerShadow_0_1"/>
</filter>
<filter id="filter13_i_0_1" x="160" y="85" width="109" height="17" filterUnits="userSpaceOnUse" color-interpolation-filters="sRGB">
<feFlood flood-opacity="0" result="BackgroundImageFix"/>
<feBlend mode="normal" in="SourceGraphic" in2="BackgroundImageFix" result="shape"/>
<feColorMatrix in="SourceAlpha" type="matrix" values="0 0 0 0 0 0 0 0 0 0 0 0 0 0 0 0 0 0 127 0" result="hardAlpha"/>
<feOffset dy="4"/>
<feGaussianBlur stdDeviation="2"/>
<feComposite in2="hardAlpha" operator="arithmetic" k2="-1" k3="1"/>
<feColorMatrix type="matrix" values="0 0 0 0 0 0 0 0 0 0 0 0 0 0 0 0 0 0 0.25 0"/>
<feBlend mode="normal" in2="shape" result="effect1_innerShadow_0_1"/>
</filter>
<filter id="filter14_i_0_1" x="171" y="238" width="97" height="17" filterUnits="userSpaceOnUse" color-interpolation-filters="sRGB">
<feFlood flood-opacity="0" result="BackgroundImageFix"/>
<feBlend mode="normal" in="SourceGraphic" in2="BackgroundImageFix" result="shape"/>
<feColorMatrix in="SourceAlpha" type="matrix" values="0 0 0 0 0 0 0 0 0 0 0 0 0 0 0 0 0 0 127 0" result="hardAlpha"/>
<feOffset dy="4"/>
<feGaussianBlur stdDeviation="2"/>
<feComposite in2="hardAlpha" operator="arithmetic" k2="-1" k3="1"/>
<feColorMatrix type="matrix" values="0 0 0 0 0 0 0 0 0 0 0 0 0 0 0 0 0 0 0.25 0"/>
<feBlend mode="normal" in2="shape" result="effect1_innerShadow_0_1"/>
</filter>
<filter id="filter15_i_0_1" x="166" y="295" width="103" height="17" filterUnits="userSpaceOnUse" color-interpolation-filters="sRGB">
<feFlood flood-opacity="0" result="BackgroundImageFix"/>
<feBlend mode="normal" in="SourceGraphic" in2="BackgroundImageFix" result="shape"/>
<feColorMatrix in="SourceAlpha" type="matrix" values="0 0 0 0 0 0 0 0 0 0 0 0 0 0 0 0 0 0 127 0" result="hardAlpha"/>
<feOffset dy="4"/>
<feGaussianBlur stdDeviation="2"/>
<feComposite in2="hardAlpha" operator="arithmetic" k2="-1" k3="1"/>
<feColorMatrix type="matrix" values="0 0 0 0 0 0 0 0 0 0 0 0 0 0 0 0 0 0 0.25 0"/>
<feBlend mode="normal" in2="shape" result="effect1_innerShadow_0_1"/>
</filter>
<filter id="filter16_i_0_1" x="171" y="333" width="97" height="17" filterUnits="userSpaceOnUse" color-interpolation-filters="sRGB">
<feFlood flood-opacity="0" result="BackgroundImageFix"/>
<feBlend mode="normal" in="SourceGraphic" in2="BackgroundImageFix" result="shape"/>
<feColorMatrix in="SourceAlpha" type="matrix" values="0 0 0 0 0 0 0 0 0 0 0 0 0 0 0 0 0 0 127 0" result="hardAlpha"/>
<feOffset dy="4"/>
<feGaussianBlur stdDeviation="2"/>
<feComposite in2="hardAlpha" operator="arithmetic" k2="-1" k3="1"/>
<feColorMatrix type="matrix" values="0 0 0 0 0 0 0 0 0 0 0 0 0 0 0 0 0 0 0.25 0"/>
<feBlend mode="normal" in2="shape" result="effect1_innerShadow_0_1"/>
</filter>
<filter id="filter17_i_0_1" x="60" y="333" width="92" height="17" filterUnits="userSpaceOnUse" color-interpolation-filters="sRGB">
<feFlood flood-opacity="0" result="BackgroundImageFix"/>
<feBlend mode="normal" in="SourceGraphic" in2="BackgroundImageFix" result="shape"/>
<feColorMatrix in="SourceAlpha" type="matrix" values="0 0 0 0 0 0 0 0 0 0 0 0 0 0 0 0 0 0 127 0" result="hardAlpha"/>
<feOffset dy="4"/>
<feGaussianBlur stdDeviation="2"/>
<feComposite in2="hardAlpha" operator="arithmetic" k2="-1" k3="1"/>
<feColorMatrix type="matrix" values="0 0 0 0 0 0 0 0 0 0 0 0 0 0 0 0 0 0 0.25 0"/>
<feBlend mode="normal" in2="shape" result="effect1_innerShadow_0_1"/>
</filter>
<linearGradient id="paint0_linear_0_1" x1="359" y1="182.436" x2="441.233" y2="182.436" gradientUnits="userSpaceOnUse">
<stop stop-color="#963C30"/>
<stop offset="0.5" stop-color="#AF4638"/>
<stop offset="1" stop-color="#E26D5C"/>
</linearGradient>
<linearGradient id="paint1_linear_0_1" x1="472.502" y1="186.387" x2="346.675" y2="186.387" gradientUnits="userSpaceOnUse">
<stop stop-color="#94A0D5"/>
<stop offset="1" stop-color="#40556A"/>
</linearGradient>
<linearGradient id="paint2_linear_0_1" x1="307.353" y1="102.786" x2="405.769" y2="102.786" gradientUnits="userSpaceOnUse">
<stop stop-color="#002B35"/>
<stop offset="0.5" stop-color="#B04638"/>
<stop offset="0.75" stop-color="#963C30"/>
<stop offset="1" stop-color="#E26D5C"/>
</linearGradient>
<linearGradient id="paint3_linear_0_1" x1="309" y1="79.3414" x2="402.129" y2="79.3414" gradientUnits="userSpaceOnUse">
<stop stop-color="#002B35"/>
<stop offset="1" stop-color="#40556A"/>
</linearGradient>
<linearGradient id="paint4_linear_0_1" x1="301" y1="44" x2="399" y2="44" gradientUnits="userSpaceOnUse">
<stop stop-color="#002B35"/>
<stop offset="0.5" stop-color="#963C30"/>
<stop offset="1" stop-color="#E26D5C"/>
</linearGradient>
<linearGradient id="paint5_linear_0_1" x1="313" y1="362" x2="394" y2="362" gradientUnits="userSpaceOnUse">
<stop stop-color="#002B35"/>
<stop offset="1" stop-color="#40556A"/>
</linearGradient>
<linearGradient id="paint6_linear_0_1" x1="361.86" y1="240.804" x2="478.02" y2="240.804" gradientUnits="userSpaceOnUse">
<stop stop-color="#94A0D5"/>
<stop offset="0.5" stop-color="#40556A"/>
<stop offset="1" stop-color="#002B35"/>
</linearGradient>
<linearGradient id="paint7_linear_0_1" x1="315" y1="326.746" x2="451.816" y2="326.746" gradientUnits="userSpaceOnUse">
<stop stop-color="#963C30"/>
<stop offset="0.5" stop-color="#AF4638"/>
<stop offset="1" stop-color="#E26D5C"/>
</linearGradient>
<linearGradient id="paint8_linear_0_1" x1="316.455" y1="333.271" x2="399.09" y2="333.271" gradientUnits="userSpaceOnUse">
<stop stop-color="#963C30"/>
<stop offset="1" stop-color="#E26D5C"/>
</linearGradient>
<linearGradient id="paint9_linear_0_1" x1="511.2" y1="345.856" x2="437.864" y2="345.856" gradientUnits="userSpaceOnUse">
<stop stop-color="#94A0D5"/>
<stop offset="1" stop-color="#94A0D5"/>
</linearGradient>
<linearGradient id="paint10_linear_0_1" x1="444.374" y1="62.1174" x2="501.932" y2="62.1174" gradientUnits="userSpaceOnUse">
<stop stop-color="#94A0D5"/>
<stop offset="1" stop-color="#94A0D5"/>
</linearGradient>
<linearGradient id="paint11_linear_0_1" x1="448" y1="47" x2="393" y2="47" gradientUnits="userSpaceOnUse">
<stop stop-color="#E26D5C"/>
<stop offset="1" stop-color="#963C30"/>
</linearGradient>
<linearGradient id="paint12_linear_0_1" x1="541" y1="275" x2="473" y2="275" gradientUnits="userSpaceOnUse">
<stop stop-color="#E26D5C"/>
<stop offset="0.5" stop-color="#AF4638"/>
<stop offset="1" stop-color="#963C30"/>
</linearGradient>
<linearGradient id="paint13_linear_0_1" x1="543.5" y1="125" x2="466" y2="125" gradientUnits="userSpaceOnUse">
<stop stop-color="#E26D5C"/>
<stop offset="0.5" stop-color="#AF4638"/>
<stop offset="1" stop-color="#963C30"/>
</linearGradient>
<linearGradient id="paint14_linear_0_1" x1="393" y1="212" x2="317" y2="212" gradientUnits="userSpaceOnUse">
<stop stop-color="#E26D5C"/>
<stop offset="0.5" stop-color="#AF4638"/>
<stop offset="1" stop-color="#963C30"/>
</linearGradient>
<linearGradient id="paint15_linear_0_1" x1="456" y1="365" x2="388" y2="365" gradientUnits="userSpaceOnUse">
<stop stop-color="#E26D5C"/>
<stop offset="1" stop-color="#963C30"/>
</linearGradient>
<linearGradient id="paint16_linear_0_1" x1="263.5" y1="35" x2="58.5" y2="370.5" gradientUnits="userSpaceOnUse">
<stop stop-color="#40556A"/>
<stop offset="0.5" stop-color="#94A0D5"/>
<stop offset="1" stop-color="#002B35"/>
</linearGradient>
<linearGradient id="paint17_linear_0_1" x1="60" y1="174.5" x2="267" y2="174.5" gradientUnits="userSpaceOnUse">
<stop stop-color="#002B35"/>
<stop offset="1" stop-color="#40556A"/>
</linearGradient>
<linearGradient id="paint18_linear_0_1" x1="60" y1="213.5" x2="152" y2="213.5" gradientUnits="userSpaceOnUse">
<stop stop-color="#002B35"/>
<stop offset="1" stop-color="#40556A"/>
</linearGradient>
<linearGradient id="paint19_linear_0_1" x1="60" y1="251.5" x2="152" y2="251.5" gradientUnits="userSpaceOnUse">
<stop stop-color="#002B35"/>
<stop offset="1" stop-color="#94A0D5"/>
</linearGradient>
<linearGradient id="paint20_linear_0_1" x1="171" y1="212.5" x2="268" y2="212.5" gradientUnits="userSpaceOnUse">
<stop stop-color="#002B35"/>
<stop offset="1" stop-color="#40556A"/>
</linearGradient>
<linearGradient id="paint21_linear_0_1" x1="160" y1="134.5" x2="269" y2="134.5" gradientUnits="userSpaceOnUse">
<stop stop-color="#40556A"/>
<stop offset="1" stop-color="#002B35"/>
</linearGradient>
<linearGradient id="paint22_linear_0_1" x1="160" y1="98.5" x2="269" y2="98.5" gradientUnits="userSpaceOnUse">
<stop stop-color="#40556A"/>
<stop offset="1" stop-color="#40556A"/>
</linearGradient>
<linearGradient id="paint23_linear_0_1" x1="171" y1="251.5" x2="268" y2="251.5" gradientUnits="userSpaceOnUse">
<stop stop-color="#40556A"/>
<stop offset="1" stop-color="#40556A"/>
</linearGradient>
<linearGradient id="paint24_linear_0_1" x1="166" y1="308.5" x2="269" y2="308.5" gradientUnits="userSpaceOnUse">
<stop stop-color="#94A0D5"/>
<stop offset="1" stop-color="#94A0D5"/>
</linearGradient>
<linearGradient id="paint25_linear_0_1" x1="171" y1="346.5" x2="268" y2="346.5" gradientUnits="userSpaceOnUse">
<stop stop-color="#94A0D5"/>
<stop offset="1" stop-color="#94A0D5"/>
</linearGradient>
<linearGradient id="paint26_linear_0_1" x1="60" y1="346.5" x2="152" y2="346.5" gradientUnits="userSpaceOnUse">
<stop stop-color="#94A0D5"/>
<stop offset="1" stop-color="#94A0D5"/>
</linearGradient>
<linearGradient id="paint27_linear_0_1" x1="110.5" y1="107.5" x2="82.5" y2="126" gradientUnits="userSpaceOnUse">
<stop stop-color="#E26D5C"/>
<stop offset="1" stop-color="#963C30"/>
</linearGradient>
<linearGradient id="paint28_linear_0_1" x1="114" y1="74.5" x2="92.5" y2="131.5" gradientUnits="userSpaceOnUse">
<stop stop-color="#E26D5C"/>
<stop offset="0.5" stop-color="#AF4638"/>
<stop offset="0.75" stop-color="#963C30"/>
<stop offset="1" stop-color="#002B35"/>
</linearGradient>
<linearGradient id="paint29_linear_0_1" x1="80.1153" y1="101.922" x2="85.1664" y2="104.022" gradientUnits="userSpaceOnUse">
<stop stop-color="#40556A"/>
<stop offset="0.5" stop-color="#94A0D5"/>
<stop offset="1" stop-color="#002B35"/>
</linearGradient>
<linearGradient id="paint30_linear_0_1" x1="86.8081" y1="95.4617" x2="91.8592" y2="97.5612" gradientUnits="userSpaceOnUse">
<stop stop-color="#40556A"/>
<stop offset="0.5" stop-color="#94A0D5"/>
<stop offset="1" stop-color="#002B35"/>
</linearGradient>
<linearGradient id="paint31_linear_0_1" x1="93.8081" y1="89.4617" x2="98.8592" y2="91.5612" gradientUnits="userSpaceOnUse">
<stop stop-color="#40556A"/>
<stop offset="0.5" stop-color="#94A0D5"/>
<stop offset="1" stop-color="#002B35"/>
</linearGradient>
<linearGradient id="paint32_linear_0_1" x1="113.808" y1="97.4617" x2="118.859" y2="99.5612" gradientUnits="userSpaceOnUse">
<stop stop-color="#40556A"/>
<stop offset="0.5" stop-color="#94A0D5"/>
<stop offset="1" stop-color="#002B35"/>
</linearGradient>
<linearGradient id="paint33_linear_0_1" x1="115.808" y1="107.462" x2="120.859" y2="109.561" gradientUnits="userSpaceOnUse">
<stop stop-color="#40556A"/>
<stop offset="0.5" stop-color="#94A0D5"/>
<stop offset="1" stop-color="#002B35"/>
</linearGradient>
<linearGradient id="paint34_linear_0_1" x1="115.808" y1="116.462" x2="120.859" y2="118.561" gradientUnits="userSpaceOnUse">
<stop stop-color="#40556A"/>
<stop offset="0.5" stop-color="#94A0D5"/>
<stop offset="1" stop-color="#002B35"/>
</linearGradient>
<linearGradient id="paint35_linear_0_1" x1="110.095" y1="86.7705" x2="94.7034" y2="124.865" gradientUnits="userSpaceOnUse">
<stop stop-color="#40556A"/>
<stop offset="0.5" stop-color="#94A0D5"/>
<stop offset="1" stop-color="#002B35"/>
</linearGradient>
<linearGradient id="paint36_linear_0_1" x1="101.808" y1="83.4617" x2="106.859" y2="85.5612" gradientUnits="userSpaceOnUse">
<stop stop-color="#40556A"/>
<stop offset="0.5" stop-color="#94A0D5"/>
<stop offset="1" stop-color="#002B35"/>
</linearGradient>
<linearGradient id="paint37_linear_0_1" x1="112.808" y1="88.4617" x2="117.859" y2="90.5612" gradientUnits="userSpaceOnUse">
<stop stop-color="#40556A"/>
<stop offset="0.5" stop-color="#94A0D5"/>
<stop offset="1" stop-color="#002B35"/>
</linearGradient>
<linearGradient id="paint38_linear_0_1" x1="128.275" y1="70.9569" x2="120.46" y2="89.367" gradientUnits="userSpaceOnUse">
<stop stop-color="#40556A"/>
<stop offset="0.5" stop-color="#94A0D5"/>
<stop offset="1" stop-color="#002B35"/>
</linearGradient>
<linearGradient id="paint39_linear_0_1" x1="109.275" y1="64.1954" x2="101.46" y2="82.6055" gradientUnits="userSpaceOnUse">
<stop stop-color="#40556A"/>
<stop offset="0.5" stop-color="#94A0D5"/>
<stop offset="1" stop-color="#002B35"/>
</linearGradient>
<linearGradient id="paint40_linear_0_1" x1="104.813" y1="61.4636" x2="132.628" y2="72.7018" gradientUnits="userSpaceOnUse">
<stop stop-color="#40556A"/>
<stop offset="0.5" stop-color="#94A0D5"/>
<stop offset="1" stop-color="#002B35"/>
</linearGradient>
</defs>
</svg>
