<svg width="506" height="364" viewBox="0 0 506 364" fill="none" xmlns="http://www.w3.org/2000/svg">
<rect x="255" y="320" width="63" height="15" fill="url(#paint0_linear_0_1)"/>
<rect width="81.4427" height="17.8385" transform="matrix(0.426119 0.904667 -0.875781 0.482709 298.412 204.239)" fill="url(#paint1_linear_0_1)"/>
<rect width="77.9565" height="18.6399" transform="matrix(0.857637 -0.514256 0.456036 0.889961 282.594 296.977)" fill="url(#paint2_linear_0_1)"/>
<rect width="69.1594" height="18.8202" transform="matrix(0.937105 0.349047 -0.303313 0.952891 258.289 288.039)" fill="url(#paint3_linear_0_1)"/>
<rect width="70.6246" height="18.4607" transform="matrix(0.775107 -0.63183 0.571595 0.820536 349.081 317.85)" fill="url(#paint4_linear_0_1)"/>
<rect width="100.603" height="17.8385" transform="matrix(0.426119 -0.904667 0.875781 0.482709 283.629 152.651)" fill="url(#paint5_linear_0_1)"/>
<rect x="233" y="24" width="110" height="19" fill="url(#paint6_linear_0_1)"/>
<rect width="111.969" height="18.7544" transform="matrix(0.866842 -0.498584 0.441123 0.897447 239.993 86.689)" fill="url(#paint7_linear_0_1)"/>
<path d="M287.295 147.2C286.457 144.569 287.876 141.654 290.463 140.69L360.225 114.706L365.963 132.73L291.515 160.459L287.295 147.2Z" fill="url(#paint8_linear_0_1)"/>
<rect width="76.3996" height="18.3814" transform="matrix(0.691509 0.722368 -0.665957 0.74599 356.288 31.7706)" fill="url(#paint9_linear_0_1)"/>
<rect width="76.3996" height="18.3814" transform="matrix(0.691509 0.722368 -0.665957 0.74599 436.845 121.636)" fill="url(#paint10_linear_0_1)"/>
<rect width="77.2266" height="18.1813" transform="matrix(0.585504 -0.810669 0.763764 0.645495 409.543 258.469)" fill="url(#paint11_linear_0_1)"/>
<rect width="142.009" height="10.1896" transform="matrix(0.334425 -0.942422 0.923543 0.383494 360.92 260.673)" fill="url(#paint12_linear_0_1)"/>
<rect width="142.009" height="10.1896" transform="matrix(0.334425 0.942422 -0.923543 0.383494 370.331 126.841)" fill="url(#paint13_linear_0_1)"/>
<rect width="111.969" height="18.7544" transform="matrix(0.866842 -0.498584 0.441123 0.897447 234.958 72.1653)" fill="url(#paint14_linear_0_1)"/>
<ellipse cx="471.5" cy="182.5" rx="34.5" ry="36.5" fill="white"/>
<ellipse cx="412.5" cy="109" rx="34.5" ry="36" fill="white"/>
<ellipse cx="412.5" cy="270.5" rx="34.5" ry="36.5" fill="white"/>
<ellipse cx="346.5" cy="37.5" rx="34.5" ry="36.5" fill="white"/>
<ellipse cx="282.5" cy="182.5" rx="34.5" ry="36.5" fill="white"/>
<ellipse cx="347.5" cy="327.5" rx="34.5" ry="36.5" fill="white"/>
<ellipse cx="346.5" cy="37.5" rx="29.5" ry="31.5" fill="url(#paint15_linear_0_1)"/>
<ellipse cx="412.5" cy="109.5" rx="29.5" ry="31.5" fill="url(#paint16_linear_0_1)"/>
<ellipse cx="412.5" cy="270" rx="29.5" ry="31" fill="url(#paint17_linear_0_1)"/>
<ellipse cx="471.5" cy="183" rx="29.5" ry="31" fill="url(#paint18_linear_0_1)"/>
<ellipse cx="347.5" cy="327.5" rx="29.5" ry="31.5" fill="url(#paint19_linear_0_1)"/>
<ellipse cx="281" cy="183" rx="29" ry="31" fill="url(#paint20_linear_0_1)"/>
<path d="M188 0V0C228.317 0 261 32.6832 261 73V359H188V0Z" fill="white"/>
<path d="M11.5 11.5H175C212.832 11.5 243.5 42.1685 243.5 80V347.5H80C42.1685 347.5 11.5 316.832 11.5 279V11.5Z" stroke="url(#paint21_linear_0_1)" stroke-width="23"/>
<path d="M128 78H219" stroke="url(#paint22_linear_0_1)" stroke-width="18" stroke-linecap="round"/>
<path d="M135 112L212 112" stroke="url(#paint23_linear_0_1)" stroke-width="18" stroke-linecap="round"/>
<path d="M49.5091 147.052L211.463 147.96" stroke="url(#paint24_linear_0_1)" stroke-width="18" stroke-linecap="round"/>
<path d="M143 182L212 182" stroke="url(#paint25_linear_0_1)" stroke-width="18" stroke-linecap="round"/>
<path d="M50 182L118 182" stroke="url(#paint26_linear_0_1)" stroke-width="18" stroke-linecap="round"/>
<path d="M50 218L118 218" stroke="url(#paint27_linear_0_1)" stroke-width="18" stroke-linecap="round"/>
<path d="M143 218L212 218" stroke="url(#paint28_linear_0_1)" stroke-width="18" stroke-linecap="round"/>
<path d="M143 303L212 303" stroke="url(#paint29_linear_0_1)" stroke-width="18" stroke-linecap="round"/>
<path d="M50 303L118 303" stroke="url(#paint30_linear_0_1)" stroke-width="18" stroke-linecap="round"/>
<path d="M140 269L212 269" stroke="url(#paint31_linear_0_1)" stroke-width="18" stroke-linecap="round"/>
<ellipse cx="78" cy="90.5" rx="24" ry="26.5" fill="url(#paint32_linear_0_1)"/>
<ellipse cx="76.5" cy="91" rx="14.5" ry="17" fill="white"/>
<rect x="75" y="56" width="36" height="44" fill="white"/>
<rect width="12.9684" height="27.9735" rx="2" transform="matrix(0.807824 -0.589424 0.529107 0.848555 62.3997 60.6819)" fill="url(#paint33_linear_0_1)"/>
<ellipse cx="70" cy="71.5" rx="7" ry="7.5" fill="white"/>
<ellipse cx="70" cy="71.5" rx="6" ry="6.5" fill="url(#paint34_linear_0_1)"/>
<circle cx="70" cy="71" r="3" fill="white"/>
<path d="M58.1507 49.3004C57.5663 48.3631 57.8159 47.0755 58.7082 46.4244L62.6539 43.5455C63.5461 42.8944 64.7433 43.1265 65.3277 44.0637L70.3611 52.136L63.1841 57.3727L58.1507 49.3004Z" fill="url(#paint35_linear_0_1)"/>
<rect x="82" y="99" width="22" height="5" rx="2.5" fill="url(#paint36_linear_0_1)"/>
<path d="M57 122C57 117.029 61.0294 113 66 113H89C93.9706 113 98 117.029 98 122V122H57V122Z" fill="url(#paint37_linear_0_1)"/>
<circle cx="362" cy="265" r="15" fill="white"/>
<ellipse cx="364.5" cy="125" rx="14.5" ry="15" fill="white"/>
<ellipse cx="364.5" cy="125" rx="12.5" ry="13" fill="url(#paint38_linear_0_1)"/>
<ellipse cx="362" cy="264.5" rx="12" ry="13.5" fill="url(#paint39_linear_0_1)"/>
<defs>
<linearGradient id="paint0_linear_0_1" x1="439.38" y1="33.2353" x2="242.09" y2="319.029" gradientUnits="userSpaceOnUse">
<stop stop-color="#D6BCD8"/>
<stop offset="0.5" stop-color="#F39590" stop-opacity="0.831373"/>
<stop offset="1" stop-color="#F9705E" stop-opacity="0.662745"/>
</linearGradient>
<linearGradient id="paint1_linear_0_1" x1="-60.343" y1="-185.907" x2="75.3091" y2="125.331" gradientUnits="userSpaceOnUse">
<stop stop-color="#D6BCD8"/>
<stop offset="0.5" stop-color="#F39590" stop-opacity="0.831373"/>
<stop offset="1" stop-color="#F9705E" stop-opacity="0.662745"/>
</linearGradient>
<linearGradient id="paint2_linear_0_1" x1="267.238" y1="-159.896" x2="-58.6865" y2="0.371497" gradientUnits="userSpaceOnUse">
<stop stop-color="#D8C5F5"/>
<stop offset="0.5" stop-color="#AFD5E8"/>
<stop offset="1" stop-color="#69B5D5"/>
</linearGradient>
<linearGradient id="paint3_linear_0_1" x1="101.37" y1="-308.451" x2="-5.57385" y2="58.9039" gradientUnits="userSpaceOnUse">
<stop stop-color="#D8C5F5"/>
<stop offset="0.5" stop-color="#AFD5E8"/>
<stop offset="1" stop-color="#69B5D5"/>
</linearGradient>
<linearGradient id="paint4_linear_0_1" x1="222.01" y1="-186.547" x2="-103.404" y2="-64.3374" gradientUnits="userSpaceOnUse">
<stop stop-color="#D6BCD8"/>
<stop offset="0.5" stop-color="#F39590" stop-opacity="0.831373"/>
<stop offset="1" stop-color="#F9705E" stop-opacity="0.662745"/>
</linearGradient>
<linearGradient id="paint5_linear_0_1" x1="184.398" y1="93.2878" x2="-188.204" y2="41.9079" gradientUnits="userSpaceOnUse">
<stop stop-color="#D6BCD8"/>
<stop offset="0.5" stop-color="#F39590" stop-opacity="0.831373"/>
<stop offset="1" stop-color="#F9705E" stop-opacity="0.662745"/>
</linearGradient>
<linearGradient id="paint6_linear_0_1" x1="460.557" y1="2.28572" x2="217.304" y2="329.1" gradientUnits="userSpaceOnUse">
<stop stop-color="#D8C5F5"/>
<stop offset="0.5" stop-color="#AFD5E8"/>
<stop offset="1" stop-color="#69B5D5"/>
</linearGradient>
<linearGradient id="paint7_linear_0_1" x1="207.781" y1="25.4135" x2="-118.907" y2="207.528" gradientUnits="userSpaceOnUse">
<stop stop-color="#D8C5F5"/>
<stop offset="0.5" stop-color="#AFD5E8"/>
<stop offset="1" stop-color="#69B5D5"/>
</linearGradient>
<linearGradient id="paint8_linear_0_1" x1="432.379" y1="22.6916" x2="222.871" y2="354.075" gradientUnits="userSpaceOnUse">
<stop stop-color="#D8C5F5"/>
<stop offset="0.5" stop-color="#AFD5E8"/>
<stop offset="1" stop-color="#69B5D5"/>
</linearGradient>
<linearGradient id="paint9_linear_0_1" x1="47.9807" y1="-46.4614" x2="120.997" y2="284.667" gradientUnits="userSpaceOnUse">
<stop stop-color="#D6BCD8"/>
<stop offset="0.5" stop-color="#F39590" stop-opacity="0.831373"/>
<stop offset="1" stop-color="#F9705E" stop-opacity="0.662745"/>
</linearGradient>
<linearGradient id="paint10_linear_0_1" x1="-23.8516" y1="-104.669" x2="-1.04185" y2="294.374" gradientUnits="userSpaceOnUse">
<stop stop-color="#D6BCD8"/>
<stop offset="0.5" stop-color="#F39590" stop-opacity="0.831373"/>
<stop offset="1" stop-color="#F9705E" stop-opacity="0.662745"/>
</linearGradient>
<linearGradient id="paint11_linear_0_1" x1="217.208" y1="-89.6617" x2="-158.56" y2="-80.3083" gradientUnits="userSpaceOnUse">
<stop stop-color="#D6BCD8"/>
<stop offset="0.5" stop-color="#F39590" stop-opacity="0.831373"/>
<stop offset="1" stop-color="#F9705E" stop-opacity="0.662745"/>
</linearGradient>
<linearGradient id="paint12_linear_0_1" x1="257.325" y1="30.7462" x2="-125.25" y2="-98.7562" gradientUnits="userSpaceOnUse">
<stop stop-color="#D6BCD8"/>
<stop offset="0.5" stop-color="#F39590" stop-opacity="0.831373"/>
<stop offset="1" stop-color="#F9705E" stop-opacity="0.662745"/>
</linearGradient>
<linearGradient id="paint13_linear_0_1" x1="-44.087" y1="-114.709" x2="147.198" y2="194.309" gradientUnits="userSpaceOnUse">
<stop stop-color="#D6BCD8"/>
<stop offset="0.5" stop-color="#F39590" stop-opacity="0.831373"/>
<stop offset="1" stop-color="#F9705E" stop-opacity="0.662745"/>
</linearGradient>
<linearGradient id="paint14_linear_0_1" x1="235.234" y1="68.4808" x2="-127.281" y2="227.652" gradientUnits="userSpaceOnUse">
<stop stop-color="#D6BCD8"/>
<stop offset="0.5" stop-color="#F39590" stop-opacity="0.831373"/>
<stop offset="1" stop-color="#F9705E" stop-opacity="0.662745"/>
</linearGradient>
<linearGradient id="paint15_linear_0_1" x1="402.55" y1="-0.391302" x2="210.432" y2="338.025" gradientUnits="userSpaceOnUse">
<stop stop-color="#D8C5F5"/>
<stop offset="0.5" stop-color="#AFD5E8"/>
<stop offset="1" stop-color="#69B5D5"/>
</linearGradient>
<linearGradient id="paint16_linear_0_1" x1="442" y1="17.2826" x2="224.842" y2="323.187" gradientUnits="userSpaceOnUse">
<stop stop-color="#D8C5F5"/>
<stop offset="0.5" stop-color="#AFD5E8"/>
<stop offset="1" stop-color="#69B5D5"/>
</linearGradient>
<linearGradient id="paint17_linear_0_1" x1="476.979" y1="36.8261" x2="223.256" y2="325.487" gradientUnits="userSpaceOnUse">
<stop stop-color="#D8C5F5"/>
<stop offset="0.5" stop-color="#AFD5E8"/>
<stop offset="1" stop-color="#69B5D5"/>
</linearGradient>
<linearGradient id="paint18_linear_0_1" x1="479.929" y1="7.33334" x2="229.993" y2="324.498" gradientUnits="userSpaceOnUse">
<stop stop-color="#D8C5F5"/>
<stop offset="0.5" stop-color="#AFD5E8"/>
<stop offset="1" stop-color="#69B5D5"/>
</linearGradient>
<linearGradient id="paint19_linear_0_1" x1="463.393" y1="28.4783" x2="219.753" y2="331.656" gradientUnits="userSpaceOnUse">
<stop stop-color="#D8C5F5"/>
<stop offset="0.5" stop-color="#AFD5E8"/>
<stop offset="1" stop-color="#69B5D5"/>
</linearGradient>
<linearGradient id="paint20_linear_0_1" x1="416.057" y1="20.8116" x2="213.572" y2="331.576" gradientUnits="userSpaceOnUse">
<stop stop-color="#D8C5F5"/>
<stop offset="0.5" stop-color="#AFD5E8"/>
<stop offset="1" stop-color="#69B5D5"/>
</linearGradient>
<linearGradient id="paint21_linear_0_1" x1="227.739" y1="13.6329" x2="-0.38574" y2="321.482" gradientUnits="userSpaceOnUse">
<stop stop-color="#D6BCD8"/>
<stop offset="0.5" stop-color="#F39590" stop-opacity="0.831373"/>
<stop offset="1" stop-color="#F9705E" stop-opacity="0.662745"/>
</linearGradient>
<linearGradient id="paint22_linear_0_1" x1="231.523" y1="22" x2="-19.5756" y2="318.543" gradientUnits="userSpaceOnUse">
<stop stop-color="#D6BCD8"/>
<stop offset="0.5" stop-color="#F39590" stop-opacity="0.831373"/>
<stop offset="1" stop-color="#F9705E" stop-opacity="0.662745"/>
</linearGradient>
<linearGradient id="paint23_linear_0_1" x1="229.576" y1="20" x2="-21.4607" y2="306.668" gradientUnits="userSpaceOnUse">
<stop stop-color="#D6BCD8"/>
<stop offset="0.5" stop-color="#F39590" stop-opacity="0.831373"/>
<stop offset="1" stop-color="#F9705E" stop-opacity="0.662745"/>
</linearGradient>
<linearGradient id="paint24_linear_0_1" x1="227.885" y1="14.4508" x2="-20.5295" y2="309.889" gradientUnits="userSpaceOnUse">
<stop stop-color="#D6BCD8"/>
<stop offset="0.5" stop-color="#F39590" stop-opacity="0.831373"/>
<stop offset="1" stop-color="#F9705E" stop-opacity="0.662745"/>
</linearGradient>
<linearGradient id="paint25_linear_0_1" x1="222.518" y1="10.5" x2="-18.2659" y2="308.666" gradientUnits="userSpaceOnUse">
<stop stop-color="#D6BCD8"/>
<stop offset="0.5" stop-color="#F39590" stop-opacity="0.831373"/>
<stop offset="1" stop-color="#F9705E" stop-opacity="0.662745"/>
</linearGradient>
<linearGradient id="paint26_linear_0_1" x1="224.561" y1="10" x2="-24.6478" y2="305.416" gradientUnits="userSpaceOnUse">
<stop stop-color="#D6BCD8"/>
<stop offset="0.5" stop-color="#F39590" stop-opacity="0.831373"/>
<stop offset="1" stop-color="#F9705E" stop-opacity="0.662745"/>
</linearGradient>
<linearGradient id="paint27_linear_0_1" x1="222.902" y1="2.50001" x2="-26.2422" y2="297.405" gradientUnits="userSpaceOnUse">
<stop stop-color="#D6BCD8"/>
<stop offset="0.5" stop-color="#F39590" stop-opacity="0.831373"/>
<stop offset="1" stop-color="#F9705E" stop-opacity="0.662745"/>
</linearGradient>
<linearGradient id="paint28_linear_0_1" x1="219.994" y1="0.999998" x2="-21.3476" y2="304.29" gradientUnits="userSpaceOnUse">
<stop stop-color="#D6BCD8"/>
<stop offset="0.5" stop-color="#F39590" stop-opacity="0.831373"/>
<stop offset="1" stop-color="#F9705E" stop-opacity="0.662745"/>
</linearGradient>
<linearGradient id="paint29_linear_0_1" x1="222.939" y1="-1.99999" x2="-26.1094" y2="289.55" gradientUnits="userSpaceOnUse">
<stop stop-color="#D6BCD8"/>
<stop offset="0.5" stop-color="#F39590" stop-opacity="0.831373"/>
<stop offset="1" stop-color="#F9705E" stop-opacity="0.662745"/>
</linearGradient>
<linearGradient id="paint30_linear_0_1" x1="223.317" y1="-2.49999" x2="-20.7365" y2="294.741" gradientUnits="userSpaceOnUse">
<stop stop-color="#D6BCD8"/>
<stop offset="0.5" stop-color="#F39590" stop-opacity="0.831373"/>
<stop offset="1" stop-color="#F9705E" stop-opacity="0.662745"/>
</linearGradient>
<linearGradient id="paint31_linear_0_1" x1="220.791" y1="2.00001" x2="-21.8906" y2="297.527" gradientUnits="userSpaceOnUse">
<stop stop-color="#D6BCD8"/>
<stop offset="0.5" stop-color="#F39590" stop-opacity="0.831373"/>
<stop offset="1" stop-color="#F9705E" stop-opacity="0.662745"/>
</linearGradient>
<linearGradient id="paint32_linear_0_1" x1="78" y1="64" x2="78" y2="117" gradientUnits="userSpaceOnUse">
<stop stop-color="#D8C5F5"/>
<stop offset="0.5" stop-color="#AFD5E8"/>
<stop offset="1" stop-color="#69B5D5"/>
</linearGradient>
<linearGradient id="paint33_linear_0_1" x1="23.7295" y1="-10.6349" x2="-23.1348" y2="56.8325" gradientUnits="userSpaceOnUse">
<stop stop-color="#D8C5F5"/>
<stop offset="0.5" stop-color="#AFD5E8"/>
<stop offset="1" stop-color="#69B5D5"/>
</linearGradient>
<linearGradient id="paint34_linear_0_1" x1="70" y1="41.7857" x2="70" y2="122.107" gradientUnits="userSpaceOnUse">
<stop stop-color="#D8C5F5"/>
<stop offset="0.5" stop-color="#AFD5E8"/>
<stop offset="1" stop-color="#69B5D5"/>
</linearGradient>
<linearGradient id="paint35_linear_0_1" x1="60.681" y1="44.985" x2="61.8461" y2="123.449" gradientUnits="userSpaceOnUse">
<stop stop-color="#D8C5F5"/>
<stop offset="0.5" stop-color="#AFD5E8"/>
<stop offset="1" stop-color="#69B5D5"/>
</linearGradient>
<linearGradient id="paint36_linear_0_1" x1="95.1154" y1="57.3333" x2="93.0635" y2="119.835" gradientUnits="userSpaceOnUse">
<stop stop-color="#D8C5F5"/>
<stop offset="0.5" stop-color="#AFD5E8"/>
<stop offset="1" stop-color="#69B5D5"/>
</linearGradient>
<linearGradient id="paint37_linear_0_1" x1="77.0816" y1="44.6" x2="75.6296" y2="120.646" gradientUnits="userSpaceOnUse">
<stop stop-color="#D8C5F5"/>
<stop offset="0.5" stop-color="#AFD5E8"/>
<stop offset="1" stop-color="#69B5D5"/>
</linearGradient>
<linearGradient id="paint38_linear_0_1" x1="407.603" y1="60.8965" x2="227.92" y2="342.857" gradientUnits="userSpaceOnUse">
<stop stop-color="#D8C5F5"/>
<stop offset="0.5" stop-color="#AFD5E8"/>
<stop offset="1" stop-color="#69B5D5"/>
</linearGradient>
<linearGradient id="paint39_linear_0_1" x1="452.621" y1="34.069" x2="210.721" y2="316.1" gradientUnits="userSpaceOnUse">
<stop offset="0.5" stop-color="#D8C5F5"/>
<stop offset="0.75" stop-color="#AFD5E8"/>
<stop offset="1" stop-color="#69B5D5"/>
</linearGradient>
</defs>
</svg>
